<?xml version="1.0" encoding="UTF-8" standalone="no"?>
<svg
   xmlns:dc="http://purl.org/dc/elements/1.1/"
   xmlns:cc="http://creativecommons.org/ns#"
   xmlns:rdf="http://www.w3.org/1999/02/22-rdf-syntax-ns#"
   xmlns:svg="http://www.w3.org/2000/svg"
   xmlns="http://www.w3.org/2000/svg"
   xmlns:sodipodi="http://sodipodi.sourceforge.net/DTD/sodipodi-0.dtd"
   xmlns:inkscape="http://www.inkscape.org/namespaces/inkscape"
   version="1.1"
   width="54mm"
   height="45mm"
   id="svg41"
   sodipodi:docname="angleSideAngleCongruentTriangles.svg"
   inkscape:version="0.92.3 (2405546, 2018-03-11)">
  <metadata
     id="metadata45">
    <rdf:RDF>
      <cc:Work
         rdf:about="">
        <dc:format>image/svg+xml</dc:format>
        <dc:type
           rdf:resource="http://purl.org/dc/dcmitype/StillImage" />
        <dc:title></dc:title>
      </cc:Work>
    </rdf:RDF>
  </metadata>
  <sodipodi:namedview
     pagecolor="#ffffff"
     bordercolor="#666666"
     borderopacity="1"
     objecttolerance="10"
     gridtolerance="10"
     guidetolerance="10"
     inkscape:pageopacity="0"
     inkscape:pageshadow="2"
     inkscape:window-width="1600"
     inkscape:window-height="837"
     id="namedview43"
     showgrid="false"
     borderlayer="true"
     inkscape:zoom="1"
     inkscape:cx="160.63074"
     inkscape:cy="140.5"
     inkscape:window-x="-8"
     inkscape:window-y="164"
     inkscape:window-maximized="1"
     inkscape:current-layer="svg41"
     units="mm" />
  <defs
     id="defs5">
    <clipPath
       id="eoawToBusFwi">
      <path
         d="M 0,0 H 1220 V 761 H 0 Z"
         id="path2"
         inkscape:connector-curvature="0"
         style="fill:none;stroke:none" />
    </clipPath>
    <clipPath
       id="eoawToBusFwi-1">
      <path
         id="path856"
         d="M 0,0 H 1220 V 761 H 0 Z"
         inkscape:connector-curvature="0"
         style="fill:none;stroke:none" />
    </clipPath>
  </defs>
  <path
     style="opacity:1;fill:#ffffff;fill-opacity:1;stroke:none;stroke-width:0.80645162;stroke-miterlimit:4;stroke-dasharray:none;stroke-dashoffset:1.10966921;stroke-opacity:1"
     d="m 28.904744,130.31583 c 0.039,-6.73119 1.777003,-10.887 4.169164,-9.96904 1.243234,0.47707 2.260426,1.95612 2.260426,3.28676 0,1.4251 0.9394,2.05888 2.285872,1.54219 1.25723,-0.48245 2.708843,0.22507 3.225807,1.57225 1.313654,3.42333 1.368222,3.34131 -2.942485,4.42322 -2.135329,0.53594 -5.038555,1.41808 -6.451612,1.96032 -1.905343,0.73115 -2.563505,0.004 -2.547172,-2.8157 z"
     id="path852"
     inkscape:connector-curvature="0" />
  <path
     style="opacity:1;fill:#ffffff;fill-opacity:1;stroke:none;stroke-width:0.80645162;stroke-miterlimit:4;stroke-dasharray:none;stroke-dashoffset:1.10966921;stroke-opacity:1"
     d="m 99.44724,106.89765 c 1.10887,-0.44744 2.01613,-1.78127 2.01613,-2.96406 0,-1.1828 -0.90726,-2.51663 -2.01613,-2.96406 -1.10887,-0.44744 -0.56452,-0.84511 1.20967,-0.88371 1.7742,-0.0386 4.95495,0.88831 7.06835,2.05981 l 3.84254,2.12999 -5.2929,1.84511 c -5.12381,1.78617 -10.98042,2.4526 -6.82766,0.77692 z"
     id="path854"
     inkscape:connector-curvature="0" />
  <g
     transform="translate(-335.29137,-358.59767)"
     clip-path="url(#eoawToBusFwi-1)"
     id="g958">
    <g
       id="g956">
      <path
         inkscape:connector-curvature="0"
         id="path926"
         transform="translate(-362.58064,-20.82258)"
         d="M 675.80664,367.45117 V 511 H 841.93555 V 367.45117 Z"
         style="fill:none;fill-opacity:1;stroke:none" />
      <path
         style="fill:#000000;fill-opacity:0.09803922;stroke:none;paint-order:stroke fill markers"
         inkscape:connector-curvature="0"
         d="m 370.80189,441.18173 c -2.51849,-6.94492 -8.66024,-11.93597 -15.97346,-12.98072 L 352,448 Z"
         id="path928" />
      <path
         style="fill:none;stroke:#000000;stroke-width:1.5;stroke-linecap:round;stroke-linejoin:round;stroke-miterlimit:10;stroke-opacity:1;paint-order:fill stroke markers"
         inkscape:connector-curvature="0"
         d="m 370.80189,441.18173 c -2.51849,-6.94492 -8.66024,-11.93597 -15.97346,-12.98072 L 352,448 Z"
         stroke-miterlimit="10"
         id="path930" />
      <path
         style="fill:none;stroke:#000000;stroke-width:1.5;stroke-linecap:round;stroke-linejoin:round;stroke-miterlimit:10;stroke-opacity:1;paint-order:fill stroke markers"
         inkscape:connector-curvature="0"
         d="m 362.56354,435.001 4.09929,-5.04439"
         stroke-miterlimit="10"
         id="path932" />
      <path
         style="fill:#000000;fill-opacity:0.09803922;stroke:none;paint-order:stroke fill markers"
         inkscape:connector-curvature="0"
         d="m 424.80808,406.69011 c -2.17794,4.76794 -2.39698,10.20035 -0.60997,15.12816 L 443,415 Z"
         id="path934" />
      <path
         style="fill:none;stroke:#000000;stroke-width:1.5;stroke-linecap:round;stroke-linejoin:round;stroke-miterlimit:10;stroke-opacity:1;paint-order:fill stroke markers"
         inkscape:connector-curvature="0"
         d="m 424.80808,406.69011 c -2.17794,4.76794 -2.39698,10.20035 -0.60997,15.12816 L 443,415 Z"
         stroke-miterlimit="10"
         id="path936" />
      <path
         style="fill:none;stroke:#000000;stroke-width:1.5;stroke-linecap:round;stroke-linejoin:round;stroke-miterlimit:10;stroke-opacity:1;paint-order:fill stroke markers"
         inkscape:connector-curvature="0"
         d="m 426.36635,413.02914 -6.45485,-0.76481"
         stroke-miterlimit="10"
         id="path938" />
      <path
         style="fill:none;stroke:#000000;stroke-width:1.5;stroke-linecap:round;stroke-linejoin:round;stroke-miterlimit:10;stroke-opacity:1;paint-order:fill stroke markers"
         inkscape:connector-curvature="0"
         d="m 426.26167,415.62528 -6.49546,0.24264"
         stroke-miterlimit="10"
         id="path940" />
      <path
         style="fill:none;stroke:#000000;stroke-width:2.5;stroke-linecap:round;stroke-linejoin:round;stroke-miterlimit:10;stroke-opacity:1;paint-order:fill stroke markers"
         inkscape:connector-curvature="0"
         d="M 443,415 362,378"
         stroke-miterlimit="10"
         id="path942" />
      <path
         style="fill:none;stroke:#000000;stroke-width:2.5;stroke-linecap:round;stroke-linejoin:round;stroke-miterlimit:10;stroke-opacity:1;paint-order:fill stroke markers"
         inkscape:connector-curvature="0"
         d="m 362,378 -10,70"
         stroke-miterlimit="10"
         id="path944" />
      <path
         style="fill:none;stroke:#000000;stroke-width:1.5;stroke-linecap:round;stroke-linejoin:round;stroke-miterlimit:10;stroke-opacity:1;paint-order:fill stroke markers"
         inkscape:connector-curvature="0"
         d="m 352,448 91,-33"
         stroke-miterlimit="10"
         id="path946" />
      <path
         style="fill:none;stroke:#000000;stroke-width:1.5;stroke-linecap:round;stroke-linejoin:round;stroke-miterlimit:10;stroke-opacity:1;paint-order:fill stroke markers"
         inkscape:connector-curvature="0"
         d="m 392.03505,428.16318 3.40914,9.40095"
         stroke-miterlimit="10"
         id="path948" />
      <path
         style="fill:none;stroke:#000000;stroke-width:1.5;stroke-linecap:round;stroke-linejoin:round;stroke-miterlimit:10;stroke-opacity:1;paint-order:fill stroke markers"
         inkscape:connector-curvature="0"
         d="m 395.79543,426.79953 3.40914,9.40094"
         stroke-miterlimit="10"
         id="path950" />
      <path
         style="fill:none;stroke:#000000;stroke-width:1.5;stroke-linecap:round;stroke-linejoin:round;stroke-miterlimit:10;stroke-opacity:1;paint-order:fill stroke markers"
         inkscape:connector-curvature="0"
         d="m 399.55581,425.43587 3.40914,9.40095"
         stroke-miterlimit="10"
         id="path952" />
      <path
         style="fill:none;stroke:#000000;stroke-width:2.5;stroke-linecap:round;stroke-linejoin:round;stroke-miterlimit:10;stroke-opacity:0.69803922;paint-order:fill stroke markers"
         inkscape:connector-curvature="0"
         d="m 352,448 91,-33"
         stroke-miterlimit="10"
         id="path954" />
    </g>
  </g>
  <path
     style="opacity:1;fill:#000000;fill-opacity:0;stroke:none;stroke-width:0.25;stroke-miterlimit:4;stroke-dasharray:none;stroke-dashoffset:1.10966921;stroke-opacity:1"
     d="m 29.327641,129.89642 c 0,-0.9328 2.018273,-15.2002 2.170292,-15.34204 0.208615,-0.19465 5.194243,1.93261 6.039398,2.57688 0.899142,0.68543 0.907028,0.78978 0.125,1.65391 -0.459079,0.50728 -0.83469,1.18585 -0.83469,1.50795 0,0.96196 1.526412,0.6638 2.451721,-0.47891 l 0.862014,-1.06454 1.520785,1.93954 c 0.836432,1.06675 1.801572,2.4744 2.144756,3.12813 0.763279,1.45395 0.665569,1.52704 -4.470827,3.34407 -2.067147,0.73126 -5.164699,1.85674 -6.883449,2.50105 -2.972395,1.11427 -3.125,1.12569 -3.125,0.23396 z"
     id="path960"
     inkscape:connector-curvature="0" />
  <path
     style="opacity:1;fill:#000000;fill-opacity:0;stroke:none;stroke-width:0.25;stroke-miterlimit:4;stroke-dasharray:none;stroke-dashoffset:1.10966921;stroke-opacity:1"
     d="m 99.64278,103.75375 c -0.45947,-1.71452 -0.41518,-1.79703 1.05559,-1.96679 0.82672,-0.0954 1.43658,-0.50547 1.53666,-1.03321 0.12886,-0.67952 -0.17736,-0.874998 -1.37073,-0.874998 -0.84516,0 -1.53666,-0.225 -1.53666,-0.5 0,-0.275 0.6915,-0.5 1.53666,-0.5 1.19337,0 1.49959,-0.19548 1.37073,-0.875 -0.0972,-0.5124 -0.70318,-0.93759 -1.46235,-1.02604 -1.08151,-0.126 -1.25739,-0.35515 -1.06102,-1.382388 0.12946,-0.67724 0.45201,-1.36523 0.71678,-1.52887 0.46633,-0.28821 13.35554,5.308978 13.38456,5.812298 0.014,0.243218 -12.92009,5.022358 -13.55204,5.007468 -0.17418,-0.004 -0.45236,-0.51372 -0.61818,-1.13247 z"
     id="path962"
     inkscape:connector-curvature="0" />
  <path
     style="opacity:1;fill:#000000;fill-opacity:0;stroke:none;stroke-width:0.25;stroke-miterlimit:4;stroke-dasharray:none;stroke-dashoffset:1.10966921;stroke-opacity:1"
     d="m 29.327641,129.89642 c 0,-0.9328 2.018273,-15.2002 2.170292,-15.34204 0.208615,-0.19465 5.194243,1.93261 6.039398,2.57688 0.899142,0.68543 0.907028,0.78978 0.125,1.65391 -0.459079,0.50728 -0.83469,1.18585 -0.83469,1.50795 0,0.96196 1.526412,0.6638 2.451721,-0.47891 l 0.862014,-1.06454 1.520785,1.93954 c 0.836432,1.06675 1.801572,2.4744 2.144756,3.12813 0.763279,1.45395 0.665569,1.52704 -4.470827,3.34407 -2.067147,0.73126 -5.164699,1.85674 -6.883449,2.50105 -2.972395,1.11427 -3.125,1.12569 -3.125,0.23396 z"
     id="path964"
     inkscape:connector-curvature="0" />
  <path
     style="opacity:1;fill:#000000;fill-opacity:0;stroke:none;stroke-width:0.25;stroke-miterlimit:4;stroke-dasharray:none;stroke-dashoffset:1.10966921;stroke-opacity:1"
     d="m 99.64278,103.75375 c -0.45947,-1.71452 -0.41518,-1.79703 1.05559,-1.96679 0.82672,-0.0954 1.43658,-0.50547 1.53666,-1.03321 0.12886,-0.67952 -0.17736,-0.874998 -1.37073,-0.874998 -0.84516,0 -1.53666,-0.225 -1.53666,-0.5 0,-0.275 0.6915,-0.5 1.53666,-0.5 1.19337,0 1.49959,-0.19548 1.37073,-0.875 -0.0972,-0.5124 -0.70318,-0.93759 -1.46235,-1.02604 -1.08151,-0.126 -1.25739,-0.35515 -1.06102,-1.382388 0.12946,-0.67724 0.45201,-1.36523 0.71678,-1.52887 0.46633,-0.28821 13.35554,5.308978 13.38456,5.812298 0.014,0.243218 -12.92009,5.022358 -13.55204,5.007468 -0.17418,-0.004 -0.45236,-0.51372 -0.61818,-1.13247 z"
     id="path966"
     inkscape:connector-curvature="0" />
  <path
     style="opacity:1;fill:#000000;fill-opacity:0;stroke:none;stroke-width:0.25;stroke-miterlimit:4;stroke-dasharray:none;stroke-dashoffset:1.10966921;stroke-opacity:1"
     d="m 29.327641,129.89642 c 0,-0.9328 2.018273,-15.2002 2.170292,-15.34204 0.208615,-0.19465 5.194243,1.93261 6.039398,2.57688 0.899142,0.68543 0.907028,0.78978 0.125,1.65391 -0.459079,0.50728 -0.83469,1.18585 -0.83469,1.50795 0,0.96196 1.526412,0.6638 2.451721,-0.47891 l 0.862014,-1.06454 1.520785,1.93954 c 0.836432,1.06675 1.801572,2.4744 2.144756,3.12813 0.763279,1.45395 0.665569,1.52704 -4.470827,3.34407 -2.067147,0.73126 -5.164699,1.85674 -6.883449,2.50105 -2.972395,1.11427 -3.125,1.12569 -3.125,0.23396 z"
     id="path968"
     inkscape:connector-curvature="0" />
  <path
     style="opacity:1;fill:#000000;fill-opacity:0;stroke:none;stroke-width:0.25;stroke-miterlimit:4;stroke-dasharray:none;stroke-dashoffset:1.10966921;stroke-opacity:1"
     d="m 99.64278,103.75375 c -0.45947,-1.71452 -0.41518,-1.79703 1.05559,-1.96679 0.82672,-0.0954 1.43658,-0.50547 1.53666,-1.03321 0.12886,-0.67952 -0.17736,-0.874998 -1.37073,-0.874998 -0.84516,0 -1.53666,-0.225 -1.53666,-0.5 0,-0.275 0.6915,-0.5 1.53666,-0.5 1.19337,0 1.49959,-0.19548 1.37073,-0.875 -0.0972,-0.5124 -0.70318,-0.93759 -1.46235,-1.02604 -1.08151,-0.126 -1.25739,-0.35515 -1.06102,-1.382388 0.12946,-0.67724 0.45201,-1.36523 0.71678,-1.52887 0.46633,-0.28821 13.35554,5.308978 13.38456,5.812298 0.014,0.243218 -12.92009,5.022358 -13.55204,5.007468 -0.17418,-0.004 -0.45236,-0.51372 -0.61818,-1.13247 z"
     id="path970"
     inkscape:connector-curvature="0" />
  <path
     style="opacity:1;fill:#000000;fill-opacity:0;stroke:none;stroke-width:0.25;stroke-miterlimit:4;stroke-dasharray:none;stroke-dashoffset:1.10966921;stroke-opacity:1"
     d="m 166.32764,122.66882 c 0,-1.13147 2.07158,-15.02069 2.27063,-15.22374 0.099,-0.10102 1.67938,0.51795 3.51189,1.37549 l 3.33185,1.55916 -0.85373,1.30296 c -1.22074,1.86308 -0.21222,2.79462 1.39295,1.28664 l 1.16683,-1.09619 1.00799,1.12781 c 1.4485,1.62068 3.17159,4.20313 3.17159,4.75335 0,0.40213 -13.58595,5.62445 -14.63208,5.62445 -0.20235,0 -0.36792,-0.31947 -0.36792,-0.70993 z"
     id="path972"
     inkscape:connector-curvature="0" />
  <rect
     style="opacity:1;fill:#000000;fill-opacity:0;stroke:none;stroke-width:0.5;stroke-miterlimit:4;stroke-dasharray:none;stroke-dashoffset:1.10966921;stroke-opacity:1"
     id="rect974"
     width="96.5"
     height="66"
     x="16"
     y="56.578751" />
  <rect
     style="opacity:1;fill:#000000;fill-opacity:0;stroke:none;stroke-width:0.5;stroke-miterlimit:4;stroke-dasharray:none;stroke-dashoffset:1.10966921;stroke-opacity:1"
     id="rect976"
     width="113.5"
     height="79"
     x="16"
     y="56.578751" />
  <rect
     style="opacity:1;fill:#000000;fill-opacity:0;stroke:none;stroke-width:0.5;stroke-miterlimit:4;stroke-dasharray:none;stroke-dashoffset:1.10966921;stroke-opacity:1"
     id="rect978"
     width="112"
     height="81"
     x="11"
     y="67.078751" />
  <g
     id="g1012"
     clip-path="url(#eoawToBusFwi-1)"
     transform="translate(-257.49227,-287.85612)">
    <g
       id="g1010">
      <path
         style="fill:none;fill-opacity:1;stroke:none"
         d="M 675.80664,367.45117 V 511 H 841.93555 V 367.45117 Z"
         transform="translate(-362.58064,-20.82258)"
         id="path980"
         inkscape:connector-curvature="0" />
      <path
         id="path982"
         d="m 370.80189,441.18173 c -2.51849,-6.94492 -8.66024,-11.93597 -15.97346,-12.98072 L 352,448 Z"
         inkscape:connector-curvature="0"
         style="fill:#000000;fill-opacity:0.09803922;stroke:none;paint-order:stroke fill markers" />
      <path
         id="path984"
         stroke-miterlimit="10"
         d="m 370.80189,441.18173 c -2.51849,-6.94492 -8.66024,-11.93597 -15.97346,-12.98072 L 352,448 Z"
         inkscape:connector-curvature="0"
         style="fill:none;stroke:#000000;stroke-width:1.5;stroke-linecap:round;stroke-linejoin:round;stroke-miterlimit:10;stroke-opacity:1;paint-order:fill stroke markers" />
      <path
         id="path986"
         stroke-miterlimit="10"
         d="m 362.56354,435.001 4.09929,-5.04439"
         inkscape:connector-curvature="0"
         style="fill:none;stroke:#000000;stroke-width:1.5;stroke-linecap:round;stroke-linejoin:round;stroke-miterlimit:10;stroke-opacity:1;paint-order:fill stroke markers" />
      <path
         id="path988"
         d="m 424.80808,406.69011 c -2.17794,4.76794 -2.39698,10.20035 -0.60997,15.12816 L 443,415 Z"
         inkscape:connector-curvature="0"
         style="fill:#000000;fill-opacity:0.09803922;stroke:none;paint-order:stroke fill markers" />
      <path
         id="path990"
         stroke-miterlimit="10"
         d="m 424.80808,406.69011 c -2.17794,4.76794 -2.39698,10.20035 -0.60997,15.12816 L 443,415 Z"
         inkscape:connector-curvature="0"
         style="fill:none;stroke:#000000;stroke-width:1.5;stroke-linecap:round;stroke-linejoin:round;stroke-miterlimit:10;stroke-opacity:1;paint-order:fill stroke markers" />
      <path
         id="path992"
         stroke-miterlimit="10"
         d="m 426.36635,413.02914 -6.45485,-0.76481"
         inkscape:connector-curvature="0"
         style="fill:none;stroke:#000000;stroke-width:1.5;stroke-linecap:round;stroke-linejoin:round;stroke-miterlimit:10;stroke-opacity:1;paint-order:fill stroke markers" />
      <path
         id="path994"
         stroke-miterlimit="10"
         d="m 426.26167,415.62528 -6.49546,0.24264"
         inkscape:connector-curvature="0"
         style="fill:none;stroke:#000000;stroke-width:1.5;stroke-linecap:round;stroke-linejoin:round;stroke-miterlimit:10;stroke-opacity:1;paint-order:fill stroke markers" />
      <path
         id="path996"
         stroke-miterlimit="10"
         d="M 443,415 362,378"
         inkscape:connector-curvature="0"
         style="fill:none;stroke:#000000;stroke-width:2.5;stroke-linecap:round;stroke-linejoin:round;stroke-miterlimit:10;stroke-opacity:1;paint-order:fill stroke markers" />
      <path
         id="path998"
         stroke-miterlimit="10"
         d="m 362,378 -10,70"
         inkscape:connector-curvature="0"
         style="fill:none;stroke:#000000;stroke-width:2.5;stroke-linecap:round;stroke-linejoin:round;stroke-miterlimit:10;stroke-opacity:1;paint-order:fill stroke markers" />
      <path
         id="path1000"
         stroke-miterlimit="10"
         d="m 352,448 91,-33"
         inkscape:connector-curvature="0"
         style="fill:none;stroke:#000000;stroke-width:1.5;stroke-linecap:round;stroke-linejoin:round;stroke-miterlimit:10;stroke-opacity:1;paint-order:fill stroke markers" />
      <path
         id="path1002"
         stroke-miterlimit="10"
         d="m 392.03505,428.16318 3.40914,9.40095"
         inkscape:connector-curvature="0"
         style="fill:none;stroke:#000000;stroke-width:1.5;stroke-linecap:round;stroke-linejoin:round;stroke-miterlimit:10;stroke-opacity:1;paint-order:fill stroke markers" />
      <path
         id="path1004"
         stroke-miterlimit="10"
         d="m 395.79543,426.79953 3.40914,9.40094"
         inkscape:connector-curvature="0"
         style="fill:none;stroke:#000000;stroke-width:1.5;stroke-linecap:round;stroke-linejoin:round;stroke-miterlimit:10;stroke-opacity:1;paint-order:fill stroke markers" />
      <path
         id="path1006"
         stroke-miterlimit="10"
         d="m 399.55581,425.43587 3.40914,9.40095"
         inkscape:connector-curvature="0"
         style="fill:none;stroke:#000000;stroke-width:1.5;stroke-linecap:round;stroke-linejoin:round;stroke-miterlimit:10;stroke-opacity:1;paint-order:fill stroke markers" />
      <path
         id="path1008"
         stroke-miterlimit="10"
         d="m 352,448 91,-33"
         inkscape:connector-curvature="0"
         style="fill:none;stroke:#000000;stroke-width:2.5;stroke-linecap:round;stroke-linejoin:round;stroke-miterlimit:10;stroke-opacity:0.69803922;paint-order:fill stroke markers" />
    </g>
  </g>
  <text
     xml:space="preserve"
     style="font-style:normal;font-weight:normal;font-size:40px;line-height:1.25;font-family:sans-serif;letter-spacing:0px;word-spacing:0px;fill:#000000;fill-opacity:1;stroke:none"
     x="2.5"
     y="94.578751"
     id="text1016"><tspan
       sodipodi:role="line"
       id="tspan1014"
       x="2.5"
       y="94.578751"
       style="font-style:italic;font-variant:normal;font-weight:normal;font-stretch:normal;font-size:16px;font-family:sans-serif;-inkscape-font-specification:'sans-serif Italic'">L</tspan></text>
  <text
     xml:space="preserve"
     style="font-style:normal;font-weight:normal;font-size:40px;line-height:1.25;font-family:sans-serif;letter-spacing:0px;word-spacing:0px;fill:#000000;fill-opacity:1;stroke:none"
     x="110.38672"
     y="61.364578"
     id="text1016-3"><tspan
       sodipodi:role="line"
       id="tspan1014-3"
       x="110.38672"
       y="61.364578"
       style="font-style:italic;font-variant:normal;font-weight:normal;font-stretch:normal;font-size:16px;font-family:sans-serif;-inkscape-font-specification:'sans-serif Italic'">M</tspan></text>
  <text
     xml:space="preserve"
     style="font-style:normal;font-weight:normal;font-size:40px;line-height:1.25;font-family:sans-serif;letter-spacing:0px;word-spacing:0px;fill:#000000;fill-opacity:1;stroke:none"
     x="19.886719"
     y="14.364592"
     id="text1016-4"><tspan
       sodipodi:role="line"
       id="tspan1014-5"
       x="19.886719"
       y="14.364592"
       style="font-style:italic;font-variant:normal;font-weight:normal;font-stretch:normal;font-size:16px;font-family:sans-serif;-inkscape-font-specification:'sans-serif Italic'">N</tspan></text>
  <text
     xml:space="preserve"
     style="font-style:normal;font-weight:normal;font-size:40px;line-height:1.25;font-family:sans-serif;letter-spacing:0px;word-spacing:0px;fill:#000000;fill-opacity:1;stroke:none"
     x="80.117188"
     y="167.89516"
     id="text1016-7"><tspan
       sodipodi:role="line"
       id="tspan1014-4"
       x="80.117188"
       y="167.89516"
       style="font-style:italic;font-variant:normal;font-weight:normal;font-stretch:normal;font-size:16px;font-family:sans-serif;-inkscape-font-specification:'sans-serif Italic'">P</tspan></text>
  <text
     xml:space="preserve"
     style="font-style:normal;font-weight:normal;font-size:40px;line-height:1.25;font-family:sans-serif;letter-spacing:0px;word-spacing:0px;fill:#000000;fill-opacity:1;stroke:none"
     x="189.15625"
     y="130.89516"
     id="text1016-7-9"><tspan
       sodipodi:role="line"
       id="tspan1014-4-0"
       x="189.15625"
       y="130.89516"
       style="font-style:italic;font-variant:normal;font-weight:normal;font-stretch:normal;font-size:16px;font-family:sans-serif;-inkscape-font-specification:'sans-serif Italic'">Q</tspan></text>
  <text
     xml:space="preserve"
     style="font-style:normal;font-weight:normal;font-size:40px;line-height:1.25;font-family:sans-serif;letter-spacing:0px;word-spacing:0px;fill:#000000;fill-opacity:1;stroke:none"
     x="97.65625"
     y="85.395164"
     id="text1016-7-4"><tspan
       sodipodi:role="line"
       id="tspan1014-4-7"
       x="97.65625"
       y="85.395164"
       style="font-style:italic;font-variant:normal;font-weight:normal;font-stretch:normal;font-size:16px;font-family:sans-serif;-inkscape-font-specification:'sans-serif Italic'">R</tspan></text>
</svg>
