<?xml version="1.0" encoding="UTF-8" standalone="no"?>
<!-- Created with Inkscape (http://www.inkscape.org/) -->

<svg
   xmlns:osb="http://www.openswatchbook.org/uri/2009/osb"
   xmlns:dc="http://purl.org/dc/elements/1.1/"
   xmlns:cc="http://creativecommons.org/ns#"
   xmlns:rdf="http://www.w3.org/1999/02/22-rdf-syntax-ns#"
   xmlns:svg="http://www.w3.org/2000/svg"
   xmlns="http://www.w3.org/2000/svg"
   xmlns:sodipodi="http://sodipodi.sourceforge.net/DTD/sodipodi-0.dtd"
   xmlns:inkscape="http://www.inkscape.org/namespaces/inkscape"
   width="40.5mm"
   height="40mm"
   viewBox="0 0 40.5 40"
   version="1.1"
   id="svg8"
   inkscape:version="0.92.3 (2405546, 2018-03-11)"
   sodipodi:docname="asymptote.svg">
  <sodipodi:namedview
     id="base"
     pagecolor="#ffffff"
     bordercolor="#666666"
     borderopacity="1.0"
     inkscape:pageopacity="0.0"
     inkscape:pageshadow="2"
     inkscape:zoom="2.12"
     inkscape:cx="-2.5262264"
     inkscape:cy="119.47137"
     inkscape:document-units="mm"
     inkscape:current-layer="layer1"
     showgrid="true"
     inkscape:window-width="1329"
     inkscape:window-height="858"
     inkscape:window-x="1786"
     inkscape:window-y="1"
     inkscape:window-maximized="0">
    <inkscape:grid
       type="xygrid"
       id="grid1216"
       units="mm"
       spacingx="0.99999997"
       spacingy="0.99999997"
       empspacing="2"
       color="#000000"
       opacity="0.90588235"
       empcolor="#000000"
       empopacity="0.25098039"
       dotted="false"
       visible="true"
       originx="1.2" />
  </sodipodi:namedview>
  <defs
     id="defs2">
    <linearGradient
       id="linearGradient4939"
       osb:paint="solid">
      <stop
         style="stop-color:#000000;stop-opacity:1;"
         offset="0"
         id="stop4937" />
    </linearGradient>
  </defs>
  <metadata
     id="metadata5">
    <rdf:RDF>
      <cc:Work
         rdf:about="">
        <dc:format>image/svg+xml</dc:format>
        <dc:type
           rdf:resource="http://purl.org/dc/dcmitype/StillImage" />
        <dc:title></dc:title>
      </cc:Work>
    </rdf:RDF>
  </metadata>
  <g
     id="layer1"
     inkscape:groupmode="layer"
     inkscape:label="Layer 1"
     transform="translate(0,-257)">
    <rect
       y="257.13489"
       x="0.25"
       height="39.863892"
       width="40"
       id="rect815"
       style="opacity:1;fill:none;fill-opacity:1;stroke:#000000;stroke-width:0.5;stroke-miterlimit:4;stroke-dasharray:none;stroke-opacity:1" />
    <path
       id="path847"
       title="x/(x-2)"
       d="M 0.24875091,277.06865 H 40.248745 m -20,19.93195 V 257.13671 M 0.24875091,275.40766 c 0.067,0.66773 0.13400267,-0.65822 0.20100467,0.003 0.067,0.66103 0.134003,-0.65146 0.201005,0.003 0.067,0.65431 0.134003,-0.64471 0.201005,0.003 0.067,0.6476 0.13400267,-0.63794 0.20100472,0.003 0.067,0.6409 0.134003,-0.63118 0.201005,0.003 0.067,0.63418 0.134003,-0.62442 0.2010047,0.003 0.067,0.62748 0.134004,-0.61764 0.201005,0.003 0.067,0.62076 0.134004,-0.61089 0.201005,0.003 0.067,0.61405 0.1340037,-0.60411 0.2010047,0.003 0.067,0.60734 0.134004,-0.59734 0.201005,0.003 0.067,0.60063 0.134004,-0.59057 0.201005,0.003 0.067,0.59391 0.1340037,-0.5838 0.2010047,0.003 0.067,0.58721 0.134004,-0.57702 0.201005,0.003 0.067,0.58049 0.134004,-0.57025 0.2010047,0.004 0.067,0.57379 0.134004,-0.56347 0.201005,0.004 0.067,0.56707 0.134004,-0.55669 0.201005,0.004 0.067,0.56036 0.1340037,-0.5499 0.2010047,0.004 0.067,0.55365 0.134004,-0.54312 0.201005,0.004 0.067,0.54694 0.134004,-0.53634 0.201005,0.004 0.067,0.54023 0.1340037,-0.52954 0.2010057,0.004 0.067,0.53352 0.134003,-0.52275 0.201005,0.004 0.067,0.52681 0.134003,-0.51595 0.2010047,0.004 0.067,0.5201 0.134003,-0.50916 0.201005,0.004 0.067,0.51338 0.134003,-0.50237 0.201005,0.004 0.067,0.50667 0.1340027,-0.49556 0.2010047,0.004 0.067,0.49997 0.134003,-0.48875 0.201005,0.005 0.067,0.49326 0.134003,-0.48194 0.2010047,0.005 0.067,0.48654 0.134003,-0.47514 0.201005,0.005 0.067,0.47984 0.134003,-0.46831 0.201005,0.005 0.067,0.47312 0.1340027,-0.46151 0.2010047,0.005 0.067,0.46641 0.134003,-0.45468 0.201005,0.005 0.067,0.4597 0.134003,-0.44785 0.201005,0.005 0.067,0.45298 0.1340027,-0.44103 0.2010047,0.005 0.067,0.44628 0.134003,-0.43419 0.201005,0.005 0.067,0.43957 0.134003,-0.42735 0.2010047,0.006 0.067,0.43285 0.134003,-0.42051 0.201005,0.006 0.067,0.42615 0.134003,-0.41366 0.201005,0.006 0.067,0.41944 0.1340027,-0.4068 0.2010047,0.006 0.067,0.41272 0.134003,-0.39995 0.201005,0.006 0.067,0.40601 0.134003,-0.39309 0.201005,0.006 0.067,0.3993 0.1340027,-0.38622 0.2010047,0.006 0.067,0.39259 0.134003,-0.37934 0.201005,0.007 0.067,0.38588 0.134003,-0.37246 0.2010047,0.007 0.067,0.37917 0.134003,-0.36557 0.201005,0.007 0.067,0.37246 0.134003,-0.35867 0.201005,0.007 0.067,0.36575 0.1340027,-0.35177 0.2010047,0.007 0.067,0.35903 0.134004,-0.34486 0.201005,0.007 0.067,0.35232 0.134004,-0.33794 0.2010047,0.008 0.067,0.34562 0.1340038,-0.33101 0.2010048,0.008 0.067,0.3389 0.134004,-0.32408 0.201005,0.008 0.067,0.33219 0.134004,-0.31712 0.201005,0.008 0.067,0.32548 0.134004,-0.31017 0.201005,0.009 0.067,0.31877 0.134004,-0.30319 0.201005,0.009 0.067,0.31205 0.134004,-0.29622 0.201005,0.009 0.067,0.30535 0.134004,-0.28922 0.201005,0.009 0.067,0.29863 0.134004,-0.28221 0.201005,0.01 0.067,0.29193 0.134004,-0.27519 0.201005,0.01 0.067,0.28521 0.134004,-0.26815 0.201005,0.0104 0.067,0.2785 0.134004,-0.2611 0.201005,0.0107 0.067,0.27179 0.134004,-0.25403 0.201006,0.0111 0.067,0.26508 0.134003,-0.24693 0.201005,0.0114 0.067,0.25837 0.134003,-0.23983 0.201005,0.0118 0.067,0.25166 0.134003,-0.2327 0.201005,0.0122 0.067,0.24495 0.134003,-0.22554 0.201005,0.0127 0.067,0.23823 0.134003,-0.21837 0.201005,0.0132 0.067,0.23152 0.134003,-0.21117 0.201005,0.0137 0.067,0.22482 0.134003,-0.20393 0.201005,0.0142 0.067,0.2181 0.134003,-0.19667 0.201005,0.0147 0.067,0.2114 0.134003,-0.18937 0.201005,0.0153 0.067,0.20469 0.134003,-0.18204 0.201005,0.0159 0.067,0.19798 0.134003,-0.17467 0.201005,0.0166 0.067,0.19127 0.134003,-0.16726 0.201005,0.0173 0.067,0.18455 0.134003,-0.1598 0.201005,0.018 0.067,0.17784 0.134003,-0.1523 0.201005,0.0188 0.067,0.17113 0.134003,-0.14474 0.201005,0.0197 0.067,0.16442 0.134003,-0.13712 0.201005,0.0206 0.067,0.15771 0.134003,-0.12944 0.201005,0.0215 0.067,0.151 0.134003,-0.12169 0.201005,0.0226 0.067,0.14428 0.134003,-0.11386 0.201005,0.0237 0.067,0.13758 0.134003,-0.10594 0.201005,0.0249 0.067,0.13087 0.134003,-0.0979 0.201005,0.0262 0.067,0.12415 0.134003,-0.0898 0.201005,0.0276 0.067,0.11744 0.134003,-0.0816 0.201005,0.0291 0.067,0.11073 0.134003,-0.0732 0.201005,0.0308 0.067,0.10402 0.134003,-0.0647 0.201005,0.0326 0.067,0.0973 0.134003,-0.0561 0.201005,0.0345 0.067,0.0906 0.134004,-0.0472 0.201005,0.0366 0.067,0.0839 0.134004,-0.0382 0.201005,0.039 0.067,0.0772 0.134004,-0.0289 0.201005,0.0416 0.067,0.0705 0.134004,-0.0194 0.201005,0.0444 0.067,0.0638 0.134004,-0.01 0.201005,0.0475 0.067,0.057 0.134004,6.4e-4 0.201005,0.051 0.067,0.0503 0.134004,0.0112 0.201005,0.0548 0.067,0.0436 0.134004,0.0223 0.201005,0.0592 0.067,0.0369 0.134004,0.0338 0.201005,0.064 0.067,0.0302 0.134004,0.046 0.201005,0.0695 0.067,0.0235 0.134004,0.0589 0.201005,0.0757 0.067,0.0168 0.134004,0.0727 0.201005,0.0827 0.067,0.0101 0.134004,0.0875 0.201005,0.0909 0.067,0.003 0.134004,0.10358 0.201006,0.10022 0.067,-0.003 0.134003,0.12119 0.201005,0.11112 0.067,-0.0101 0.134003,0.14067 0.201005,0.12389 0.067,-0.0168 0.134003,0.16249 0.201005,0.139 0.067,-0.0235 0.134003,0.18725 0.201005,0.15705 0.067,-0.0302 0.134003,0.21577 0.201005,0.17886 0.067,-0.0369 0.134003,0.24918 0.201005,0.20556 0.067,-0.0436 0.134003,0.28905 0.201005,0.23871 0.067,-0.0503 0.134003,0.33764 0.201005,0.2806 0.067,-0.0571 0.134003,0.3983 0.201005,0.33455 0.067,-0.0637 0.134003,0.4762 0.201005,0.40573 0.067,-0.0705 0.134003,0.57952 0.201005,0.50234 0.067,-0.0772 0.134003,0.72199 0.201005,0.63811 0.067,-0.0839 0.134003,0.9281 0.201005,0.83751 0.067,-0.0906 0.134003,1.24501 0.201005,1.1477 0.067,-0.0973 0.134003,1.7734 0.201005,1.66938 0.067,-0.10402 0.134003,2.76211 0.201005,2.65138 0.067,-0.11073 0.134003,4.97829 0.201005,4.86085 0.067,-0.11744 0.134003,11.92909 0.201005,11.80494 0.067,-0.12416 0.134003,70.96045 0.201005,70.82959 0.067,-0.13086 0.134003,-165.13148 0.201005,-165.26905 0.067,-0.13758 0.134003,41.46155 0.201005,41.31726 0.067,-0.14428 0.134003,9.68575 0.201005,9.53475 0.067,-0.15099 0.134003,4.39538 0.201005,4.23767 0.067,-0.15771 0.134003,2.55962 0.201005,2.3952 0.067,-0.16441 0.134003,1.71091 0.201005,1.53978 0.067,-0.17113 0.134003,1.25101 0.201005,1.07317 0.067,-0.17784 0.134004,0.97532 0.201005,0.79077 0.067,-0.18456 0.134004,0.79812 0.201005,0.60686 0.067,-0.19126 0.134004,0.6784 0.201005,0.48043 0.067,-0.19797 0.134004,0.59447 0.201005,0.38979 0.067,-0.20469 0.134004,0.53397 0.201005,0.32258 0.067,-0.2114 0.134004,0.48948 0.201005,0.27138 0.067,-0.21811 0.134004,0.45628 0.201005,0.23147 0.067,-0.22482 0.134004,0.43128 0.201005,0.19976 0.067,-0.23153 0.134004,0.41239 0.201005,0.17415 0.067,-0.23824 0.134004,0.39811 0.201005,0.15317 0.067,-0.24495 0.134004,0.38742 0.201005,0.13576 0.067,-0.25166 0.134004,0.37953 0.201005,0.12116 0.067,-0.25837 0.134004,0.37389 0.201005,0.10881 0.067,-0.26509 0.134004,0.37003 0.201006,0.0982 0.067,-0.27179 0.134003,0.36765 0.201005,0.0891 0.067,-0.27851 0.134003,0.36646 0.201005,0.0813 0.067,-0.28522 0.134003,0.36629 0.201005,0.0744 0.067,-0.29193 0.134003,0.36695 0.201005,0.0683 0.067,-0.29864 0.134003,0.36833 0.201005,0.063 0.067,-0.30535 0.134003,0.37031 0.201005,0.0583 0.067,-0.31206 0.134003,0.37279 0.201005,0.054 0.067,-0.31877 0.134003,0.37572 0.201005,0.0502 0.067,-0.32547 0.134003,0.37905 0.201005,0.0469 0.067,-0.33219 0.134003,0.38269 0.201005,0.0438 0.067,-0.3389 0.134003,0.38663 0.201005,0.041 0.067,-0.34561 0.134003,0.39083 0.201005,0.0385 0.067,-0.35232 0.134003,0.39525 0.201005,0.0362 0.067,-0.35903 0.134003,0.39987 0.201005,0.0341 0.067,-0.36574 0.134003,0.40466 0.201005,0.0322 0.067,-0.37245 0.134003,0.40961 0.201005,0.0305 0.067,-0.37917 0.134003,0.4147 0.201005,0.0288 0.067,-0.38588 0.134003,0.41992 0.201005,0.0273 0.067,-0.39259 0.134003,0.42525 0.201005,0.026 0.067,-0.3993 0.134003,0.43068 0.201005,0.0247 0.067,-0.40601 0.134003,0.4362 0.201005,0.0235 0.067,-0.41272 0.134003,0.44182 0.201005,0.0224 0.067,-0.41943 0.134003,0.4475 0.201005,0.0214 0.067,-0.42614 0.134003,0.45325 0.201005,0.0204 0.067,-0.43286 0.134003,0.45907 0.201005,0.0195 0.067,-0.43956 0.134003,0.46494 0.201005,0.0187 0.067,-0.44628 0.134004,0.47087 0.201005,0.0179 0.067,-0.45299 0.134004,0.47684 0.201005,0.0171 0.067,-0.45969 0.134004,0.48287 0.201005,0.0165 0.067,-0.46641 0.134004,0.48892 0.201005,0.0158 0.067,-0.47312 0.134004,0.49503 0.201005,0.0152 0.067,-0.47983 0.134004,0.50116 0.201005,0.0146 0.067,-0.48654 0.134004,0.50732 0.201005,0.0141 0.067,-0.49326 0.134004,0.51351 0.201005,0.0136 0.067,-0.49996 0.134004,0.51974 0.201005,0.0131 0.067,-0.50668 0.134004,0.52599 0.201005,0.0126 0.067,-0.51339 0.134004,0.53226 0.201005,0.0122 0.067,-0.5201 0.134004,0.53856 0.201005,0.0118 0.067,-0.52681 0.134004,0.54487 0.201005,0.0114 0.067,-0.53352 0.134004,0.55121 0.201006,0.011 0.067,-0.54023 0.134003,0.55756 0.201005,0.0106 0.067,-0.54694 0.134003,0.56394 0.201005,0.0103 0.067,-0.55365 0.134003,0.57032 0.201005,0.01 0.067,-0.56036 0.134003,0.57673 0.201005,0.01 0.067,-0.56708 0.134003,0.58314 0.201005,0.009 0.067,-0.57379 0.134003,0.58957 0.201005,0.009 0.067,-0.58049 0.134003,0.59602 0.201005,0.009 0.067,-0.5872 0.134003,0.60247 0.201005,0.009 0.067,-0.59392 0.134003,0.60893 0.201005,0.008 0.067,-0.60062 0.134003,0.61542 0.201005,0.008 0.067,-0.60734 0.134003,0.62189 0.201005,0.008 0.067,-0.61405 0.134003,0.62839 0.201005,0.008 0.067,-0.62076 0.134003,0.6349 0.201005,0.007 0.067,-0.62747 0.134003,0.6414 0.201005,0.007 0.067,-0.63418 0.134003,0.64793 0.201005,0.007 0.067,-0.64089 0.134003,0.65446 0.201005,0.007 0.067,-0.6476 0.134003,0.66099 0.201005,0.007 0.067,-0.65432 0.134003,0.66753 0.201005,0.006 0.067,-0.66103 0.134003,0.67408 0.201005,0.006"
       style="opacity:1;fill:none;fill-opacity:1;stroke:#000000;stroke-width:0.5;stroke-miterlimit:4;stroke-dasharray:none;stroke-opacity:1"
       inkscape:connector-curvature="0" />
    <path
       style="fill:none;stroke:#ffffff;stroke-width:0.67569995;stroke-linecap:butt;stroke-linejoin:miter;stroke-miterlimit:4;stroke-dasharray:none;stroke-dashoffset:0.29359999;stroke-opacity:1"
       d="m 24.274587,264.025 v 12.8"
       id="path4935"
       inkscape:connector-curvature="0" />
    <path
       style="fill:none;stroke:#ffffff;stroke-width:0.59479403;stroke-linecap:butt;stroke-linejoin:miter;stroke-miterlimit:4;stroke-dasharray:none;stroke-dashoffset:0.29365611;stroke-opacity:1"
       d="m 24.30307,277.267 v 12.8"
       id="path4935-7"
       inkscape:connector-curvature="0" />
    <path
       style="fill:none;stroke:#ffffff;stroke-width:0.676;stroke-linecap:butt;stroke-linejoin:miter;stroke-miterlimit:4;stroke-dasharray:none;stroke-dashoffset:0.29359999;stroke-opacity:1"
       d="m 24.3,257.458 v 12.8"
       id="path4935-1"
       inkscape:connector-curvature="0" />
    <path
       style="fill:none;stroke:#ffffff;stroke-width:0.676;stroke-linecap:butt;stroke-linejoin:miter;stroke-miterlimit:4;stroke-dasharray:none;stroke-dashoffset:0.29359999;stroke-opacity:1"
       d="m 24.429,283.9 v 12.8"
       id="path4935-1-4"
       inkscape:connector-curvature="0" />
  </g>
</svg>
