<?xml version="1.0" encoding="UTF-8" standalone="no"?>
<svg
   xmlns:dc="http://purl.org/dc/elements/1.1/"
   xmlns:cc="http://creativecommons.org/ns#"
   xmlns:rdf="http://www.w3.org/1999/02/22-rdf-syntax-ns#"
   xmlns:svg="http://www.w3.org/2000/svg"
   xmlns="http://www.w3.org/2000/svg"
   xmlns:sodipodi="http://sodipodi.sourceforge.net/DTD/sodipodi-0.dtd"
   xmlns:inkscape="http://www.inkscape.org/namespaces/inkscape"
   version="1.1"
   width="249.99998"
   height="187"
   id="svg35"
   sodipodi:docname="asymptote.svg"
   inkscape:version="0.92.3 (2405546, 2018-03-11)">
  <metadata
     id="metadata39">
    <rdf:RDF>
      <cc:Work
         rdf:about="">
        <dc:format>image/svg+xml</dc:format>
        <dc:type
           rdf:resource="http://purl.org/dc/dcmitype/StillImage" />
        <dc:title />
      </cc:Work>
    </rdf:RDF>
  </metadata>
  <sodipodi:namedview
     pagecolor="#ffffff"
     bordercolor="#666666"
     borderopacity="1"
     objecttolerance="10"
     gridtolerance="10"
     guidetolerance="10"
     inkscape:pageopacity="0"
     inkscape:pageshadow="2"
     inkscape:window-width="1600"
     inkscape:window-height="837"
     id="namedview37"
     showgrid="false"
     units="px"
     borderlayer="true"
     inkscape:zoom="1"
     inkscape:cx="117.63789"
     inkscape:cy="73.663498"
     inkscape:window-x="-8"
     inkscape:window-y="164"
     inkscape:window-maximized="1"
     inkscape:current-layer="svg35" />
  <defs
     id="defs5">
    <marker
       inkscape:stockid="Arrow2Lend"
       orient="auto"
       refY="0.0"
       refX="0.0"
       id="Arrow2Lend"
       style="overflow:visible;"
       inkscape:isstock="true">
      <path
         id="path1139"
         style="fill-rule:evenodd;stroke-width:0.625;stroke-linejoin:round;stroke:none;stroke-opacity:1;fill:#000000;fill-opacity:1"
         d="M 8.7185878,4.0337352 L -2.2072895,0.016013256 L 8.7185884,-4.0017078 C 6.9730900,-1.6296469 6.9831476,1.6157441 8.7185878,4.0337352 z "
         transform="scale(1.1) rotate(180) translate(1,0)" />
    </marker>
    <marker
       inkscape:stockid="Arrow1Lend"
       orient="auto"
       refY="0.0"
       refX="0.0"
       id="Arrow1Lend"
       style="overflow:visible;"
       inkscape:isstock="true">
      <path
         id="path1121"
         d="M 0.0,0.0 L 5.0,-5.0 L -12.5,0.0 L 5.0,5.0 L 0.0,0.0 z "
         style="fill-rule:evenodd;stroke:#000000;stroke-width:1pt;stroke-opacity:1;fill:#000000;fill-opacity:1"
         transform="scale(0.8) rotate(180) translate(12.5,0)" />
    </marker>
    <marker
       inkscape:stockid="Arrow1Send"
       orient="auto"
       refY="0.0"
       refX="0.0"
       id="Arrow1Send"
       style="overflow:visible;"
       inkscape:isstock="true">
      <path
         id="path1133"
         d="M 0.0,0.0 L 5.0,-5.0 L -12.5,0.0 L 5.0,5.0 L 0.0,0.0 z "
         style="fill-rule:evenodd;stroke:#000000;stroke-width:1pt;stroke-opacity:1;fill:#000000;fill-opacity:1"
         transform="scale(0.2) rotate(180) translate(6,0)" />
    </marker>
    <clipPath
       id="aNnHZXrwCccf">
      <path
         d="M 0,0 H 1220 V 761 H 0 Z"
         id="path2"
         inkscape:connector-curvature="0"
         style="fill:none;stroke:none" />
    </clipPath>
    <marker
       inkscape:stockid="Arrow2Lend"
       orient="auto"
       refY="0"
       refX="0"
       id="Arrow2Lend-7"
       style="overflow:visible"
       inkscape:isstock="true">
      <path
         inkscape:connector-curvature="0"
         id="path1139-3"
         style="fill:#000000;fill-opacity:1;fill-rule:evenodd;stroke:none;stroke-width:0.625;stroke-linejoin:round;stroke-opacity:1"
         d="M 8.7185878,4.0337352 -2.2072895,0.01601326 8.7185884,-4.0017078 c -1.7454984,2.3720609 -1.7354408,5.6174519 -6e-7,8.035443 z"
         transform="matrix(-1.1,0,0,-1.1,-1.1,0)" />
    </marker>
  </defs>
  <g
     transform="matrix(0.30979734,0,0,0.30979734,-48,-6.75578)"
     clip-path="url(#aNnHZXrwCccf)"
     id="g33">
    <g
       id="g31">
      <rect
         x="0"
         y="0"
         width="1220"
         height="761"
         id="rect7"
         style="fill:#ffffff;fill-opacity:1;stroke:none" />
      <path
         d="m 5.5,0.5 v 761 m 0,-761 v 761 m 50,-761 v 761 m 50,-761 v 761 m 50,-761 v 761 m 50,-761 v 761 m 50,-761 v 761 m 50,-761 v 761 m 50,-761 v 761 m 100,-761 v 761 m 50,-761 v 761 m 50,-761 v 761 m 50,-761 v 761 m 50,-761 v 761 m 50,-761 v 761 m 50,-761 v 761 m 50,-761 v 761 m 50,-761 v 761 m 50,-761 v 761 m 50,-761 v 761 m 50,-761 v 761 m 50,-761 v 761 m 50,-761 v 761 m 50,-761 v 761 m 50,-761 v 761"
         stroke-miterlimit="10"
         id="path9"
         inkscape:connector-curvature="0"
         style="fill:none;stroke:#c0c0c0;stroke-linecap:round;stroke-linejoin:round;stroke-miterlimit:10;stroke-opacity:1;paint-order:fill stroke markers" />
      <path
         d=""
         stroke-miterlimit="10"
         id="path11"
         inkscape:connector-curvature="0"
         style="fill:none;stroke:#c0c0c0;stroke-linecap:round;stroke-linejoin:round;stroke-miterlimit:10;stroke-opacity:0.23529412;paint-order:fill stroke markers" />
      <path
         d="m 0.5,26.5 h 1220 m -1220,0 h 1220 m -1220,50 h 1220 m -1220,50 h 1220 m -1220,50 h 1220 m -1220,50 h 1220 m -1220,50 h 1220 m -1220,50 h 1220 m -1220,100 h 1220 m -1220,50 h 1220 m -1220,50 h 1220 m -1220,50 h 1220 m -1220,50 h 1220 m -1220,50 h 1220 m -1220,50 h 1220"
         stroke-miterlimit="10"
         id="path13"
         inkscape:connector-curvature="0"
         style="fill:none;stroke:#c0c0c0;stroke-linecap:round;stroke-linejoin:round;stroke-miterlimit:10;stroke-opacity:1;paint-order:fill stroke markers" />
      <path
         d=""
         stroke-miterlimit="10"
         id="path15"
         inkscape:connector-curvature="0"
         style="fill:none;stroke:#c0c0c0;stroke-linecap:round;stroke-linejoin:round;stroke-miterlimit:10;stroke-opacity:0.23529412;paint-order:fill stroke markers" />
      <path
         d="m 405.5,2.5 v 759"
         stroke-miterlimit="10"
         id="path17"
         inkscape:connector-curvature="0"
         style="fill:none;stroke:#000000;stroke-miterlimit:10;stroke-opacity:1;paint-order:fill stroke markers" />
      <path
         d="m 405.5,1.5 -4,4"
         stroke-miterlimit="10"
         id="path19"
         inkscape:connector-curvature="0"
         style="fill:none;stroke:#000000;stroke-miterlimit:10;stroke-opacity:1;paint-order:fill stroke markers" />
      <path
         d="m 405.5,1.5 4,4"
         stroke-miterlimit="10"
         id="path21"
         inkscape:connector-curvature="0"
         style="fill:none;stroke:#000000;stroke-miterlimit:10;stroke-opacity:1;paint-order:fill stroke markers" />
      <path
         d="m 0.5,376.5 h 1218"
         stroke-miterlimit="10"
         id="path23"
         inkscape:connector-curvature="0"
         style="fill:none;stroke:#000000;stroke-miterlimit:10;stroke-opacity:1;paint-order:fill stroke markers" />
      <path
         d="m 1219.5,376.5 -4,-4"
         stroke-miterlimit="10"
         id="path25"
         inkscape:connector-curvature="0"
         style="fill:none;stroke:#000000;stroke-miterlimit:10;stroke-opacity:1;paint-order:fill stroke markers" />
      <path
         d="m 1219.5,376.5 -4,4"
         stroke-miterlimit="10"
         id="path27"
         inkscape:connector-curvature="0"
         style="fill:none;stroke:#000000;stroke-miterlimit:10;stroke-opacity:1;paint-order:fill stroke markers" />
      <path
         d="m 0,336.04809 4.765625,0.094 4.765625,0.0958 4.765625,0.0976 4.765625,0.0995 4.765625,0.10149 4.765625,0.10352 4.765625,0.1056 4.765625,0.10775 4.765625,0.10997 4.765625,0.11226 4.765625,0.11462 4.765625,0.11705 4.765625,0.11956 4.765625,0.12216 4.765625,0.12483 4.765625,0.12761 4.765625,0.13047 4.765625,0.13342 4.765625,0.13649 4.765625,0.13965 4.76563,0.14294 4.76562,0.14633 4.76563,0.14985 4.76562,0.15349 4.76563,0.15728 4.76562,0.1612 4.76562,0.16527 4.76563,0.1695 4.76562,0.1739 4.76563,0.17846 4.76563,0.1832 4.76562,0.18815 4.76562,0.19329 4.76563,0.19864 4.76562,0.20423 4.76563,0.21004 4.76563,0.21612 4.76562,0.22246 4.76562,0.22908 4.76563,0.23601 4.76562,0.24325 4.76563,0.25082 4.76562,0.25877 4.76563,0.26709 4.76563,0.27583 4.76562,0.28499 4.76562,0.29462 4.76563,0.30475 4.76562,0.31541 4.76563,0.32664 4.76562,0.33848 4.76563,0.35098 4.76562,0.36417 4.76563,0.37814 4.76562,0.39291 4.76563,0.40857 4.76562,0.42519 4.76563,0.44284 4.76562,0.46162 4.76563,0.4816 4.76562,0.50293 4.76563,0.5257 4.76562,0.55005 4.76563,0.57613 4.76562,0.60411 4.76563,0.63419 4.76562,0.66656 4.76563,0.70148 4.76562,0.73922 4.76563,0.78009 4.76562,0.82443 4.76563,0.87269 4.76562,0.92528 4.76563,0.98281 4.76562,1.04585 4.76563,1.11516 4.76562,1.1916 4.76563,1.27619 4.76562,1.3701 4.76563,1.47478 4.76562,1.59193 4.76563,1.72362 4.76562,1.87236 4.76563,2.04121 4.76562,2.23399 4.76563,2.45543 4.76562,2.7115 4.76563,3.00985 4.76562,3.36031 4.76563,3.77574 4.76562,4.2733 4.76563,4.87615 4.76562,5.61624 4.76563,6.53868 4.76562,7.7087 4.76563,9.22361 2.38281,5.32666 2.38281,5.9071 2.38282,6.58787 2.38281,7.39353 2.38281,8.35659 2.38281,9.52094 1.19141,5.27589 1.19141,5.67097 1.1914,6.11215 1.19141,6.6069 1.19141,7.16424 1.1914,7.79523 1.19141,8.51342 1.1914,9.33564 0.59571,5.0143 0.5957,5.26872 0.5957,5.54303 0.59571,5.83931 0.5957,6.16001 0.5957,6.50787 0.59571,6.88605 0.5957,7.29819 0.5957,7.74847 0.59571,8.24174 0.5957,8.78367 0.5957,9.38087 0.29785,4.93374 0.29786,5.10737 0.29785,5.29032 0.29785,5.48328 0.29785,5.687 0.29785,5.90228 0.29785,6.13002 0.29785,6.3712 0.29786,6.62691 0.29785,6.89833 0.29785,7.18675 0.29785,7.49367 0.29785,7.82067 0.29785,8.16955 0.29786,8.54231 0.29785,8.94117 0.29785,9.36865 0.29785,9.82753 0.14893,5.09651 0.14892,5.22446 0.14893,5.35728 0.14892,5.49525 0.14893,5.63859 0.14893,5.78764 m 26.21093,-778.3312757 0.29785,6.5397084 0.29786,6.2889873 0.29785,6.052413 0.29785,5.828942 0.29785,5.617623 0.29785,5.417591 0.29785,5.228056 0.59571,9.925948 0.5957,9.276845 0.5957,8.689398 0.59571,8.156039 0.5957,7.670322 0.5957,7.226742 0.59571,6.820557 0.5957,6.447683 0.5957,6.104571 0.5957,5.78814 0.59571,5.49568 0.5957,5.22486 1.19141,9.71353 1.1914,8.84204 1.19141,8.0828 1.19141,7.41732 1.1914,6.83079 1.19141,6.31117 1.1914,5.84867 1.19141,5.43522 1.19141,5.06412 2.38281,9.15721 2.38281,8.05698 2.38281,7.1438 2.38282,6.37753 2.38281,5.72829 4.76562,9.86876 4.76563,8.19933 4.76562,6.92048 4.76563,5.91918 4.76562,5.12053 4.76563,4.4733 4.76562,3.94149 4.76563,3.49919 4.76562,3.1274 4.76563,2.81186 4.76562,2.54179 4.76563,2.30884 4.76562,2.10652 4.76563,1.92967 4.76562,1.77419 4.76563,1.63679 4.76562,1.51473 4.76563,1.40586 4.76562,1.3083 4.76563,1.22057 4.76562,1.14136 4.76563,1.06964 4.76562,1.00446 4.76563,0.94506 4.76562,0.89079 4.76563,0.84105 4.76562,0.79537 4.76563,0.75332 4.76562,0.7145 4.76563,0.67862 4.76562,0.64538 4.76563,0.61451 4.76562,0.58582 4.76563,0.55907 4.76562,0.53413 4.76563,0.51082 4.76562,0.489 4.76563,0.46855 4.76562,0.44936 4.76563,0.43131 4.76562,0.41435 4.76563,0.39835 4.76562,0.38327 4.76563,0.36903 4.76562,0.35557 4.76563,0.34282 4.76562,0.33076 4.76563,0.31932 4.76562,0.30847 4.76563,0.29815 4.76562,0.28834 4.76563,0.27902 4.76562,0.27014 4.76563,0.26167 4.76562,0.25359 4.76563,0.2459 4.76562,0.23853 4.76563,0.2315 4.76562,0.22477 4.76563,0.21833 4.76562,0.21217 4.76563,0.20626 4.76562,0.20059 4.76563,0.19516 4.76562,0.18994 4.76563,0.18494 4.76562,0.18012 4.76563,0.17549 4.76562,0.17103 4.76563,0.16675 4.76562,0.16263 4.76563,0.15865 4.76562,0.15482 4.76563,0.15112 4.76562,0.14756 4.76563,0.14413 4.76562,0.1408 4.76563,0.1376 4.76562,0.1345 4.76563,0.1315 4.76562,0.12861 4.76563,0.1258 4.76562,0.1231 4.76563,0.12047 4.76562,0.11793 4.76563,0.11547 4.76562,0.11309 4.76563,0.11077 4.76562,0.10853 4.76563,0.10635 4.76562,0.10425 4.76563,0.1022 4.76562,0.10021 4.76558,0.0983 4.7657,0.0964 4.7656,0.0946 4.7656,0.0928 4.7656,0.0911 4.7657,0.0894 4.7656,0.0878 4.7656,0.0862 4.7657,0.0847 4.7656,0.0832 4.7656,0.0817 4.7656,0.0803 4.7657,0.0789 4.7656,0.0775 4.7656,0.0762 4.7656,0.0749 4.7657,0.0737 4.7656,0.0725 4.7656,0.0713 4.7656,0.0701 4.7657,0.069 4.7656,0.0679 4.7656,0.0668 4.7656,0.0657 4.7657,0.0647 4.7656,0.0637 4.7656,0.0627 4.7656,0.0618 4.7657,0.0608 4.7656,0.0599 4.7656,0.059 4.7656,0.0582 4.7657,0.0573 4.7656,0.0565 4.7656,0.0556 4.7656,0.0548 4.7657,0.0541 4.7656,0.0533 4.7656,0.0525 4.7656,0.0518 4.7657,0.0511 4.7656,0.0504 4.7656,0.0497 4.7656,0.049 4.7657,0.0483 4.7656,0.0477 4.7656,0.0471"
         stroke-miterlimit="10"
         id="path29"
         inkscape:connector-curvature="0"
         style="fill:none;stroke:#000000;stroke-width:2.5;stroke-linecap:round;stroke-linejoin:round;stroke-miterlimit:10;stroke-opacity:1;paint-order:fill stroke markers" />
    </g>
  </g>
  <text
     xml:space="preserve"
     style="font-style:normal;font-weight:normal;font-size:40px;line-height:1.25;font-family:sans-serif;letter-spacing:0px;word-spacing:0px;fill:#000000;fill-opacity:1;stroke:none"
     x="37"
     y="122.1"
     id="text876"><tspan
       sodipodi:role="line"
       id="tspan874"
       x="37"
       y="122.1"
       style="font-size:10.66666698px">-2</tspan></text>
  <text
     xml:space="preserve"
     style="font-style:normal;font-weight:normal;font-size:40px;line-height:1.25;font-family:sans-serif;letter-spacing:0px;word-spacing:0px;fill:#000000;fill-opacity:1;stroke:none"
     x="7.2925262"
     y="122.15971"
     id="text876-3"><tspan
       sodipodi:role="line"
       id="tspan874-6"
       x="7.2925262"
       y="122.15971"
       style="font-size:10.66666698px">-4</tspan></text>
  <text
     xml:space="preserve"
     style="font-style:normal;font-weight:normal;font-size:40px;line-height:1.25;font-family:sans-serif;letter-spacing:0px;word-spacing:0px;fill:#000000;fill-opacity:1;stroke:none"
     x="104.13022"
     y="121.819"
     id="text876-0"><tspan
       sodipodi:role="line"
       id="tspan874-8"
       x="104.13022"
       y="121.819"
       style="font-size:10.66666698px">2</tspan></text>
  <text
     xml:space="preserve"
     style="font-style:normal;font-weight:normal;font-size:40px;line-height:1.25;font-family:sans-serif;letter-spacing:0px;word-spacing:0px;fill:#000000;fill-opacity:1;stroke:none"
     x="136.53645"
     y="121.879"
     id="text876-0-2"><tspan
       sodipodi:role="line"
       id="tspan874-8-2"
       x="136.53645"
       y="121.879"
       style="font-size:10.66666698px">4</tspan></text>
  <text
     xml:space="preserve"
     style="font-style:normal;font-weight:normal;font-size:40px;line-height:1.25;font-family:sans-serif;letter-spacing:0px;word-spacing:0px;fill:#000000;fill-opacity:1;stroke:none"
     x="167.53645"
     y="122.03854"
     id="text876-0-1"><tspan
       sodipodi:role="line"
       id="tspan874-8-1"
       x="167.53645"
       y="122.03854"
       style="font-size:10.66666698px">6</tspan></text>
  <text
     xml:space="preserve"
     style="font-style:normal;font-weight:normal;font-size:40px;line-height:1.25;font-family:sans-serif;letter-spacing:0px;word-spacing:0px;fill:#000000;fill-opacity:1;stroke:none"
     x="196.53645"
     y="121.75792"
     id="text876-0-0"><tspan
       sodipodi:role="line"
       id="tspan874-8-8"
       x="196.53645"
       y="121.75792"
       style="font-size:10.66666698px">8</tspan></text>
  <text
     xml:space="preserve"
     style="font-style:normal;font-weight:normal;font-size:40px;line-height:1.25;font-family:sans-serif;letter-spacing:0px;word-spacing:0px;fill:#000000;fill-opacity:1;stroke:none"
     x="225.03647"
     y="121.99854"
     id="text876-0-3"><tspan
       sodipodi:role="line"
       id="tspan874-8-6"
       x="225.03647"
       y="121.99854"
       style="font-size:10.66666698px">10</tspan></text>
  <text
     xml:space="preserve"
     style="font-style:normal;font-weight:normal;font-size:41.86144638px;line-height:1.25;font-family:sans-serif;letter-spacing:0px;word-spacing:0px;fill:#000000;fill-opacity:1;stroke:none;stroke-width:1.04653633"
     x="77.332817"
     y="86.818886"
     id="text876-0-7"
     transform="scale(1.0465362,0.95553311)"><tspan
       sodipodi:role="line"
       id="tspan874-8-68"
       x="77.332817"
       y="86.818886"
       style="font-size:11.16305351px;stroke-width:1.04653633">2</tspan></text>
  <text
     xml:space="preserve"
     style="font-style:normal;font-weight:normal;font-size:40px;line-height:1.25;font-family:sans-serif;letter-spacing:0px;word-spacing:0px;fill:#000000;fill-opacity:1;stroke:none"
     x="81.116959"
     y="51.877625"
     id="text876-0-2-2"><tspan
       sodipodi:role="line"
       id="tspan874-8-2-6"
       x="81.116959"
       y="51.877625"
       style="font-size:10.66666698px">4</tspan></text>
  <text
     xml:space="preserve"
     style="font-style:normal;font-weight:normal;font-size:40px;line-height:1.25;font-family:sans-serif;letter-spacing:0px;word-spacing:0px;fill:#000000;fill-opacity:1;stroke:none"
     x="81.166656"
     y="20.369812"
     id="text876-0-1-7"><tspan
       sodipodi:role="line"
       id="tspan874-8-1-5"
       x="81.166656"
       y="20.369812"
       style="font-size:10.66666698px">6</tspan></text>
  <text
     xml:space="preserve"
     style="font-style:normal;font-weight:normal;font-size:40px;line-height:1.25;font-family:sans-serif;letter-spacing:0px;word-spacing:0px;fill:#000000;fill-opacity:1;stroke:none"
     x="79.330124"
     y="145.45831"
     id="text876-37"><tspan
       sodipodi:role="line"
       id="tspan874-5"
       x="79.330124"
       y="145.45831"
       style="font-size:10.66666698px">-2</tspan></text>
  <text
     xml:space="preserve"
     style="font-style:normal;font-weight:normal;font-size:40px;line-height:1.25;font-family:sans-serif;letter-spacing:0px;word-spacing:0px;fill:#000000;fill-opacity:1;stroke:none"
     x="79.041656"
     y="175.37762"
     id="text876-3-7"><tspan
       sodipodi:role="line"
       id="tspan874-6-0"
       x="79.041656"
       y="175.37762"
       style="font-size:10.66666698px">-4</tspan></text>
  <path
     style="fill:#000000;stroke:none;stroke-width:0.5;stroke-linecap:butt;stroke-linejoin:miter;stroke-miterlimit:4;stroke-dasharray:none;stroke-opacity:1;marker-end:url(#Arrow2Lend);fill-opacity:1"
     d="m 239.5,109.99953 h 10"
     id="path1116"
     inkscape:connector-curvature="0" />
  <path
     style="fill:#000000;fill-opacity:1;stroke:none;stroke-width:0.5;stroke-linecap:butt;stroke-linejoin:miter;stroke-miterlimit:4;stroke-dasharray:none;stroke-opacity:1;marker-end:url(#Arrow2Lend-7)"
     d="m 77.601133,11.005 v -10"
     id="path1116-0"
     inkscape:connector-curvature="0" />
</svg>
