<svg version="1.1" xmlns="http://www.w3.org/2000/svg" xmlns:xlink="http://www.w3.org/1999/xlink" width="1080" height="1342"><defs><clipPath id="BfcOBbRbclNR"><path fill="none" stroke="none" d=" M 0 0 L 1080 0 L 1080 1342 L 0 1342 L 0 0 Z"/></clipPath></defs><g transform="scale(1,1)" clip-path="url(#BfcOBbRbclNR)"><g><rect fill="rgb(255,255,255)" stroke="none" x="0" y="0" width="1080" height="1342" fill-opacity="1"/><path fill="none" stroke="rgb(0,0,0)" paint-order="fill stroke markers" d=" M 227.086401202104 797.246636158732 L 261.2370739703576 797.246636158732" stroke-opacity="0.6980392156862745" stroke-linecap="round" stroke-linejoin="round" stroke-miterlimit="10" stroke-width="2.5"/><path fill="none" stroke="rgb(0,0,0)" paint-order="fill stroke markers" d=" M 261.2370739703576 797.246636158732 L 261.2370739703576 763.0959633904786" stroke-opacity="0.6980392156862745" stroke-linecap="round" stroke-linejoin="round" stroke-miterlimit="10" stroke-width="2.5"/><path fill="none" stroke="rgb(0,0,0)" paint-order="fill stroke markers" d=" M 261.2370739703576 763.0959633904786 L 227.086401202104 763.0959633904786" stroke-opacity="0.6980392156862745" stroke-linecap="round" stroke-linejoin="round" stroke-miterlimit="10" stroke-width="2.5"/><path fill="none" stroke="rgb(0,0,0)" paint-order="fill stroke markers" d=" M 227.086401202104 763.0959633904786 L 227.086401202104 797.246636158732" stroke-opacity="0.6980392156862745" stroke-linecap="round" stroke-linejoin="round" stroke-miterlimit="10" stroke-width="2.5"/><path fill="none" stroke="rgb(0,0,0)" paint-order="fill stroke markers" d=" M 397.8397650433718 797.246636158732 L 431.9904378116254 797.246636158732" stroke-opacity="0.6980392156862745" stroke-linecap="round" stroke-linejoin="round" stroke-miterlimit="10" stroke-width="2.5"/><path fill="none" stroke="rgb(0,0,0)" paint-order="fill stroke markers" d=" M 431.9904378116254 797.246636158732 L 431.9904378116254 763.0959633904786" stroke-opacity="0.6980392156862745" stroke-linecap="round" stroke-linejoin="round" stroke-miterlimit="10" stroke-width="2.5"/><path fill="none" stroke="rgb(0,0,0)" paint-order="fill stroke markers" d=" M 431.9904378116254 763.0959633904786 L 397.8397650433718 763.0959633904786" stroke-opacity="0.6980392156862745" stroke-linecap="round" stroke-linejoin="round" stroke-miterlimit="10" stroke-width="2.5"/><path fill="none" stroke="rgb(0,0,0)" paint-order="fill stroke markers" d=" M 397.8397650433718 763.0959633904786 L 397.8397650433718 797.246636158732" stroke-opacity="0.6980392156862745" stroke-linecap="round" stroke-linejoin="round" stroke-miterlimit="10" stroke-width="2.5"/><path fill="none" stroke="rgb(0,0,0)" paint-order="fill stroke markers" d=" M 397.8397650433718 763.0959633904786 L 397.8397650433718 728.945290622225" stroke-opacity="0.6980392156862745" stroke-linecap="round" stroke-linejoin="round" stroke-miterlimit="10" stroke-width="2.5"/><path fill="none" stroke="rgb(0,0,0)" paint-order="fill stroke markers" d=" M 397.8397650433718 728.945290622225 L 431.9904378116254 728.945290622225" stroke-opacity="0.6980392156862745" stroke-linecap="round" stroke-linejoin="round" stroke-miterlimit="10" stroke-width="2.5"/><path fill="none" stroke="rgb(0,0,0)" paint-order="fill stroke markers" d=" M 431.9904378116254 728.945290622225 L 466.1411105798789 728.945290622225" stroke-opacity="0.6980392156862745" stroke-linecap="round" stroke-linejoin="round" stroke-miterlimit="10" stroke-width="2.5"/><path fill="none" stroke="rgb(0,0,0)" paint-order="fill stroke markers" d=" M 466.1411105798789 728.945290622225 L 466.1411105798789 763.0959633904786" stroke-opacity="0.6980392156862745" stroke-linecap="round" stroke-linejoin="round" stroke-miterlimit="10" stroke-width="2.5"/><path fill="none" stroke="rgb(0,0,0)" paint-order="fill stroke markers" d=" M 466.1411105798789 763.0959633904786 L 466.1411105798789 797.246636158732" stroke-opacity="0.6980392156862745" stroke-linecap="round" stroke-linejoin="round" stroke-miterlimit="10" stroke-width="2.5"/><path fill="none" stroke="rgb(0,0,0)" paint-order="fill stroke markers" d=" M 466.1411105798789 797.246636158732 L 431.9904378116254 797.246636158732" stroke-opacity="0.6980392156862745" stroke-linecap="round" stroke-linejoin="round" stroke-miterlimit="10" stroke-width="2.5"/><path fill="none" stroke="rgb(0,0,0)" paint-order="fill stroke markers" d=" M 602.7438016528931 797.246636158732 L 602.7438016528931 763.0959633904786" stroke-opacity="0.6980392156862745" stroke-linecap="round" stroke-linejoin="round" stroke-miterlimit="10" stroke-width="2.5"/><path fill="none" stroke="rgb(0,0,0)" paint-order="fill stroke markers" d=" M 602.7438016528931 763.0959633904786 L 636.8944744211467 763.0959633904786" stroke-opacity="0.6980392156862745" stroke-linecap="round" stroke-linejoin="round" stroke-miterlimit="10" stroke-width="2.5"/><path fill="none" stroke="rgb(0,0,0)" paint-order="fill stroke markers" d=" M 636.8944744211467 763.0959633904786 L 636.8944744211467 797.246636158732" stroke-opacity="0.6980392156862745" stroke-linecap="round" stroke-linejoin="round" stroke-miterlimit="10" stroke-width="2.5"/><path fill="none" stroke="rgb(0,0,0)" paint-order="fill stroke markers" d=" M 636.8944744211467 797.246636158732 L 602.7438016528931 797.246636158732" stroke-opacity="0.6980392156862745" stroke-linecap="round" stroke-linejoin="round" stroke-miterlimit="10" stroke-width="2.5"/><path fill="none" stroke="rgb(0,0,0)" paint-order="fill stroke markers" d=" M 602.7438016528931 763.0959633904786 L 602.7438016528931 728.945290622225" stroke-opacity="0.6980392156862745" stroke-linecap="round" stroke-linejoin="round" stroke-miterlimit="10" stroke-width="2.5"/><path fill="none" stroke="rgb(0,0,0)" paint-order="fill stroke markers" d=" M 602.7438016528931 728.945290622225 L 636.8944744211467 728.945290622225" stroke-opacity="0.6980392156862745" stroke-linecap="round" stroke-linejoin="round" stroke-miterlimit="10" stroke-width="2.5"/><path fill="none" stroke="rgb(0,0,0)" paint-order="fill stroke markers" d=" M 636.8944744211467 728.945290622225 L 671.0451471894003 728.945290622225" stroke-opacity="0.6980392156862745" stroke-linecap="round" stroke-linejoin="round" stroke-miterlimit="10" stroke-width="2.5"/><path fill="none" stroke="rgb(0,0,0)" paint-order="fill stroke markers" d=" M 671.0451471894003 728.945290622225 L 671.0451471894003 763.0959633904786" stroke-opacity="0.6980392156862745" stroke-linecap="round" stroke-linejoin="round" stroke-miterlimit="10" stroke-width="2.5"/><path fill="none" stroke="rgb(0,0,0)" paint-order="fill stroke markers" d=" M 671.0451471894003 763.0959633904786 L 671.0451471894003 797.246636158732" stroke-opacity="0.6980392156862745" stroke-linecap="round" stroke-linejoin="round" stroke-miterlimit="10" stroke-width="2.5"/><path fill="none" stroke="rgb(0,0,0)" paint-order="fill stroke markers" d=" M 671.0451471894003 797.246636158732 L 636.8944744211467 797.246636158732" stroke-opacity="0.6980392156862745" stroke-linecap="round" stroke-linejoin="round" stroke-miterlimit="10" stroke-width="2.5"/><path fill="none" stroke="rgb(0,0,0)" paint-order="fill stroke markers" d=" M 602.7438016528931 728.945290622225 L 602.7438016528931 694.7946178539715" stroke-opacity="0.6980392156862745" stroke-linecap="round" stroke-linejoin="round" stroke-miterlimit="10" stroke-width="2.5"/><path fill="none" stroke="rgb(0,0,0)" paint-order="fill stroke markers" d=" M 602.7438016528931 694.7946178539715 L 636.8944744211467 694.7946178539715" stroke-opacity="0.6980392156862745" stroke-linecap="round" stroke-linejoin="round" stroke-miterlimit="10" stroke-width="2.5"/><path fill="none" stroke="rgb(0,0,0)" paint-order="fill stroke markers" d=" M 636.8944744211467 694.7946178539715 L 671.0451471894003 694.7946178539715" stroke-opacity="0.6980392156862745" stroke-linecap="round" stroke-linejoin="round" stroke-miterlimit="10" stroke-width="2.5"/><path fill="none" stroke="rgb(0,0,0)" paint-order="fill stroke markers" d=" M 671.0451471894003 694.7946178539715 L 705.1958199576538 694.7946178539715" stroke-opacity="0.6980392156862745" stroke-linecap="round" stroke-linejoin="round" stroke-miterlimit="10" stroke-width="2.5"/><path fill="none" stroke="rgb(0,0,0)" paint-order="fill stroke markers" d=" M 705.1958199576538 694.7946178539715 L 705.1958199576538 728.945290622225" stroke-opacity="0.6980392156862745" stroke-linecap="round" stroke-linejoin="round" stroke-miterlimit="10" stroke-width="2.5"/><path fill="none" stroke="rgb(0,0,0)" paint-order="fill stroke markers" d=" M 705.1958199576538 728.945290622225 L 705.1958199576538 763.0959633904786" stroke-opacity="0.6980392156862745" stroke-linecap="round" stroke-linejoin="round" stroke-miterlimit="10" stroke-width="2.5"/><path fill="none" stroke="rgb(0,0,0)" paint-order="fill stroke markers" d=" M 705.1958199576538 763.0959633904786 L 705.1958199576538 797.246636158732" stroke-opacity="0.6980392156862745" stroke-linecap="round" stroke-linejoin="round" stroke-miterlimit="10" stroke-width="2.5"/><path fill="none" stroke="rgb(0,0,0)" paint-order="fill stroke markers" d=" M 705.1958199576538 797.246636158732 L 671.0451471894003 797.246636158732" stroke-opacity="0.6980392156862745" stroke-linecap="round" stroke-linejoin="round" stroke-miterlimit="10" stroke-width="2.5"/><path fill="none" stroke="rgb(0,0,0)" paint-order="fill stroke markers" d=" M 841.798511030668 797.246636158732 L 841.798511030668 763.0959633904786" stroke-opacity="0.6980392156862745" stroke-linecap="round" stroke-linejoin="round" stroke-miterlimit="10" stroke-width="2.5"/><path fill="none" stroke="rgb(0,0,0)" paint-order="fill stroke markers" d=" M 841.798511030668 763.0959633904786 L 875.9491837989216 763.0959633904786" stroke-opacity="0.6980392156862745" stroke-linecap="round" stroke-linejoin="round" stroke-miterlimit="10" stroke-width="2.5"/><path fill="none" stroke="rgb(0,0,0)" paint-order="fill stroke markers" d=" M 875.9491837989216 763.0959633904786 L 875.9491837989216 797.246636158732" stroke-opacity="0.6980392156862745" stroke-linecap="round" stroke-linejoin="round" stroke-miterlimit="10" stroke-width="2.5"/><path fill="none" stroke="rgb(0,0,0)" paint-order="fill stroke markers" d=" M 875.9491837989216 797.246636158732 L 841.798511030668 797.246636158732" stroke-opacity="0.6980392156862745" stroke-linecap="round" stroke-linejoin="round" stroke-miterlimit="10" stroke-width="2.5"/><path fill="none" stroke="rgb(0,0,0)" paint-order="fill stroke markers" d=" M 841.798511030668 763.0959633904786 L 841.798511030668 728.945290622225" stroke-opacity="0.6980392156862745" stroke-linecap="round" stroke-linejoin="round" stroke-miterlimit="10" stroke-width="2.5"/><path fill="none" stroke="rgb(0,0,0)" paint-order="fill stroke markers" d=" M 841.798511030668 728.945290622225 L 875.9491837989216 728.945290622225" stroke-opacity="0.6980392156862745" stroke-linecap="round" stroke-linejoin="round" stroke-miterlimit="10" stroke-width="2.5"/><path fill="none" stroke="rgb(0,0,0)" paint-order="fill stroke markers" d=" M 875.9491837989216 728.945290622225 L 910.0998565671752 728.945290622225" stroke-opacity="0.6980392156862745" stroke-linecap="round" stroke-linejoin="round" stroke-miterlimit="10" stroke-width="2.5"/><path fill="none" stroke="rgb(0,0,0)" paint-order="fill stroke markers" d=" M 910.0998565671752 728.945290622225 L 910.0998565671752 763.0959633904786" stroke-opacity="0.6980392156862745" stroke-linecap="round" stroke-linejoin="round" stroke-miterlimit="10" stroke-width="2.5"/><path fill="none" stroke="rgb(0,0,0)" paint-order="fill stroke markers" d=" M 910.0998565671752 763.0959633904786 L 910.0998565671752 797.246636158732" stroke-opacity="0.6980392156862745" stroke-linecap="round" stroke-linejoin="round" stroke-miterlimit="10" stroke-width="2.5"/><path fill="none" stroke="rgb(0,0,0)" paint-order="fill stroke markers" d=" M 910.0998565671752 797.246636158732 L 875.9491837989216 797.246636158732" stroke-opacity="0.6980392156862745" stroke-linecap="round" stroke-linejoin="round" stroke-miterlimit="10" stroke-width="2.5"/><path fill="none" stroke="rgb(0,0,0)" paint-order="fill stroke markers" d=" M 841.798511030668 728.945290622225 L 841.798511030668 694.7946178539715" stroke-opacity="0.6980392156862745" stroke-linecap="round" stroke-linejoin="round" stroke-miterlimit="10" stroke-width="2.5"/><path fill="none" stroke="rgb(0,0,0)" paint-order="fill stroke markers" d=" M 841.798511030668 694.7946178539715 L 875.9491837989216 694.7946178539715" stroke-opacity="0.6980392156862745" stroke-linecap="round" stroke-linejoin="round" stroke-miterlimit="10" stroke-width="2.5"/><path fill="none" stroke="rgb(0,0,0)" paint-order="fill stroke markers" d=" M 875.9491837989216 694.7946178539715 L 910.0998565671752 694.7946178539715" stroke-opacity="0.6980392156862745" stroke-linecap="round" stroke-linejoin="round" stroke-miterlimit="10" stroke-width="2.5"/><path fill="none" stroke="rgb(0,0,0)" paint-order="fill stroke markers" d=" M 910.0998565671752 694.7946178539715 L 944.2505293354287 694.7946178539715" stroke-opacity="0.6980392156862745" stroke-linecap="round" stroke-linejoin="round" stroke-miterlimit="10" stroke-width="2.5"/><path fill="none" stroke="rgb(0,0,0)" paint-order="fill stroke markers" d=" M 944.2505293354287 694.7946178539715 L 944.2505293354287 728.945290622225" stroke-opacity="0.6980392156862745" stroke-linecap="round" stroke-linejoin="round" stroke-miterlimit="10" stroke-width="2.5"/><path fill="none" stroke="rgb(0,0,0)" paint-order="fill stroke markers" d=" M 944.2505293354287 728.945290622225 L 944.2505293354287 763.0959633904786" stroke-opacity="0.6980392156862745" stroke-linecap="round" stroke-linejoin="round" stroke-miterlimit="10" stroke-width="2.5"/><path fill="none" stroke="rgb(0,0,0)" paint-order="fill stroke markers" d=" M 944.2505293354287 763.0959633904786 L 944.2505293354287 797.246636158732" stroke-opacity="0.6980392156862745" stroke-linecap="round" stroke-linejoin="round" stroke-miterlimit="10" stroke-width="2.5"/><path fill="none" stroke="rgb(0,0,0)" paint-order="fill stroke markers" d=" M 944.2505293354287 797.246636158732 L 910.0998565671752 797.246636158732" stroke-opacity="0.6980392156862745" stroke-linecap="round" stroke-linejoin="round" stroke-miterlimit="10" stroke-width="2.5"/><path fill="none" stroke="rgb(0,0,0)" paint-order="fill stroke markers" d=" M 841.798511030668 694.7946178539715 L 841.798511030668 660.6439450857181" stroke-opacity="0.6980392156862745" stroke-linecap="round" stroke-linejoin="round" stroke-miterlimit="10" stroke-width="2.5"/><path fill="none" stroke="rgb(0,0,0)" paint-order="fill stroke markers" d=" M 841.798511030668 660.6439450857181 L 875.9491837989216 660.6439450857181" stroke-opacity="0.6980392156862745" stroke-linecap="round" stroke-linejoin="round" stroke-miterlimit="10" stroke-width="2.5"/><path fill="none" stroke="rgb(0,0,0)" paint-order="fill stroke markers" d=" M 875.9491837989216 660.6439450857181 L 910.0998565671752 660.6439450857181" stroke-opacity="0.6980392156862745" stroke-linecap="round" stroke-linejoin="round" stroke-miterlimit="10" stroke-width="2.5"/><path fill="none" stroke="rgb(0,0,0)" paint-order="fill stroke markers" d=" M 910.0998565671752 660.6439450857181 L 944.2505293354287 660.6439450857181" stroke-opacity="0.6980392156862745" stroke-linecap="round" stroke-linejoin="round" stroke-miterlimit="10" stroke-width="2.5"/><path fill="none" stroke="rgb(0,0,0)" paint-order="fill stroke markers" d=" M 944.2505293354287 660.6439450857181 L 978.4012021036823 660.6439450857181" stroke-opacity="0.6980392156862745" stroke-linecap="round" stroke-linejoin="round" stroke-miterlimit="10" stroke-width="2.5"/><path fill="none" stroke="rgb(0,0,0)" paint-order="fill stroke markers" d=" M 978.4012021036823 660.6439450857181 L 978.4012021036823 694.7946178539715" stroke-opacity="0.6980392156862745" stroke-linecap="round" stroke-linejoin="round" stroke-miterlimit="10" stroke-width="2.5"/><path fill="none" stroke="rgb(0,0,0)" paint-order="fill stroke markers" d=" M 978.4012021036823 694.7946178539715 L 978.4012021036823 728.945290622225" stroke-opacity="0.6980392156862745" stroke-linecap="round" stroke-linejoin="round" stroke-miterlimit="10" stroke-width="2.5"/><path fill="none" stroke="rgb(0,0,0)" paint-order="fill stroke markers" d=" M 978.4012021036823 728.945290622225 L 978.4012021036823 763.0959633904786" stroke-opacity="0.6980392156862745" stroke-linecap="round" stroke-linejoin="round" stroke-miterlimit="10" stroke-width="2.5"/><path fill="none" stroke="rgb(0,0,0)" paint-order="fill stroke markers" d=" M 978.4012021036823 763.0959633904786 L 978.4012021036823 797.246636158732" stroke-opacity="0.6980392156862745" stroke-linecap="round" stroke-linejoin="round" stroke-miterlimit="10" stroke-width="2.5"/><path fill="none" stroke="rgb(0,0,0)" paint-order="fill stroke markers" d=" M 978.4012021036823 797.246636158732 L 944.2505293354287 797.246636158732" stroke-opacity="0.6980392156862745" stroke-linecap="round" stroke-linejoin="round" stroke-miterlimit="10" stroke-width="2.5"/><path fill="none" stroke="rgb(0,0,0)" paint-order="fill stroke markers" d=" M 124.63438289734334 797.246636158732 L 175.93572843385044 797.246636158732" stroke-opacity="0.6980392156862745" stroke-linecap="round" stroke-linejoin="round" stroke-miterlimit="10" stroke-width="2.5"/><path fill="rgb(0,0,0)" stroke="none" paint-order="stroke fill markers" fill-rule="evenodd" d=" M 192.93572843385044 797.246636158732 L 175.93572843385044 801.496636158732 L 175.93572843385044 792.996636158732 Z" fill-opacity="0.6980392156862745"/><path fill="none" stroke="rgb(0,0,0)" paint-order="fill stroke markers" d=" M 295.3877467386111 797.246636158732 L 346.68909227511824 797.246636158732" stroke-opacity="0.6980392156862745" stroke-linecap="round" stroke-linejoin="round" stroke-miterlimit="10" stroke-width="2.5"/><path fill="rgb(0,0,0)" stroke="none" paint-order="stroke fill markers" fill-rule="evenodd" d=" M 363.68909227511824 797.246636158732 L 346.68909227511824 801.496636158732 L 346.68909227511824 792.996636158732 Z" fill-opacity="0.6980392156862745"/><path fill="none" stroke="rgb(0,0,0)" paint-order="fill stroke markers" d=" M 500.29178334813247 797.246636158732 L 551.5931288846396 797.246636158732" stroke-opacity="0.6980392156862745" stroke-linecap="round" stroke-linejoin="round" stroke-miterlimit="10" stroke-width="2.5"/><path fill="rgb(0,0,0)" stroke="none" paint-order="stroke fill markers" fill-rule="evenodd" d=" M 568.5931288846396 797.246636158732 L 551.5931288846396 801.496636158732 L 551.5931288846396 792.996636158732 Z" fill-opacity="0.6980392156862745"/><path fill="none" stroke="rgb(0,0,0)" paint-order="fill stroke markers" d=" M 739.3464927259074 797.246636158732 L 790.6478382624144 797.246636158732" stroke-opacity="0.6980392156862745" stroke-linecap="round" stroke-linejoin="round" stroke-miterlimit="10" stroke-width="2.5"/><path fill="rgb(0,0,0)" stroke="none" paint-order="stroke fill markers" fill-rule="evenodd" d=" M 807.6478382624144 797.246636158732 L 790.6478382624144 801.496636158732 L 790.6478382624144 792.996636158732 Z" fill-opacity="0.6980392156862745"/><path fill="rgb(21,101,192)" stroke="none" paint-order="stroke fill markers" d=" M 95.48371012908979 797.246636158732 C 95.48371012908979 800.008059907886 93.24513387824375 802.246636158732 90.48371012908979 802.246636158732 C 87.72228637993582 802.246636158732 85.48371012908979 800.008059907886 85.48371012908979 797.246636158732 C 85.48371012908979 794.485212409578 87.72228637993582 792.246636158732 90.48371012908979 792.246636158732 C 93.24513387824375 792.246636158732 95.48371012908979 794.485212409578 95.48371012908979 797.246636158732 Z" fill-opacity="1"/><path fill="none" stroke="rgb(0,0,0)" paint-order="fill stroke markers" d=" M 95.48371012908979 797.246636158732 C 95.48371012908979 800.008059907886 93.24513387824375 802.246636158732 90.48371012908979 802.246636158732 C 87.72228637993582 802.246636158732 85.48371012908979 800.008059907886 85.48371012908979 797.246636158732 C 85.48371012908979 794.485212409578 87.72228637993582 792.246636158732 90.48371012908979 792.246636158732 C 93.24513387824375 792.246636158732 95.48371012908979 794.485212409578 95.48371012908979 797.246636158732 Z" stroke-opacity="1" stroke-linecap="round" stroke-linejoin="round" stroke-miterlimit="10"/><path fill="rgb(21,101,192)" stroke="none" paint-order="stroke fill markers" d=" M 232.086401202104 797.246636158732 C 232.086401202104 800.008059907886 229.847824951258 802.246636158732 227.086401202104 802.246636158732 C 224.32497745295004 802.246636158732 222.086401202104 800.008059907886 222.086401202104 797.246636158732 C 222.086401202104 794.485212409578 224.32497745295004 792.246636158732 227.086401202104 792.246636158732 C 229.847824951258 792.246636158732 232.086401202104 794.485212409578 232.086401202104 797.246636158732 Z" fill-opacity="1"/><path fill="none" stroke="rgb(0,0,0)" paint-order="fill stroke markers" d=" M 232.086401202104 797.246636158732 C 232.086401202104 800.008059907886 229.847824951258 802.246636158732 227.086401202104 802.246636158732 C 224.32497745295004 802.246636158732 222.086401202104 800.008059907886 222.086401202104 797.246636158732 C 222.086401202104 794.485212409578 224.32497745295004 792.246636158732 227.086401202104 792.246636158732 C 229.847824951258 792.246636158732 232.086401202104 794.485212409578 232.086401202104 797.246636158732 Z" stroke-opacity="1" stroke-linecap="round" stroke-linejoin="round" stroke-miterlimit="10"/><path fill="rgb(21,101,192)" stroke="none" paint-order="stroke fill markers" d=" M 266.2370739703576 797.246636158732 C 266.2370739703576 800.008059907886 263.99849771951153 802.246636158732 261.2370739703576 802.246636158732 C 258.47565022120364 802.246636158732 256.2370739703576 800.008059907886 256.2370739703576 797.246636158732 C 256.2370739703576 794.485212409578 258.47565022120364 792.246636158732 261.2370739703576 792.246636158732 C 263.99849771951153 792.246636158732 266.2370739703576 794.485212409578 266.2370739703576 797.246636158732 Z" fill-opacity="1"/><path fill="none" stroke="rgb(0,0,0)" paint-order="fill stroke markers" d=" M 266.2370739703576 797.246636158732 C 266.2370739703576 800.008059907886 263.99849771951153 802.246636158732 261.2370739703576 802.246636158732 C 258.47565022120364 802.246636158732 256.2370739703576 800.008059907886 256.2370739703576 797.246636158732 C 256.2370739703576 794.485212409578 258.47565022120364 792.246636158732 261.2370739703576 792.246636158732 C 263.99849771951153 792.246636158732 266.2370739703576 794.485212409578 266.2370739703576 797.246636158732 Z" stroke-opacity="1" stroke-linecap="round" stroke-linejoin="round" stroke-miterlimit="10"/><path fill="rgb(21,101,192)" stroke="none" paint-order="stroke fill markers" d=" M 266.2370739703576 763.0959633904786 C 266.2370739703576 765.8573871396326 263.99849771951153 768.0959633904786 261.2370739703576 768.0959633904786 C 258.47565022120364 768.0959633904786 256.2370739703576 765.8573871396326 256.2370739703576 763.0959633904786 C 256.2370739703576 760.3345396413246 258.47565022120364 758.0959633904786 261.2370739703576 758.0959633904786 C 263.99849771951153 758.0959633904786 266.2370739703576 760.3345396413246 266.2370739703576 763.0959633904786 Z" fill-opacity="1"/><path fill="none" stroke="rgb(0,0,0)" paint-order="fill stroke markers" d=" M 266.2370739703576 763.0959633904786 C 266.2370739703576 765.8573871396326 263.99849771951153 768.0959633904786 261.2370739703576 768.0959633904786 C 258.47565022120364 768.0959633904786 256.2370739703576 765.8573871396326 256.2370739703576 763.0959633904786 C 256.2370739703576 760.3345396413246 258.47565022120364 758.0959633904786 261.2370739703576 758.0959633904786 C 263.99849771951153 758.0959633904786 266.2370739703576 760.3345396413246 266.2370739703576 763.0959633904786 Z" stroke-opacity="1" stroke-linecap="round" stroke-linejoin="round" stroke-miterlimit="10"/><path fill="rgb(21,101,192)" stroke="none" paint-order="stroke fill markers" d=" M 232.086401202104 763.0959633904786 C 232.086401202104 765.8573871396326 229.847824951258 768.0959633904786 227.086401202104 768.0959633904786 C 224.32497745295004 768.0959633904786 222.086401202104 765.8573871396326 222.086401202104 763.0959633904786 C 222.086401202104 760.3345396413246 224.32497745295004 758.0959633904786 227.086401202104 758.0959633904786 C 229.847824951258 758.0959633904786 232.086401202104 760.3345396413246 232.086401202104 763.0959633904786 Z" fill-opacity="1"/><path fill="none" stroke="rgb(0,0,0)" paint-order="fill stroke markers" d=" M 232.086401202104 763.0959633904786 C 232.086401202104 765.8573871396326 229.847824951258 768.0959633904786 227.086401202104 768.0959633904786 C 224.32497745295004 768.0959633904786 222.086401202104 765.8573871396326 222.086401202104 763.0959633904786 C 222.086401202104 760.3345396413246 224.32497745295004 758.0959633904786 227.086401202104 758.0959633904786 C 229.847824951258 758.0959633904786 232.086401202104 760.3345396413246 232.086401202104 763.0959633904786 Z" stroke-opacity="1" stroke-linecap="round" stroke-linejoin="round" stroke-miterlimit="10"/><path fill="rgb(21,101,192)" stroke="none" paint-order="stroke fill markers" d=" M 402.8397650433718 797.246636158732 C 402.8397650433718 800.008059907886 400.60118879252576 802.246636158732 397.8397650433718 802.246636158732 C 395.07834129421786 802.246636158732 392.8397650433718 800.008059907886 392.8397650433718 797.246636158732 C 392.8397650433718 794.485212409578 395.07834129421786 792.246636158732 397.8397650433718 792.246636158732 C 400.60118879252576 792.246636158732 402.8397650433718 794.485212409578 402.8397650433718 797.246636158732 Z" fill-opacity="1"/><path fill="none" stroke="rgb(0,0,0)" paint-order="fill stroke markers" d=" M 402.8397650433718 797.246636158732 C 402.8397650433718 800.008059907886 400.60118879252576 802.246636158732 397.8397650433718 802.246636158732 C 395.07834129421786 802.246636158732 392.8397650433718 800.008059907886 392.8397650433718 797.246636158732 C 392.8397650433718 794.485212409578 395.07834129421786 792.246636158732 397.8397650433718 792.246636158732 C 400.60118879252576 792.246636158732 402.8397650433718 794.485212409578 402.8397650433718 797.246636158732 Z" stroke-opacity="1" stroke-linecap="round" stroke-linejoin="round" stroke-miterlimit="10"/><path fill="rgb(21,101,192)" stroke="none" paint-order="stroke fill markers" d=" M 436.9904378116254 797.246636158732 C 436.9904378116254 800.008059907886 434.75186156077933 802.246636158732 431.9904378116254 802.246636158732 C 429.22901406247144 802.246636158732 426.9904378116254 800.008059907886 426.9904378116254 797.246636158732 C 426.9904378116254 794.485212409578 429.22901406247144 792.246636158732 431.9904378116254 792.246636158732 C 434.75186156077933 792.246636158732 436.9904378116254 794.485212409578 436.9904378116254 797.246636158732 Z" fill-opacity="1"/><path fill="none" stroke="rgb(0,0,0)" paint-order="fill stroke markers" d=" M 436.9904378116254 797.246636158732 C 436.9904378116254 800.008059907886 434.75186156077933 802.246636158732 431.9904378116254 802.246636158732 C 429.22901406247144 802.246636158732 426.9904378116254 800.008059907886 426.9904378116254 797.246636158732 C 426.9904378116254 794.485212409578 429.22901406247144 792.246636158732 431.9904378116254 792.246636158732 C 434.75186156077933 792.246636158732 436.9904378116254 794.485212409578 436.9904378116254 797.246636158732 Z" stroke-opacity="1" stroke-linecap="round" stroke-linejoin="round" stroke-miterlimit="10"/><path fill="rgb(21,101,192)" stroke="none" paint-order="stroke fill markers" d=" M 436.9904378116254 763.0959633904786 C 436.9904378116254 765.8573871396326 434.75186156077933 768.0959633904786 431.9904378116254 768.0959633904786 C 429.22901406247144 768.0959633904786 426.9904378116254 765.8573871396326 426.9904378116254 763.0959633904786 C 426.9904378116254 760.3345396413246 429.22901406247144 758.0959633904786 431.9904378116254 758.0959633904786 C 434.75186156077933 758.0959633904786 436.9904378116254 760.3345396413246 436.9904378116254 763.0959633904786 Z" fill-opacity="1"/><path fill="none" stroke="rgb(0,0,0)" paint-order="fill stroke markers" d=" M 436.9904378116254 763.0959633904786 C 436.9904378116254 765.8573871396326 434.75186156077933 768.0959633904786 431.9904378116254 768.0959633904786 C 429.22901406247144 768.0959633904786 426.9904378116254 765.8573871396326 426.9904378116254 763.0959633904786 C 426.9904378116254 760.3345396413246 429.22901406247144 758.0959633904786 431.9904378116254 758.0959633904786 C 434.75186156077933 758.0959633904786 436.9904378116254 760.3345396413246 436.9904378116254 763.0959633904786 Z" stroke-opacity="1" stroke-linecap="round" stroke-linejoin="round" stroke-miterlimit="10"/><path fill="rgb(21,101,192)" stroke="none" paint-order="stroke fill markers" d=" M 402.8397650433718 763.0959633904786 C 402.8397650433718 765.8573871396326 400.60118879252576 768.0959633904786 397.8397650433718 768.0959633904786 C 395.07834129421786 768.0959633904786 392.8397650433718 765.8573871396326 392.8397650433718 763.0959633904786 C 392.8397650433718 760.3345396413246 395.07834129421786 758.0959633904786 397.8397650433718 758.0959633904786 C 400.60118879252576 758.0959633904786 402.8397650433718 760.3345396413246 402.8397650433718 763.0959633904786 Z" fill-opacity="1"/><path fill="none" stroke="rgb(0,0,0)" paint-order="fill stroke markers" d=" M 402.8397650433718 763.0959633904786 C 402.8397650433718 765.8573871396326 400.60118879252576 768.0959633904786 397.8397650433718 768.0959633904786 C 395.07834129421786 768.0959633904786 392.8397650433718 765.8573871396326 392.8397650433718 763.0959633904786 C 392.8397650433718 760.3345396413246 395.07834129421786 758.0959633904786 397.8397650433718 758.0959633904786 C 400.60118879252576 758.0959633904786 402.8397650433718 760.3345396413246 402.8397650433718 763.0959633904786 Z" stroke-opacity="1" stroke-linecap="round" stroke-linejoin="round" stroke-miterlimit="10"/><path fill="rgb(21,101,192)" stroke="none" paint-order="stroke fill markers" d=" M 402.8397650433718 728.945290622225 C 402.8397650433718 731.706714371379 400.60118879252576 733.945290622225 397.8397650433718 733.945290622225 C 395.07834129421786 733.945290622225 392.8397650433718 731.706714371379 392.8397650433718 728.945290622225 C 392.8397650433718 726.183866873071 395.07834129421786 723.945290622225 397.8397650433718 723.945290622225 C 400.60118879252576 723.945290622225 402.8397650433718 726.183866873071 402.8397650433718 728.945290622225 Z" fill-opacity="1"/><path fill="none" stroke="rgb(0,0,0)" paint-order="fill stroke markers" d=" M 402.8397650433718 728.945290622225 C 402.8397650433718 731.706714371379 400.60118879252576 733.945290622225 397.8397650433718 733.945290622225 C 395.07834129421786 733.945290622225 392.8397650433718 731.706714371379 392.8397650433718 728.945290622225 C 392.8397650433718 726.183866873071 395.07834129421786 723.945290622225 397.8397650433718 723.945290622225 C 400.60118879252576 723.945290622225 402.8397650433718 726.183866873071 402.8397650433718 728.945290622225 Z" stroke-opacity="1" stroke-linecap="round" stroke-linejoin="round" stroke-miterlimit="10"/><path fill="rgb(21,101,192)" stroke="none" paint-order="stroke fill markers" d=" M 436.9904378116254 728.945290622225 C 436.9904378116254 731.706714371379 434.75186156077933 733.945290622225 431.9904378116254 733.945290622225 C 429.22901406247144 733.945290622225 426.9904378116254 731.706714371379 426.9904378116254 728.945290622225 C 426.9904378116254 726.183866873071 429.22901406247144 723.945290622225 431.9904378116254 723.945290622225 C 434.75186156077933 723.945290622225 436.9904378116254 726.183866873071 436.9904378116254 728.945290622225 Z" fill-opacity="1"/><path fill="none" stroke="rgb(0,0,0)" paint-order="fill stroke markers" d=" M 436.9904378116254 728.945290622225 C 436.9904378116254 731.706714371379 434.75186156077933 733.945290622225 431.9904378116254 733.945290622225 C 429.22901406247144 733.945290622225 426.9904378116254 731.706714371379 426.9904378116254 728.945290622225 C 426.9904378116254 726.183866873071 429.22901406247144 723.945290622225 431.9904378116254 723.945290622225 C 434.75186156077933 723.945290622225 436.9904378116254 726.183866873071 436.9904378116254 728.945290622225 Z" stroke-opacity="1" stroke-linecap="round" stroke-linejoin="round" stroke-miterlimit="10"/><path fill="rgb(21,101,192)" stroke="none" paint-order="stroke fill markers" d=" M 471.1411105798789 728.945290622225 C 471.1411105798789 731.706714371379 468.90253432903285 733.945290622225 466.1411105798789 733.945290622225 C 463.37968683072495 733.945290622225 461.1411105798789 731.706714371379 461.1411105798789 728.945290622225 C 461.1411105798789 726.183866873071 463.37968683072495 723.945290622225 466.1411105798789 723.945290622225 C 468.90253432903285 723.945290622225 471.1411105798789 726.183866873071 471.1411105798789 728.945290622225 Z" fill-opacity="1"/><path fill="none" stroke="rgb(0,0,0)" paint-order="fill stroke markers" d=" M 471.1411105798789 728.945290622225 C 471.1411105798789 731.706714371379 468.90253432903285 733.945290622225 466.1411105798789 733.945290622225 C 463.37968683072495 733.945290622225 461.1411105798789 731.706714371379 461.1411105798789 728.945290622225 C 461.1411105798789 726.183866873071 463.37968683072495 723.945290622225 466.1411105798789 723.945290622225 C 468.90253432903285 723.945290622225 471.1411105798789 726.183866873071 471.1411105798789 728.945290622225 Z" stroke-opacity="1" stroke-linecap="round" stroke-linejoin="round" stroke-miterlimit="10"/><path fill="rgb(21,101,192)" stroke="none" paint-order="stroke fill markers" d=" M 471.1411105798789 763.0959633904786 C 471.1411105798789 765.8573871396326 468.90253432903285 768.0959633904786 466.1411105798789 768.0959633904786 C 463.37968683072495 768.0959633904786 461.1411105798789 765.8573871396326 461.1411105798789 763.0959633904786 C 461.1411105798789 760.3345396413246 463.37968683072495 758.0959633904786 466.1411105798789 758.0959633904786 C 468.90253432903285 758.0959633904786 471.1411105798789 760.3345396413246 471.1411105798789 763.0959633904786 Z" fill-opacity="1"/><path fill="none" stroke="rgb(0,0,0)" paint-order="fill stroke markers" d=" M 471.1411105798789 763.0959633904786 C 471.1411105798789 765.8573871396326 468.90253432903285 768.0959633904786 466.1411105798789 768.0959633904786 C 463.37968683072495 768.0959633904786 461.1411105798789 765.8573871396326 461.1411105798789 763.0959633904786 C 461.1411105798789 760.3345396413246 463.37968683072495 758.0959633904786 466.1411105798789 758.0959633904786 C 468.90253432903285 758.0959633904786 471.1411105798789 760.3345396413246 471.1411105798789 763.0959633904786 Z" stroke-opacity="1" stroke-linecap="round" stroke-linejoin="round" stroke-miterlimit="10"/><path fill="rgb(21,101,192)" stroke="none" paint-order="stroke fill markers" d=" M 471.1411105798789 797.246636158732 C 471.1411105798789 800.008059907886 468.90253432903285 802.246636158732 466.1411105798789 802.246636158732 C 463.37968683072495 802.246636158732 461.1411105798789 800.008059907886 461.1411105798789 797.246636158732 C 461.1411105798789 794.485212409578 463.37968683072495 792.246636158732 466.1411105798789 792.246636158732 C 468.90253432903285 792.246636158732 471.1411105798789 794.485212409578 471.1411105798789 797.246636158732 Z" fill-opacity="1"/><path fill="none" stroke="rgb(0,0,0)" paint-order="fill stroke markers" d=" M 471.1411105798789 797.246636158732 C 471.1411105798789 800.008059907886 468.90253432903285 802.246636158732 466.1411105798789 802.246636158732 C 463.37968683072495 802.246636158732 461.1411105798789 800.008059907886 461.1411105798789 797.246636158732 C 461.1411105798789 794.485212409578 463.37968683072495 792.246636158732 466.1411105798789 792.246636158732 C 468.90253432903285 792.246636158732 471.1411105798789 794.485212409578 471.1411105798789 797.246636158732 Z" stroke-opacity="1" stroke-linecap="round" stroke-linejoin="round" stroke-miterlimit="10"/><path fill="rgb(21,101,192)" stroke="none" paint-order="stroke fill markers" d=" M 607.7438016528931 797.246636158732 C 607.7438016528931 800.008059907886 605.5052254020471 802.246636158732 602.7438016528931 802.246636158732 C 599.9823779037391 802.246636158732 597.7438016528931 800.008059907886 597.7438016528931 797.246636158732 C 597.7438016528931 794.485212409578 599.9823779037391 792.246636158732 602.7438016528931 792.246636158732 C 605.5052254020471 792.246636158732 607.7438016528931 794.485212409578 607.7438016528931 797.246636158732 Z" fill-opacity="1"/><path fill="none" stroke="rgb(0,0,0)" paint-order="fill stroke markers" d=" M 607.7438016528931 797.246636158732 C 607.7438016528931 800.008059907886 605.5052254020471 802.246636158732 602.7438016528931 802.246636158732 C 599.9823779037391 802.246636158732 597.7438016528931 800.008059907886 597.7438016528931 797.246636158732 C 597.7438016528931 794.485212409578 599.9823779037391 792.246636158732 602.7438016528931 792.246636158732 C 605.5052254020471 792.246636158732 607.7438016528931 794.485212409578 607.7438016528931 797.246636158732 Z" stroke-opacity="1" stroke-linecap="round" stroke-linejoin="round" stroke-miterlimit="10"/><path fill="rgb(21,101,192)" stroke="none" paint-order="stroke fill markers" d=" M 607.7438016528931 763.0959633904786 C 607.7438016528931 765.8573871396326 605.5052254020471 768.0959633904786 602.7438016528931 768.0959633904786 C 599.9823779037391 768.0959633904786 597.7438016528931 765.8573871396326 597.7438016528931 763.0959633904786 C 597.7438016528931 760.3345396413246 599.9823779037391 758.0959633904786 602.7438016528931 758.0959633904786 C 605.5052254020471 758.0959633904786 607.7438016528931 760.3345396413246 607.7438016528931 763.0959633904786 Z" fill-opacity="1"/><path fill="none" stroke="rgb(0,0,0)" paint-order="fill stroke markers" d=" M 607.7438016528931 763.0959633904786 C 607.7438016528931 765.8573871396326 605.5052254020471 768.0959633904786 602.7438016528931 768.0959633904786 C 599.9823779037391 768.0959633904786 597.7438016528931 765.8573871396326 597.7438016528931 763.0959633904786 C 597.7438016528931 760.3345396413246 599.9823779037391 758.0959633904786 602.7438016528931 758.0959633904786 C 605.5052254020471 758.0959633904786 607.7438016528931 760.3345396413246 607.7438016528931 763.0959633904786 Z" stroke-opacity="1" stroke-linecap="round" stroke-linejoin="round" stroke-miterlimit="10"/><path fill="rgb(21,101,192)" stroke="none" paint-order="stroke fill markers" d=" M 641.8944744211467 763.0959633904786 C 641.8944744211467 765.8573871396326 639.6558981703007 768.0959633904786 636.8944744211467 768.0959633904786 C 634.1330506719927 768.0959633904786 631.8944744211467 765.8573871396326 631.8944744211467 763.0959633904786 C 631.8944744211467 760.3345396413246 634.1330506719927 758.0959633904786 636.8944744211467 758.0959633904786 C 639.6558981703007 758.0959633904786 641.8944744211467 760.3345396413246 641.8944744211467 763.0959633904786 Z" fill-opacity="1"/><path fill="none" stroke="rgb(0,0,0)" paint-order="fill stroke markers" d=" M 641.8944744211467 763.0959633904786 C 641.8944744211467 765.8573871396326 639.6558981703007 768.0959633904786 636.8944744211467 768.0959633904786 C 634.1330506719927 768.0959633904786 631.8944744211467 765.8573871396326 631.8944744211467 763.0959633904786 C 631.8944744211467 760.3345396413246 634.1330506719927 758.0959633904786 636.8944744211467 758.0959633904786 C 639.6558981703007 758.0959633904786 641.8944744211467 760.3345396413246 641.8944744211467 763.0959633904786 Z" stroke-opacity="1" stroke-linecap="round" stroke-linejoin="round" stroke-miterlimit="10"/><path fill="rgb(21,101,192)" stroke="none" paint-order="stroke fill markers" d=" M 641.8944744211467 797.246636158732 C 641.8944744211467 800.008059907886 639.6558981703007 802.246636158732 636.8944744211467 802.246636158732 C 634.1330506719927 802.246636158732 631.8944744211467 800.008059907886 631.8944744211467 797.246636158732 C 631.8944744211467 794.485212409578 634.1330506719927 792.246636158732 636.8944744211467 792.246636158732 C 639.6558981703007 792.246636158732 641.8944744211467 794.485212409578 641.8944744211467 797.246636158732 Z" fill-opacity="1"/><path fill="none" stroke="rgb(0,0,0)" paint-order="fill stroke markers" d=" M 641.8944744211467 797.246636158732 C 641.8944744211467 800.008059907886 639.6558981703007 802.246636158732 636.8944744211467 802.246636158732 C 634.1330506719927 802.246636158732 631.8944744211467 800.008059907886 631.8944744211467 797.246636158732 C 631.8944744211467 794.485212409578 634.1330506719927 792.246636158732 636.8944744211467 792.246636158732 C 639.6558981703007 792.246636158732 641.8944744211467 794.485212409578 641.8944744211467 797.246636158732 Z" stroke-opacity="1" stroke-linecap="round" stroke-linejoin="round" stroke-miterlimit="10"/><path fill="rgb(21,101,192)" stroke="none" paint-order="stroke fill markers" d=" M 607.7438016528931 728.945290622225 C 607.7438016528931 731.706714371379 605.5052254020471 733.945290622225 602.7438016528931 733.945290622225 C 599.9823779037391 733.945290622225 597.7438016528931 731.706714371379 597.7438016528931 728.945290622225 C 597.7438016528931 726.183866873071 599.9823779037391 723.945290622225 602.7438016528931 723.945290622225 C 605.5052254020471 723.945290622225 607.7438016528931 726.183866873071 607.7438016528931 728.945290622225 Z" fill-opacity="1"/><path fill="none" stroke="rgb(0,0,0)" paint-order="fill stroke markers" d=" M 607.7438016528931 728.945290622225 C 607.7438016528931 731.706714371379 605.5052254020471 733.945290622225 602.7438016528931 733.945290622225 C 599.9823779037391 733.945290622225 597.7438016528931 731.706714371379 597.7438016528931 728.945290622225 C 597.7438016528931 726.183866873071 599.9823779037391 723.945290622225 602.7438016528931 723.945290622225 C 605.5052254020471 723.945290622225 607.7438016528931 726.183866873071 607.7438016528931 728.945290622225 Z" stroke-opacity="1" stroke-linecap="round" stroke-linejoin="round" stroke-miterlimit="10"/><path fill="rgb(21,101,192)" stroke="none" paint-order="stroke fill markers" d=" M 641.8944744211467 728.945290622225 C 641.8944744211467 731.706714371379 639.6558981703007 733.945290622225 636.8944744211467 733.945290622225 C 634.1330506719927 733.945290622225 631.8944744211467 731.706714371379 631.8944744211467 728.945290622225 C 631.8944744211467 726.183866873071 634.1330506719927 723.945290622225 636.8944744211467 723.945290622225 C 639.6558981703007 723.945290622225 641.8944744211467 726.183866873071 641.8944744211467 728.945290622225 Z" fill-opacity="1"/><path fill="none" stroke="rgb(0,0,0)" paint-order="fill stroke markers" d=" M 641.8944744211467 728.945290622225 C 641.8944744211467 731.706714371379 639.6558981703007 733.945290622225 636.8944744211467 733.945290622225 C 634.1330506719927 733.945290622225 631.8944744211467 731.706714371379 631.8944744211467 728.945290622225 C 631.8944744211467 726.183866873071 634.1330506719927 723.945290622225 636.8944744211467 723.945290622225 C 639.6558981703007 723.945290622225 641.8944744211467 726.183866873071 641.8944744211467 728.945290622225 Z" stroke-opacity="1" stroke-linecap="round" stroke-linejoin="round" stroke-miterlimit="10"/><path fill="rgb(21,101,192)" stroke="none" paint-order="stroke fill markers" d=" M 676.0451471894003 728.945290622225 C 676.0451471894003 731.706714371379 673.8065709385543 733.945290622225 671.0451471894003 733.945290622225 C 668.2837234402463 733.945290622225 666.0451471894003 731.706714371379 666.0451471894003 728.945290622225 C 666.0451471894003 726.183866873071 668.2837234402463 723.945290622225 671.0451471894003 723.945290622225 C 673.8065709385543 723.945290622225 676.0451471894003 726.183866873071 676.0451471894003 728.945290622225 Z" fill-opacity="1"/><path fill="none" stroke="rgb(0,0,0)" paint-order="fill stroke markers" d=" M 676.0451471894003 728.945290622225 C 676.0451471894003 731.706714371379 673.8065709385543 733.945290622225 671.0451471894003 733.945290622225 C 668.2837234402463 733.945290622225 666.0451471894003 731.706714371379 666.0451471894003 728.945290622225 C 666.0451471894003 726.183866873071 668.2837234402463 723.945290622225 671.0451471894003 723.945290622225 C 673.8065709385543 723.945290622225 676.0451471894003 726.183866873071 676.0451471894003 728.945290622225 Z" stroke-opacity="1" stroke-linecap="round" stroke-linejoin="round" stroke-miterlimit="10"/><path fill="rgb(21,101,192)" stroke="none" paint-order="stroke fill markers" d=" M 676.0451471894003 763.0959633904786 C 676.0451471894003 765.8573871396326 673.8065709385543 768.0959633904786 671.0451471894003 768.0959633904786 C 668.2837234402463 768.0959633904786 666.0451471894003 765.8573871396326 666.0451471894003 763.0959633904786 C 666.0451471894003 760.3345396413246 668.2837234402463 758.0959633904786 671.0451471894003 758.0959633904786 C 673.8065709385543 758.0959633904786 676.0451471894003 760.3345396413246 676.0451471894003 763.0959633904786 Z" fill-opacity="1"/><path fill="none" stroke="rgb(0,0,0)" paint-order="fill stroke markers" d=" M 676.0451471894003 763.0959633904786 C 676.0451471894003 765.8573871396326 673.8065709385543 768.0959633904786 671.0451471894003 768.0959633904786 C 668.2837234402463 768.0959633904786 666.0451471894003 765.8573871396326 666.0451471894003 763.0959633904786 C 666.0451471894003 760.3345396413246 668.2837234402463 758.0959633904786 671.0451471894003 758.0959633904786 C 673.8065709385543 758.0959633904786 676.0451471894003 760.3345396413246 676.0451471894003 763.0959633904786 Z" stroke-opacity="1" stroke-linecap="round" stroke-linejoin="round" stroke-miterlimit="10"/><path fill="rgb(21,101,192)" stroke="none" paint-order="stroke fill markers" d=" M 676.0451471894003 797.246636158732 C 676.0451471894003 800.008059907886 673.8065709385543 802.246636158732 671.0451471894003 802.246636158732 C 668.2837234402463 802.246636158732 666.0451471894003 800.008059907886 666.0451471894003 797.246636158732 C 666.0451471894003 794.485212409578 668.2837234402463 792.246636158732 671.0451471894003 792.246636158732 C 673.8065709385543 792.246636158732 676.0451471894003 794.485212409578 676.0451471894003 797.246636158732 Z" fill-opacity="1"/><path fill="none" stroke="rgb(0,0,0)" paint-order="fill stroke markers" d=" M 676.0451471894003 797.246636158732 C 676.0451471894003 800.008059907886 673.8065709385543 802.246636158732 671.0451471894003 802.246636158732 C 668.2837234402463 802.246636158732 666.0451471894003 800.008059907886 666.0451471894003 797.246636158732 C 666.0451471894003 794.485212409578 668.2837234402463 792.246636158732 671.0451471894003 792.246636158732 C 673.8065709385543 792.246636158732 676.0451471894003 794.485212409578 676.0451471894003 797.246636158732 Z" stroke-opacity="1" stroke-linecap="round" stroke-linejoin="round" stroke-miterlimit="10"/><path fill="rgb(21,101,192)" stroke="none" paint-order="stroke fill markers" d=" M 607.7438016528931 694.7946178539715 C 607.7438016528931 697.5560416031255 605.5052254020471 699.7946178539715 602.7438016528931 699.7946178539715 C 599.9823779037391 699.7946178539715 597.7438016528931 697.5560416031255 597.7438016528931 694.7946178539715 C 597.7438016528931 692.0331941048175 599.9823779037391 689.7946178539715 602.7438016528931 689.7946178539715 C 605.5052254020471 689.7946178539715 607.7438016528931 692.0331941048175 607.7438016528931 694.7946178539715 Z" fill-opacity="1"/><path fill="none" stroke="rgb(0,0,0)" paint-order="fill stroke markers" d=" M 607.7438016528931 694.7946178539715 C 607.7438016528931 697.5560416031255 605.5052254020471 699.7946178539715 602.7438016528931 699.7946178539715 C 599.9823779037391 699.7946178539715 597.7438016528931 697.5560416031255 597.7438016528931 694.7946178539715 C 597.7438016528931 692.0331941048175 599.9823779037391 689.7946178539715 602.7438016528931 689.7946178539715 C 605.5052254020471 689.7946178539715 607.7438016528931 692.0331941048175 607.7438016528931 694.7946178539715 Z" stroke-opacity="1" stroke-linecap="round" stroke-linejoin="round" stroke-miterlimit="10"/><path fill="rgb(21,101,192)" stroke="none" paint-order="stroke fill markers" d=" M 641.8944744211467 694.7946178539715 C 641.8944744211467 697.5560416031255 639.6558981703007 699.7946178539715 636.8944744211467 699.7946178539715 C 634.1330506719927 699.7946178539715 631.8944744211467 697.5560416031255 631.8944744211467 694.7946178539715 C 631.8944744211467 692.0331941048175 634.1330506719927 689.7946178539715 636.8944744211467 689.7946178539715 C 639.6558981703007 689.7946178539715 641.8944744211467 692.0331941048175 641.8944744211467 694.7946178539715 Z" fill-opacity="1"/><path fill="none" stroke="rgb(0,0,0)" paint-order="fill stroke markers" d=" M 641.8944744211467 694.7946178539715 C 641.8944744211467 697.5560416031255 639.6558981703007 699.7946178539715 636.8944744211467 699.7946178539715 C 634.1330506719927 699.7946178539715 631.8944744211467 697.5560416031255 631.8944744211467 694.7946178539715 C 631.8944744211467 692.0331941048175 634.1330506719927 689.7946178539715 636.8944744211467 689.7946178539715 C 639.6558981703007 689.7946178539715 641.8944744211467 692.0331941048175 641.8944744211467 694.7946178539715 Z" stroke-opacity="1" stroke-linecap="round" stroke-linejoin="round" stroke-miterlimit="10"/><path fill="rgb(21,101,192)" stroke="none" paint-order="stroke fill markers" d=" M 676.0451471894003 694.7946178539715 C 676.0451471894003 697.5560416031255 673.8065709385543 699.7946178539715 671.0451471894003 699.7946178539715 C 668.2837234402463 699.7946178539715 666.0451471894003 697.5560416031255 666.0451471894003 694.7946178539715 C 666.0451471894003 692.0331941048175 668.2837234402463 689.7946178539715 671.0451471894003 689.7946178539715 C 673.8065709385543 689.7946178539715 676.0451471894003 692.0331941048175 676.0451471894003 694.7946178539715 Z" fill-opacity="1"/><path fill="none" stroke="rgb(0,0,0)" paint-order="fill stroke markers" d=" M 676.0451471894003 694.7946178539715 C 676.0451471894003 697.5560416031255 673.8065709385543 699.7946178539715 671.0451471894003 699.7946178539715 C 668.2837234402463 699.7946178539715 666.0451471894003 697.5560416031255 666.0451471894003 694.7946178539715 C 666.0451471894003 692.0331941048175 668.2837234402463 689.7946178539715 671.0451471894003 689.7946178539715 C 673.8065709385543 689.7946178539715 676.0451471894003 692.0331941048175 676.0451471894003 694.7946178539715 Z" stroke-opacity="1" stroke-linecap="round" stroke-linejoin="round" stroke-miterlimit="10"/><path fill="rgb(21,101,192)" stroke="none" paint-order="stroke fill markers" d=" M 710.1958199576538 694.7946178539715 C 710.1958199576538 697.5560416031255 707.9572437068078 699.7946178539715 705.1958199576538 699.7946178539715 C 702.4343962084998 699.7946178539715 700.1958199576538 697.5560416031255 700.1958199576538 694.7946178539715 C 700.1958199576538 692.0331941048175 702.4343962084998 689.7946178539715 705.1958199576538 689.7946178539715 C 707.9572437068078 689.7946178539715 710.1958199576538 692.0331941048175 710.1958199576538 694.7946178539715 Z" fill-opacity="1"/><path fill="none" stroke="rgb(0,0,0)" paint-order="fill stroke markers" d=" M 710.1958199576538 694.7946178539715 C 710.1958199576538 697.5560416031255 707.9572437068078 699.7946178539715 705.1958199576538 699.7946178539715 C 702.4343962084998 699.7946178539715 700.1958199576538 697.5560416031255 700.1958199576538 694.7946178539715 C 700.1958199576538 692.0331941048175 702.4343962084998 689.7946178539715 705.1958199576538 689.7946178539715 C 707.9572437068078 689.7946178539715 710.1958199576538 692.0331941048175 710.1958199576538 694.7946178539715 Z" stroke-opacity="1" stroke-linecap="round" stroke-linejoin="round" stroke-miterlimit="10"/><path fill="rgb(21,101,192)" stroke="none" paint-order="stroke fill markers" d=" M 710.1958199576538 728.945290622225 C 710.1958199576538 731.706714371379 707.9572437068078 733.945290622225 705.1958199576538 733.945290622225 C 702.4343962084998 733.945290622225 700.1958199576538 731.706714371379 700.1958199576538 728.945290622225 C 700.1958199576538 726.183866873071 702.4343962084998 723.945290622225 705.1958199576538 723.945290622225 C 707.9572437068078 723.945290622225 710.1958199576538 726.183866873071 710.1958199576538 728.945290622225 Z" fill-opacity="1"/><path fill="none" stroke="rgb(0,0,0)" paint-order="fill stroke markers" d=" M 710.1958199576538 728.945290622225 C 710.1958199576538 731.706714371379 707.9572437068078 733.945290622225 705.1958199576538 733.945290622225 C 702.4343962084998 733.945290622225 700.1958199576538 731.706714371379 700.1958199576538 728.945290622225 C 700.1958199576538 726.183866873071 702.4343962084998 723.945290622225 705.1958199576538 723.945290622225 C 707.9572437068078 723.945290622225 710.1958199576538 726.183866873071 710.1958199576538 728.945290622225 Z" stroke-opacity="1" stroke-linecap="round" stroke-linejoin="round" stroke-miterlimit="10"/><path fill="rgb(21,101,192)" stroke="none" paint-order="stroke fill markers" d=" M 710.1958199576538 763.0959633904786 C 710.1958199576538 765.8573871396326 707.9572437068078 768.0959633904786 705.1958199576538 768.0959633904786 C 702.4343962084998 768.0959633904786 700.1958199576538 765.8573871396326 700.1958199576538 763.0959633904786 C 700.1958199576538 760.3345396413246 702.4343962084998 758.0959633904786 705.1958199576538 758.0959633904786 C 707.9572437068078 758.0959633904786 710.1958199576538 760.3345396413246 710.1958199576538 763.0959633904786 Z" fill-opacity="1"/><path fill="none" stroke="rgb(0,0,0)" paint-order="fill stroke markers" d=" M 710.1958199576538 763.0959633904786 C 710.1958199576538 765.8573871396326 707.9572437068078 768.0959633904786 705.1958199576538 768.0959633904786 C 702.4343962084998 768.0959633904786 700.1958199576538 765.8573871396326 700.1958199576538 763.0959633904786 C 700.1958199576538 760.3345396413246 702.4343962084998 758.0959633904786 705.1958199576538 758.0959633904786 C 707.9572437068078 758.0959633904786 710.1958199576538 760.3345396413246 710.1958199576538 763.0959633904786 Z" stroke-opacity="1" stroke-linecap="round" stroke-linejoin="round" stroke-miterlimit="10"/><path fill="rgb(21,101,192)" stroke="none" paint-order="stroke fill markers" d=" M 710.1958199576538 797.246636158732 C 710.1958199576538 800.008059907886 707.9572437068078 802.246636158732 705.1958199576538 802.246636158732 C 702.4343962084998 802.246636158732 700.1958199576538 800.008059907886 700.1958199576538 797.246636158732 C 700.1958199576538 794.485212409578 702.4343962084998 792.246636158732 705.1958199576538 792.246636158732 C 707.9572437068078 792.246636158732 710.1958199576538 794.485212409578 710.1958199576538 797.246636158732 Z" fill-opacity="1"/><path fill="none" stroke="rgb(0,0,0)" paint-order="fill stroke markers" d=" M 710.1958199576538 797.246636158732 C 710.1958199576538 800.008059907886 707.9572437068078 802.246636158732 705.1958199576538 802.246636158732 C 702.4343962084998 802.246636158732 700.1958199576538 800.008059907886 700.1958199576538 797.246636158732 C 700.1958199576538 794.485212409578 702.4343962084998 792.246636158732 705.1958199576538 792.246636158732 C 707.9572437068078 792.246636158732 710.1958199576538 794.485212409578 710.1958199576538 797.246636158732 Z" stroke-opacity="1" stroke-linecap="round" stroke-linejoin="round" stroke-miterlimit="10"/><path fill="rgb(21,101,192)" stroke="none" paint-order="stroke fill markers" d=" M 846.798511030668 797.246636158732 C 846.798511030668 800.008059907886 844.559934779822 802.246636158732 841.798511030668 802.246636158732 C 839.037087281514 802.246636158732 836.798511030668 800.008059907886 836.798511030668 797.246636158732 C 836.798511030668 794.485212409578 839.037087281514 792.246636158732 841.798511030668 792.246636158732 C 844.559934779822 792.246636158732 846.798511030668 794.485212409578 846.798511030668 797.246636158732 Z" fill-opacity="1"/><path fill="none" stroke="rgb(0,0,0)" paint-order="fill stroke markers" d=" M 846.798511030668 797.246636158732 C 846.798511030668 800.008059907886 844.559934779822 802.246636158732 841.798511030668 802.246636158732 C 839.037087281514 802.246636158732 836.798511030668 800.008059907886 836.798511030668 797.246636158732 C 836.798511030668 794.485212409578 839.037087281514 792.246636158732 841.798511030668 792.246636158732 C 844.559934779822 792.246636158732 846.798511030668 794.485212409578 846.798511030668 797.246636158732 Z" stroke-opacity="1" stroke-linecap="round" stroke-linejoin="round" stroke-miterlimit="10"/><path fill="rgb(21,101,192)" stroke="none" paint-order="stroke fill markers" d=" M 846.798511030668 763.0959633904786 C 846.798511030668 765.8573871396326 844.559934779822 768.0959633904786 841.798511030668 768.0959633904786 C 839.037087281514 768.0959633904786 836.798511030668 765.8573871396326 836.798511030668 763.0959633904786 C 836.798511030668 760.3345396413246 839.037087281514 758.0959633904786 841.798511030668 758.0959633904786 C 844.559934779822 758.0959633904786 846.798511030668 760.3345396413246 846.798511030668 763.0959633904786 Z" fill-opacity="1"/><path fill="none" stroke="rgb(0,0,0)" paint-order="fill stroke markers" d=" M 846.798511030668 763.0959633904786 C 846.798511030668 765.8573871396326 844.559934779822 768.0959633904786 841.798511030668 768.0959633904786 C 839.037087281514 768.0959633904786 836.798511030668 765.8573871396326 836.798511030668 763.0959633904786 C 836.798511030668 760.3345396413246 839.037087281514 758.0959633904786 841.798511030668 758.0959633904786 C 844.559934779822 758.0959633904786 846.798511030668 760.3345396413246 846.798511030668 763.0959633904786 Z" stroke-opacity="1" stroke-linecap="round" stroke-linejoin="round" stroke-miterlimit="10"/><path fill="rgb(21,101,192)" stroke="none" paint-order="stroke fill markers" d=" M 880.9491837989216 763.0959633904786 C 880.9491837989216 765.8573871396326 878.7106075480756 768.0959633904786 875.9491837989216 768.0959633904786 C 873.1877600497676 768.0959633904786 870.9491837989216 765.8573871396326 870.9491837989216 763.0959633904786 C 870.9491837989216 760.3345396413246 873.1877600497676 758.0959633904786 875.9491837989216 758.0959633904786 C 878.7106075480756 758.0959633904786 880.9491837989216 760.3345396413246 880.9491837989216 763.0959633904786 Z" fill-opacity="1"/><path fill="none" stroke="rgb(0,0,0)" paint-order="fill stroke markers" d=" M 880.9491837989216 763.0959633904786 C 880.9491837989216 765.8573871396326 878.7106075480756 768.0959633904786 875.9491837989216 768.0959633904786 C 873.1877600497676 768.0959633904786 870.9491837989216 765.8573871396326 870.9491837989216 763.0959633904786 C 870.9491837989216 760.3345396413246 873.1877600497676 758.0959633904786 875.9491837989216 758.0959633904786 C 878.7106075480756 758.0959633904786 880.9491837989216 760.3345396413246 880.9491837989216 763.0959633904786 Z" stroke-opacity="1" stroke-linecap="round" stroke-linejoin="round" stroke-miterlimit="10"/><path fill="rgb(21,101,192)" stroke="none" paint-order="stroke fill markers" d=" M 880.9491837989216 797.246636158732 C 880.9491837989216 800.008059907886 878.7106075480756 802.246636158732 875.9491837989216 802.246636158732 C 873.1877600497676 802.246636158732 870.9491837989216 800.008059907886 870.9491837989216 797.246636158732 C 870.9491837989216 794.485212409578 873.1877600497676 792.246636158732 875.9491837989216 792.246636158732 C 878.7106075480756 792.246636158732 880.9491837989216 794.485212409578 880.9491837989216 797.246636158732 Z" fill-opacity="1"/><path fill="none" stroke="rgb(0,0,0)" paint-order="fill stroke markers" d=" M 880.9491837989216 797.246636158732 C 880.9491837989216 800.008059907886 878.7106075480756 802.246636158732 875.9491837989216 802.246636158732 C 873.1877600497676 802.246636158732 870.9491837989216 800.008059907886 870.9491837989216 797.246636158732 C 870.9491837989216 794.485212409578 873.1877600497676 792.246636158732 875.9491837989216 792.246636158732 C 878.7106075480756 792.246636158732 880.9491837989216 794.485212409578 880.9491837989216 797.246636158732 Z" stroke-opacity="1" stroke-linecap="round" stroke-linejoin="round" stroke-miterlimit="10"/><path fill="rgb(21,101,192)" stroke="none" paint-order="stroke fill markers" d=" M 846.798511030668 728.945290622225 C 846.798511030668 731.706714371379 844.559934779822 733.945290622225 841.798511030668 733.945290622225 C 839.037087281514 733.945290622225 836.798511030668 731.706714371379 836.798511030668 728.945290622225 C 836.798511030668 726.183866873071 839.037087281514 723.945290622225 841.798511030668 723.945290622225 C 844.559934779822 723.945290622225 846.798511030668 726.183866873071 846.798511030668 728.945290622225 Z" fill-opacity="1"/><path fill="none" stroke="rgb(0,0,0)" paint-order="fill stroke markers" d=" M 846.798511030668 728.945290622225 C 846.798511030668 731.706714371379 844.559934779822 733.945290622225 841.798511030668 733.945290622225 C 839.037087281514 733.945290622225 836.798511030668 731.706714371379 836.798511030668 728.945290622225 C 836.798511030668 726.183866873071 839.037087281514 723.945290622225 841.798511030668 723.945290622225 C 844.559934779822 723.945290622225 846.798511030668 726.183866873071 846.798511030668 728.945290622225 Z" stroke-opacity="1" stroke-linecap="round" stroke-linejoin="round" stroke-miterlimit="10"/><path fill="rgb(21,101,192)" stroke="none" paint-order="stroke fill markers" d=" M 880.9491837989216 728.945290622225 C 880.9491837989216 731.706714371379 878.7106075480756 733.945290622225 875.9491837989216 733.945290622225 C 873.1877600497676 733.945290622225 870.9491837989216 731.706714371379 870.9491837989216 728.945290622225 C 870.9491837989216 726.183866873071 873.1877600497676 723.945290622225 875.9491837989216 723.945290622225 C 878.7106075480756 723.945290622225 880.9491837989216 726.183866873071 880.9491837989216 728.945290622225 Z" fill-opacity="1"/><path fill="none" stroke="rgb(0,0,0)" paint-order="fill stroke markers" d=" M 880.9491837989216 728.945290622225 C 880.9491837989216 731.706714371379 878.7106075480756 733.945290622225 875.9491837989216 733.945290622225 C 873.1877600497676 733.945290622225 870.9491837989216 731.706714371379 870.9491837989216 728.945290622225 C 870.9491837989216 726.183866873071 873.1877600497676 723.945290622225 875.9491837989216 723.945290622225 C 878.7106075480756 723.945290622225 880.9491837989216 726.183866873071 880.9491837989216 728.945290622225 Z" stroke-opacity="1" stroke-linecap="round" stroke-linejoin="round" stroke-miterlimit="10"/><path fill="rgb(21,101,192)" stroke="none" paint-order="stroke fill markers" d=" M 915.0998565671752 728.945290622225 C 915.0998565671752 731.706714371379 912.8612803163292 733.945290622225 910.0998565671752 733.945290622225 C 907.3384328180211 733.945290622225 905.0998565671752 731.706714371379 905.0998565671752 728.945290622225 C 905.0998565671752 726.183866873071 907.3384328180211 723.945290622225 910.0998565671752 723.945290622225 C 912.8612803163292 723.945290622225 915.0998565671752 726.183866873071 915.0998565671752 728.945290622225 Z" fill-opacity="1"/><path fill="none" stroke="rgb(0,0,0)" paint-order="fill stroke markers" d=" M 915.0998565671752 728.945290622225 C 915.0998565671752 731.706714371379 912.8612803163292 733.945290622225 910.0998565671752 733.945290622225 C 907.3384328180211 733.945290622225 905.0998565671752 731.706714371379 905.0998565671752 728.945290622225 C 905.0998565671752 726.183866873071 907.3384328180211 723.945290622225 910.0998565671752 723.945290622225 C 912.8612803163292 723.945290622225 915.0998565671752 726.183866873071 915.0998565671752 728.945290622225 Z" stroke-opacity="1" stroke-linecap="round" stroke-linejoin="round" stroke-miterlimit="10"/><path fill="rgb(21,101,192)" stroke="none" paint-order="stroke fill markers" d=" M 915.0998565671752 763.0959633904786 C 915.0998565671752 765.8573871396326 912.8612803163292 768.0959633904786 910.0998565671752 768.0959633904786 C 907.3384328180211 768.0959633904786 905.0998565671752 765.8573871396326 905.0998565671752 763.0959633904786 C 905.0998565671752 760.3345396413246 907.3384328180211 758.0959633904786 910.0998565671752 758.0959633904786 C 912.8612803163292 758.0959633904786 915.0998565671752 760.3345396413246 915.0998565671752 763.0959633904786 Z" fill-opacity="1"/><path fill="none" stroke="rgb(0,0,0)" paint-order="fill stroke markers" d=" M 915.0998565671752 763.0959633904786 C 915.0998565671752 765.8573871396326 912.8612803163292 768.0959633904786 910.0998565671752 768.0959633904786 C 907.3384328180211 768.0959633904786 905.0998565671752 765.8573871396326 905.0998565671752 763.0959633904786 C 905.0998565671752 760.3345396413246 907.3384328180211 758.0959633904786 910.0998565671752 758.0959633904786 C 912.8612803163292 758.0959633904786 915.0998565671752 760.3345396413246 915.0998565671752 763.0959633904786 Z" stroke-opacity="1" stroke-linecap="round" stroke-linejoin="round" stroke-miterlimit="10"/><path fill="rgb(21,101,192)" stroke="none" paint-order="stroke fill markers" d=" M 915.0998565671752 797.246636158732 C 915.0998565671752 800.008059907886 912.8612803163292 802.246636158732 910.0998565671752 802.246636158732 C 907.3384328180211 802.246636158732 905.0998565671752 800.008059907886 905.0998565671752 797.246636158732 C 905.0998565671752 794.485212409578 907.3384328180211 792.246636158732 910.0998565671752 792.246636158732 C 912.8612803163292 792.246636158732 915.0998565671752 794.485212409578 915.0998565671752 797.246636158732 Z" fill-opacity="1"/><path fill="none" stroke="rgb(0,0,0)" paint-order="fill stroke markers" d=" M 915.0998565671752 797.246636158732 C 915.0998565671752 800.008059907886 912.8612803163292 802.246636158732 910.0998565671752 802.246636158732 C 907.3384328180211 802.246636158732 905.0998565671752 800.008059907886 905.0998565671752 797.246636158732 C 905.0998565671752 794.485212409578 907.3384328180211 792.246636158732 910.0998565671752 792.246636158732 C 912.8612803163292 792.246636158732 915.0998565671752 794.485212409578 915.0998565671752 797.246636158732 Z" stroke-opacity="1" stroke-linecap="round" stroke-linejoin="round" stroke-miterlimit="10"/><path fill="rgb(21,101,192)" stroke="none" paint-order="stroke fill markers" d=" M 846.798511030668 694.7946178539715 C 846.798511030668 697.5560416031255 844.559934779822 699.7946178539715 841.798511030668 699.7946178539715 C 839.037087281514 699.7946178539715 836.798511030668 697.5560416031255 836.798511030668 694.7946178539715 C 836.798511030668 692.0331941048175 839.037087281514 689.7946178539715 841.798511030668 689.7946178539715 C 844.559934779822 689.7946178539715 846.798511030668 692.0331941048175 846.798511030668 694.7946178539715 Z" fill-opacity="1"/><path fill="none" stroke="rgb(0,0,0)" paint-order="fill stroke markers" d=" M 846.798511030668 694.7946178539715 C 846.798511030668 697.5560416031255 844.559934779822 699.7946178539715 841.798511030668 699.7946178539715 C 839.037087281514 699.7946178539715 836.798511030668 697.5560416031255 836.798511030668 694.7946178539715 C 836.798511030668 692.0331941048175 839.037087281514 689.7946178539715 841.798511030668 689.7946178539715 C 844.559934779822 689.7946178539715 846.798511030668 692.0331941048175 846.798511030668 694.7946178539715 Z" stroke-opacity="1" stroke-linecap="round" stroke-linejoin="round" stroke-miterlimit="10"/><path fill="rgb(21,101,192)" stroke="none" paint-order="stroke fill markers" d=" M 880.9491837989216 694.7946178539715 C 880.9491837989216 697.5560416031255 878.7106075480756 699.7946178539715 875.9491837989216 699.7946178539715 C 873.1877600497676 699.7946178539715 870.9491837989216 697.5560416031255 870.9491837989216 694.7946178539715 C 870.9491837989216 692.0331941048175 873.1877600497676 689.7946178539715 875.9491837989216 689.7946178539715 C 878.7106075480756 689.7946178539715 880.9491837989216 692.0331941048175 880.9491837989216 694.7946178539715 Z" fill-opacity="1"/><path fill="none" stroke="rgb(0,0,0)" paint-order="fill stroke markers" d=" M 880.9491837989216 694.7946178539715 C 880.9491837989216 697.5560416031255 878.7106075480756 699.7946178539715 875.9491837989216 699.7946178539715 C 873.1877600497676 699.7946178539715 870.9491837989216 697.5560416031255 870.9491837989216 694.7946178539715 C 870.9491837989216 692.0331941048175 873.1877600497676 689.7946178539715 875.9491837989216 689.7946178539715 C 878.7106075480756 689.7946178539715 880.9491837989216 692.0331941048175 880.9491837989216 694.7946178539715 Z" stroke-opacity="1" stroke-linecap="round" stroke-linejoin="round" stroke-miterlimit="10"/><path fill="rgb(21,101,192)" stroke="none" paint-order="stroke fill markers" d=" M 915.0998565671752 694.7946178539715 C 915.0998565671752 697.5560416031255 912.8612803163292 699.7946178539715 910.0998565671752 699.7946178539715 C 907.3384328180211 699.7946178539715 905.0998565671752 697.5560416031255 905.0998565671752 694.7946178539715 C 905.0998565671752 692.0331941048175 907.3384328180211 689.7946178539715 910.0998565671752 689.7946178539715 C 912.8612803163292 689.7946178539715 915.0998565671752 692.0331941048175 915.0998565671752 694.7946178539715 Z" fill-opacity="1"/><path fill="none" stroke="rgb(0,0,0)" paint-order="fill stroke markers" d=" M 915.0998565671752 694.7946178539715 C 915.0998565671752 697.5560416031255 912.8612803163292 699.7946178539715 910.0998565671752 699.7946178539715 C 907.3384328180211 699.7946178539715 905.0998565671752 697.5560416031255 905.0998565671752 694.7946178539715 C 905.0998565671752 692.0331941048175 907.3384328180211 689.7946178539715 910.0998565671752 689.7946178539715 C 912.8612803163292 689.7946178539715 915.0998565671752 692.0331941048175 915.0998565671752 694.7946178539715 Z" stroke-opacity="1" stroke-linecap="round" stroke-linejoin="round" stroke-miterlimit="10"/><path fill="rgb(21,101,192)" stroke="none" paint-order="stroke fill markers" d=" M 949.2505293354287 694.7946178539715 C 949.2505293354287 697.5560416031255 947.0119530845827 699.7946178539715 944.2505293354287 699.7946178539715 C 941.4891055862747 699.7946178539715 939.2505293354287 697.5560416031255 939.2505293354287 694.7946178539715 C 939.2505293354287 692.0331941048175 941.4891055862747 689.7946178539715 944.2505293354287 689.7946178539715 C 947.0119530845827 689.7946178539715 949.2505293354287 692.0331941048175 949.2505293354287 694.7946178539715 Z" fill-opacity="1"/><path fill="none" stroke="rgb(0,0,0)" paint-order="fill stroke markers" d=" M 949.2505293354287 694.7946178539715 C 949.2505293354287 697.5560416031255 947.0119530845827 699.7946178539715 944.2505293354287 699.7946178539715 C 941.4891055862747 699.7946178539715 939.2505293354287 697.5560416031255 939.2505293354287 694.7946178539715 C 939.2505293354287 692.0331941048175 941.4891055862747 689.7946178539715 944.2505293354287 689.7946178539715 C 947.0119530845827 689.7946178539715 949.2505293354287 692.0331941048175 949.2505293354287 694.7946178539715 Z" stroke-opacity="1" stroke-linecap="round" stroke-linejoin="round" stroke-miterlimit="10"/><path fill="rgb(21,101,192)" stroke="none" paint-order="stroke fill markers" d=" M 949.2505293354287 728.945290622225 C 949.2505293354287 731.706714371379 947.0119530845827 733.945290622225 944.2505293354287 733.945290622225 C 941.4891055862747 733.945290622225 939.2505293354287 731.706714371379 939.2505293354287 728.945290622225 C 939.2505293354287 726.183866873071 941.4891055862747 723.945290622225 944.2505293354287 723.945290622225 C 947.0119530845827 723.945290622225 949.2505293354287 726.183866873071 949.2505293354287 728.945290622225 Z" fill-opacity="1"/><path fill="none" stroke="rgb(0,0,0)" paint-order="fill stroke markers" d=" M 949.2505293354287 728.945290622225 C 949.2505293354287 731.706714371379 947.0119530845827 733.945290622225 944.2505293354287 733.945290622225 C 941.4891055862747 733.945290622225 939.2505293354287 731.706714371379 939.2505293354287 728.945290622225 C 939.2505293354287 726.183866873071 941.4891055862747 723.945290622225 944.2505293354287 723.945290622225 C 947.0119530845827 723.945290622225 949.2505293354287 726.183866873071 949.2505293354287 728.945290622225 Z" stroke-opacity="1" stroke-linecap="round" stroke-linejoin="round" stroke-miterlimit="10"/><path fill="rgb(21,101,192)" stroke="none" paint-order="stroke fill markers" d=" M 949.2505293354287 763.0959633904786 C 949.2505293354287 765.8573871396326 947.0119530845827 768.0959633904786 944.2505293354287 768.0959633904786 C 941.4891055862747 768.0959633904786 939.2505293354287 765.8573871396326 939.2505293354287 763.0959633904786 C 939.2505293354287 760.3345396413246 941.4891055862747 758.0959633904786 944.2505293354287 758.0959633904786 C 947.0119530845827 758.0959633904786 949.2505293354287 760.3345396413246 949.2505293354287 763.0959633904786 Z" fill-opacity="1"/><path fill="none" stroke="rgb(0,0,0)" paint-order="fill stroke markers" d=" M 949.2505293354287 763.0959633904786 C 949.2505293354287 765.8573871396326 947.0119530845827 768.0959633904786 944.2505293354287 768.0959633904786 C 941.4891055862747 768.0959633904786 939.2505293354287 765.8573871396326 939.2505293354287 763.0959633904786 C 939.2505293354287 760.3345396413246 941.4891055862747 758.0959633904786 944.2505293354287 758.0959633904786 C 947.0119530845827 758.0959633904786 949.2505293354287 760.3345396413246 949.2505293354287 763.0959633904786 Z" stroke-opacity="1" stroke-linecap="round" stroke-linejoin="round" stroke-miterlimit="10"/><path fill="rgb(21,101,192)" stroke="none" paint-order="stroke fill markers" d=" M 949.2505293354287 797.246636158732 C 949.2505293354287 800.008059907886 947.0119530845827 802.246636158732 944.2505293354287 802.246636158732 C 941.4891055862747 802.246636158732 939.2505293354287 800.008059907886 939.2505293354287 797.246636158732 C 939.2505293354287 794.485212409578 941.4891055862747 792.246636158732 944.2505293354287 792.246636158732 C 947.0119530845827 792.246636158732 949.2505293354287 794.485212409578 949.2505293354287 797.246636158732 Z" fill-opacity="1"/><path fill="none" stroke="rgb(0,0,0)" paint-order="fill stroke markers" d=" M 949.2505293354287 797.246636158732 C 949.2505293354287 800.008059907886 947.0119530845827 802.246636158732 944.2505293354287 802.246636158732 C 941.4891055862747 802.246636158732 939.2505293354287 800.008059907886 939.2505293354287 797.246636158732 C 939.2505293354287 794.485212409578 941.4891055862747 792.246636158732 944.2505293354287 792.246636158732 C 947.0119530845827 792.246636158732 949.2505293354287 794.485212409578 949.2505293354287 797.246636158732 Z" stroke-opacity="1" stroke-linecap="round" stroke-linejoin="round" stroke-miterlimit="10"/><path fill="rgb(21,101,192)" stroke="none" paint-order="stroke fill markers" d=" M 846.798511030668 660.6439450857181 C 846.798511030668 663.4053688348721 844.559934779822 665.6439450857181 841.798511030668 665.6439450857181 C 839.037087281514 665.6439450857181 836.798511030668 663.4053688348721 836.798511030668 660.6439450857181 C 836.798511030668 657.8825213365641 839.037087281514 655.6439450857181 841.798511030668 655.6439450857181 C 844.559934779822 655.6439450857181 846.798511030668 657.8825213365641 846.798511030668 660.6439450857181 Z" fill-opacity="1"/><path fill="none" stroke="rgb(0,0,0)" paint-order="fill stroke markers" d=" M 846.798511030668 660.6439450857181 C 846.798511030668 663.4053688348721 844.559934779822 665.6439450857181 841.798511030668 665.6439450857181 C 839.037087281514 665.6439450857181 836.798511030668 663.4053688348721 836.798511030668 660.6439450857181 C 836.798511030668 657.8825213365641 839.037087281514 655.6439450857181 841.798511030668 655.6439450857181 C 844.559934779822 655.6439450857181 846.798511030668 657.8825213365641 846.798511030668 660.6439450857181 Z" stroke-opacity="1" stroke-linecap="round" stroke-linejoin="round" stroke-miterlimit="10"/><path fill="rgb(21,101,192)" stroke="none" paint-order="stroke fill markers" d=" M 880.9491837989216 660.6439450857181 C 880.9491837989216 663.4053688348721 878.7106075480756 665.6439450857181 875.9491837989216 665.6439450857181 C 873.1877600497676 665.6439450857181 870.9491837989216 663.4053688348721 870.9491837989216 660.6439450857181 C 870.9491837989216 657.8825213365641 873.1877600497676 655.6439450857181 875.9491837989216 655.6439450857181 C 878.7106075480756 655.6439450857181 880.9491837989216 657.8825213365641 880.9491837989216 660.6439450857181 Z" fill-opacity="1"/><path fill="none" stroke="rgb(0,0,0)" paint-order="fill stroke markers" d=" M 880.9491837989216 660.6439450857181 C 880.9491837989216 663.4053688348721 878.7106075480756 665.6439450857181 875.9491837989216 665.6439450857181 C 873.1877600497676 665.6439450857181 870.9491837989216 663.4053688348721 870.9491837989216 660.6439450857181 C 870.9491837989216 657.8825213365641 873.1877600497676 655.6439450857181 875.9491837989216 655.6439450857181 C 878.7106075480756 655.6439450857181 880.9491837989216 657.8825213365641 880.9491837989216 660.6439450857181 Z" stroke-opacity="1" stroke-linecap="round" stroke-linejoin="round" stroke-miterlimit="10"/><path fill="rgb(21,101,192)" stroke="none" paint-order="stroke fill markers" d=" M 915.0998565671752 660.6439450857181 C 915.0998565671752 663.4053688348721 912.8612803163292 665.6439450857181 910.0998565671752 665.6439450857181 C 907.3384328180211 665.6439450857181 905.0998565671752 663.4053688348721 905.0998565671752 660.6439450857181 C 905.0998565671752 657.8825213365641 907.3384328180211 655.6439450857181 910.0998565671752 655.6439450857181 C 912.8612803163292 655.6439450857181 915.0998565671752 657.8825213365641 915.0998565671752 660.6439450857181 Z" fill-opacity="1"/><path fill="none" stroke="rgb(0,0,0)" paint-order="fill stroke markers" d=" M 915.0998565671752 660.6439450857181 C 915.0998565671752 663.4053688348721 912.8612803163292 665.6439450857181 910.0998565671752 665.6439450857181 C 907.3384328180211 665.6439450857181 905.0998565671752 663.4053688348721 905.0998565671752 660.6439450857181 C 905.0998565671752 657.8825213365641 907.3384328180211 655.6439450857181 910.0998565671752 655.6439450857181 C 912.8612803163292 655.6439450857181 915.0998565671752 657.8825213365641 915.0998565671752 660.6439450857181 Z" stroke-opacity="1" stroke-linecap="round" stroke-linejoin="round" stroke-miterlimit="10"/><path fill="rgb(21,101,192)" stroke="none" paint-order="stroke fill markers" d=" M 949.2505293354287 660.6439450857181 C 949.2505293354287 663.4053688348721 947.0119530845827 665.6439450857181 944.2505293354287 665.6439450857181 C 941.4891055862747 665.6439450857181 939.2505293354287 663.4053688348721 939.2505293354287 660.6439450857181 C 939.2505293354287 657.8825213365641 941.4891055862747 655.6439450857181 944.2505293354287 655.6439450857181 C 947.0119530845827 655.6439450857181 949.2505293354287 657.8825213365641 949.2505293354287 660.6439450857181 Z" fill-opacity="1"/><path fill="none" stroke="rgb(0,0,0)" paint-order="fill stroke markers" d=" M 949.2505293354287 660.6439450857181 C 949.2505293354287 663.4053688348721 947.0119530845827 665.6439450857181 944.2505293354287 665.6439450857181 C 941.4891055862747 665.6439450857181 939.2505293354287 663.4053688348721 939.2505293354287 660.6439450857181 C 939.2505293354287 657.8825213365641 941.4891055862747 655.6439450857181 944.2505293354287 655.6439450857181 C 947.0119530845827 655.6439450857181 949.2505293354287 657.8825213365641 949.2505293354287 660.6439450857181 Z" stroke-opacity="1" stroke-linecap="round" stroke-linejoin="round" stroke-miterlimit="10"/><path fill="rgb(21,101,192)" stroke="none" paint-order="stroke fill markers" d=" M 983.4012021036823 660.6439450857181 C 983.4012021036823 663.4053688348721 981.1626258528363 665.6439450857181 978.4012021036823 665.6439450857181 C 975.6397783545283 665.6439450857181 973.4012021036823 663.4053688348721 973.4012021036823 660.6439450857181 C 973.4012021036823 657.8825213365641 975.6397783545283 655.6439450857181 978.4012021036823 655.6439450857181 C 981.1626258528363 655.6439450857181 983.4012021036823 657.8825213365641 983.4012021036823 660.6439450857181 Z" fill-opacity="1"/><path fill="none" stroke="rgb(0,0,0)" paint-order="fill stroke markers" d=" M 983.4012021036823 660.6439450857181 C 983.4012021036823 663.4053688348721 981.1626258528363 665.6439450857181 978.4012021036823 665.6439450857181 C 975.6397783545283 665.6439450857181 973.4012021036823 663.4053688348721 973.4012021036823 660.6439450857181 C 973.4012021036823 657.8825213365641 975.6397783545283 655.6439450857181 978.4012021036823 655.6439450857181 C 981.1626258528363 655.6439450857181 983.4012021036823 657.8825213365641 983.4012021036823 660.6439450857181 Z" stroke-opacity="1" stroke-linecap="round" stroke-linejoin="round" stroke-miterlimit="10"/><path fill="rgb(21,101,192)" stroke="none" paint-order="stroke fill markers" d=" M 983.4012021036823 694.7946178539715 C 983.4012021036823 697.5560416031255 981.1626258528363 699.7946178539715 978.4012021036823 699.7946178539715 C 975.6397783545283 699.7946178539715 973.4012021036823 697.5560416031255 973.4012021036823 694.7946178539715 C 973.4012021036823 692.0331941048175 975.6397783545283 689.7946178539715 978.4012021036823 689.7946178539715 C 981.1626258528363 689.7946178539715 983.4012021036823 692.0331941048175 983.4012021036823 694.7946178539715 Z" fill-opacity="1"/><path fill="none" stroke="rgb(0,0,0)" paint-order="fill stroke markers" d=" M 983.4012021036823 694.7946178539715 C 983.4012021036823 697.5560416031255 981.1626258528363 699.7946178539715 978.4012021036823 699.7946178539715 C 975.6397783545283 699.7946178539715 973.4012021036823 697.5560416031255 973.4012021036823 694.7946178539715 C 973.4012021036823 692.0331941048175 975.6397783545283 689.7946178539715 978.4012021036823 689.7946178539715 C 981.1626258528363 689.7946178539715 983.4012021036823 692.0331941048175 983.4012021036823 694.7946178539715 Z" stroke-opacity="1" stroke-linecap="round" stroke-linejoin="round" stroke-miterlimit="10"/><path fill="rgb(21,101,192)" stroke="none" paint-order="stroke fill markers" d=" M 983.4012021036823 728.945290622225 C 983.4012021036823 731.706714371379 981.1626258528363 733.945290622225 978.4012021036823 733.945290622225 C 975.6397783545283 733.945290622225 973.4012021036823 731.706714371379 973.4012021036823 728.945290622225 C 973.4012021036823 726.183866873071 975.6397783545283 723.945290622225 978.4012021036823 723.945290622225 C 981.1626258528363 723.945290622225 983.4012021036823 726.183866873071 983.4012021036823 728.945290622225 Z" fill-opacity="1"/><path fill="none" stroke="rgb(0,0,0)" paint-order="fill stroke markers" d=" M 983.4012021036823 728.945290622225 C 983.4012021036823 731.706714371379 981.1626258528363 733.945290622225 978.4012021036823 733.945290622225 C 975.6397783545283 733.945290622225 973.4012021036823 731.706714371379 973.4012021036823 728.945290622225 C 973.4012021036823 726.183866873071 975.6397783545283 723.945290622225 978.4012021036823 723.945290622225 C 981.1626258528363 723.945290622225 983.4012021036823 726.183866873071 983.4012021036823 728.945290622225 Z" stroke-opacity="1" stroke-linecap="round" stroke-linejoin="round" stroke-miterlimit="10"/><path fill="rgb(21,101,192)" stroke="none" paint-order="stroke fill markers" d=" M 983.4012021036823 763.0959633904786 C 983.4012021036823 765.8573871396326 981.1626258528363 768.0959633904786 978.4012021036823 768.0959633904786 C 975.6397783545283 768.0959633904786 973.4012021036823 765.8573871396326 973.4012021036823 763.0959633904786 C 973.4012021036823 760.3345396413246 975.6397783545283 758.0959633904786 978.4012021036823 758.0959633904786 C 981.1626258528363 758.0959633904786 983.4012021036823 760.3345396413246 983.4012021036823 763.0959633904786 Z" fill-opacity="1"/><path fill="none" stroke="rgb(0,0,0)" paint-order="fill stroke markers" d=" M 983.4012021036823 763.0959633904786 C 983.4012021036823 765.8573871396326 981.1626258528363 768.0959633904786 978.4012021036823 768.0959633904786 C 975.6397783545283 768.0959633904786 973.4012021036823 765.8573871396326 973.4012021036823 763.0959633904786 C 973.4012021036823 760.3345396413246 975.6397783545283 758.0959633904786 978.4012021036823 758.0959633904786 C 981.1626258528363 758.0959633904786 983.4012021036823 760.3345396413246 983.4012021036823 763.0959633904786 Z" stroke-opacity="1" stroke-linecap="round" stroke-linejoin="round" stroke-miterlimit="10"/><path fill="rgb(21,101,192)" stroke="none" paint-order="stroke fill markers" d=" M 983.4012021036823 797.246636158732 C 983.4012021036823 800.008059907886 981.1626258528363 802.246636158732 978.4012021036823 802.246636158732 C 975.6397783545283 802.246636158732 973.4012021036823 800.008059907886 973.4012021036823 797.246636158732 C 973.4012021036823 794.485212409578 975.6397783545283 792.246636158732 978.4012021036823 792.246636158732 C 981.1626258528363 792.246636158732 983.4012021036823 794.485212409578 983.4012021036823 797.246636158732 Z" fill-opacity="1"/><path fill="none" stroke="rgb(0,0,0)" paint-order="fill stroke markers" d=" M 983.4012021036823 797.246636158732 C 983.4012021036823 800.008059907886 981.1626258528363 802.246636158732 978.4012021036823 802.246636158732 C 975.6397783545283 802.246636158732 973.4012021036823 800.008059907886 973.4012021036823 797.246636158732 C 973.4012021036823 794.485212409578 975.6397783545283 792.246636158732 978.4012021036823 792.246636158732 C 981.1626258528363 792.246636158732 983.4012021036823 794.485212409578 983.4012021036823 797.246636158732 Z" stroke-opacity="1" stroke-linecap="round" stroke-linejoin="round" stroke-miterlimit="10"/><g transform="scale(19,19)"><g transform="translate(4.631578947368421,43.96023347368421)"><path fill="rgb(0,0,0)" stroke="none" paint-order="stroke fill markers" d=" M 0.294 -0.64 L 0.294 -0.079 Q 0.294 -0.049 0.306 -0.041 Q 0.323 -0.031 0.387 -0.031 L 0.419 -0.031 L 0.419 0 Q 0.384 -0.003 0.257 -0.003 Q 0.13 -0.003 0.095 0 L 0.095 -0.031 L 0.127 -0.031 Q 0.20400000000000001 -0.031 0.215 -0.049 L 0.216 -0.05 Q 0.22 -0.058 0.22 -0.079 L 0.22 -0.597 Q 0.168 -0.5710000000000001 0.089 -0.5710000000000001 L 0.089 -0.602 Q 0.209 -0.602 0.271 -0.666 Q 0.29 -0.666 0.293 -0.659 L 0.293 -0.659 L 0.293 -0.658 Q 0.294 -0.655 0.294 -0.64 Z"/></g></g><g transform="scale(19,19)"><g transform="translate(12.736842105263158,43.96023347368421)"><path fill="rgb(0,0,0)" stroke="none" paint-order="stroke fill markers" d=" M 0.028 -0.165 L 0.028 -0.196 L 0.335 -0.665 Q 0.343 -0.677 0.355 -0.677 Q 0.369 -0.677 0.371 -0.666 L 0.371 -0.651 L 0.371 -0.196 L 0.47100000000000003 -0.196 L 0.47100000000000003 -0.165 L 0.371 -0.165 L 0.371 -0.078 Q 0.371 -0.047 0.383 -0.04 Q 0.397 -0.031 0.447 -0.031 L 0.468 -0.031 L 0.468 0 Q 0.427 -0.003 0.332 -0.003 Q 0.23800000000000002 -0.003 0.197 0 L 0.197 -0.031 L 0.218 -0.031 Q 0.28 -0.031 0.29 -0.048 Q 0.294 -0.055 0.294 -0.078 L 0.294 -0.165 L 0.028 -0.165 M 0.3 -0.196 L 0.3 -0.5690000000000001 L 0.056 -0.196 L 0.3 -0.196 Z"/></g></g><g transform="scale(19,19)"><g transform="translate(22.63157894736842,43.96023347368421)"><path fill="rgb(0,0,0)" stroke="none" paint-order="stroke fill markers" d=" M 0.367 -0.318 Q 0.327 -0.218 0.242 -0.218 Q 0.149 -0.218 0.09 -0.294 L 0.09 -0.295 Q 0.042 -0.357 0.042 -0.441 Q 0.042 -0.525 0.091 -0.586 L 0.106 -0.603 Q 0.166 -0.666 0.253 -0.666 Q 0.353 -0.666 0.40800000000000003 -0.5690000000000001 Q 0.457 -0.482 0.457 -0.329 Q 0.457 -0.158 0.365 -0.055 Q 0.296 0.022 0.20600000000000002 0.022 Q 0.108 0.022 0.077 -0.039 Q 0.067 -0.06 0.067 -0.08600000000000001 Q 0.067 -0.126 0.10400000000000001 -0.133 Q 0.109 -0.134 0.113 -0.134 Q 0.145 -0.134 0.156 -0.106 Q 0.159 -0.098 0.159 -0.088 Q 0.159 -0.048 0.11900000000000001 -0.043000000000000003 Q 0.113 -0.042 0.107 -0.042 Q 0.136 -0.006 0.20500000000000002 -0.006 Q 0.276 -0.006 0.321 -0.077 Q 0.367 -0.15 0.367 -0.28600000000000003 L 0.367 -0.318 M 0.243 -0.241 Q 0.321 -0.241 0.352 -0.333 Q 0.365 -0.374 0.365 -0.421 Q 0.365 -0.519 0.34900000000000003 -0.562 Q 0.323 -0.632 0.266 -0.64 Q 0.259 -0.641 0.253 -0.641 Q 0.187 -0.641 0.153 -0.578 Q 0.132 -0.541 0.132 -0.452 L 0.132 -0.44 Q 0.132 -0.341 0.15 -0.304 Q 0.181 -0.241 0.243 -0.241 Z"/></g></g><g transform="scale(19,19)"><g transform="translate(34.26315789473684,43.96023347368421)"><path fill="rgb(0,0,0)" stroke="none" paint-order="stroke fill markers" d=" M 0.294 -0.64 L 0.294 -0.079 Q 0.294 -0.049 0.306 -0.041 Q 0.323 -0.031 0.387 -0.031 L 0.419 -0.031 L 0.419 0 Q 0.384 -0.003 0.257 -0.003 Q 0.13 -0.003 0.095 0 L 0.095 -0.031 L 0.127 -0.031 Q 0.20400000000000001 -0.031 0.215 -0.049 L 0.216 -0.05 Q 0.22 -0.058 0.22 -0.079 L 0.22 -0.597 Q 0.168 -0.5710000000000001 0.089 -0.5710000000000001 L 0.089 -0.602 Q 0.209 -0.602 0.271 -0.666 Q 0.29 -0.666 0.293 -0.659 L 0.293 -0.659 L 0.293 -0.658 Q 0.294 -0.655 0.294 -0.64 Z"/></g><g transform="translate(34.763159894736845,43.96023347368421)"><path fill="rgb(0,0,0)" stroke="none" paint-order="stroke fill markers" d=" M 0.132 -0.328 L 0.132 -0.328 Q 0.17300000000000001 -0.427 0.257 -0.427 Q 0.34900000000000003 -0.427 0.40800000000000003 -0.35100000000000003 Q 0.441 -0.31 0.452 -0.255 Q 0.457 -0.23 0.457 -0.20400000000000001 Q 0.457 -0.093 0.38 -0.026000000000000002 Q 0.324 0.022 0.251 0.022 Q 0.149 0.022 0.092 -0.075 Q 0.042 -0.162 0.042 -0.316 Q 0.042 -0.489 0.14 -0.591 Q 0.213 -0.666 0.305 -0.666 Q 0.392 -0.666 0.422 -0.605 Q 0.432 -0.584 0.432 -0.558 Q 0.432 -0.518 0.395 -0.511 Q 0.39 -0.51 0.386 -0.51 Q 0.354 -0.51 0.343 -0.538 Q 0.34 -0.546 0.34 -0.556 Q 0.34 -0.601 0.395 -0.601 Q 0.369 -0.641 0.307 -0.641 Q 0.23700000000000002 -0.641 0.189 -0.578 Q 0.132 -0.503 0.132 -0.352 L 0.132 -0.328 M 0.251 -0.006 L 0.251 -0.006 Q 0.318 -0.006 0.35000000000000003 -0.07100000000000001 Q 0.367 -0.107 0.367 -0.20500000000000002 Q 0.367 -0.305 0.34900000000000003 -0.342 Q 0.318 -0.404 0.256 -0.404 Q 0.177 -0.404 0.147 -0.31 Q 0.134 -0.271 0.134 -0.226 Q 0.134 -0.128 0.152 -0.081 Q 0.171 -0.035 0.211 -0.015 Q 0.23 -0.006 0.251 -0.006 Z"/></g></g><g transform="scale(19,19)"><g transform="translate(47.68421052631579,43.96023347368421)"><path fill="rgb(0,0,0)" stroke="none" paint-order="stroke fill markers" d=" M 0.449 -0.17400000000000002 L 0.449 -0.17400000000000002 L 0.421 0 L 0.05 0 Q 0.05 -0.025 0.056 -0.032 L 0.061 -0.037 L 0.253 -0.251 Q 0.358 -0.369 0.358 -0.47200000000000003 Q 0.358 -0.561 0.304 -0.607 L 0.303 -0.608 L 0.302 -0.608 Q 0.27 -0.635 0.224 -0.635 Q 0.152 -0.635 0.109 -0.5730000000000001 Q 0.097 -0.555 0.089 -0.533 Q 0.092 -0.534 0.10200000000000001 -0.534 Q 0.14200000000000002 -0.534 0.153 -0.498 L 0.153 -0.497 Q 0.155 -0.49 0.155 -0.482 Q 0.155 -0.442 0.117 -0.431 Q 0.109 -0.429 0.10300000000000001 -0.429 Q 0.066 -0.429 0.054 -0.46 Q 0.05 -0.47100000000000003 0.05 -0.485 Q 0.05 -0.562 0.109 -0.617 Q 0.162 -0.666 0.23700000000000002 -0.666 Q 0.34700000000000003 -0.666 0.40800000000000003 -0.592 Q 0.443 -0.549 0.448 -0.49 Q 0.449 -0.481 0.449 -0.47200000000000003 Q 0.449 -0.399 0.394 -0.333 Q 0.365 -0.299 0.304 -0.243 L 0.243 -0.189 L 0.233 -0.18 L 0.127 -0.077 L 0.307 -0.077 Q 0.395 -0.077 0.402 -0.085 Q 0.41200000000000003 -0.099 0.424 -0.17400000000000002 L 0.449 -0.17400000000000002 Z"/></g><g transform="translate(48.18421252631579,43.96023347368421)"><path fill="rgb(0,0,0)" stroke="none" paint-order="stroke fill markers" d=" M 0.449 -0.201 L 0.449 -0.201 Q 0.449 -0.098 0.372 -0.031 Q 0.31 0.022 0.231 0.022 Q 0.139 0.022 0.085 -0.055 Q 0.05 -0.10400000000000001 0.05 -0.161 Q 0.05 -0.20700000000000002 0.091 -0.213 Q 0.095 -0.214 0.099 -0.214 Q 0.136 -0.214 0.147 -0.181 Q 0.149 -0.17300000000000001 0.149 -0.165 Q 0.149 -0.133 0.121 -0.121 Q 0.111 -0.116 0.099 -0.116 Q 0.088 -0.116 0.082 -0.11800000000000001 Q 0.1 -0.055 0.159 -0.024 Q 0.192 -0.006 0.229 -0.006 Q 0.296 -0.006 0.336 -0.07100000000000001 Q 0.36 -0.113 0.36 -0.20800000000000002 Q 0.36 -0.292 0.342 -0.334 Q 0.314 -0.398 0.257 -0.398 Q 0.176 -0.398 0.128 -0.328 Q 0.122 -0.319 0.115 -0.319 Q 0.10200000000000001 -0.319 0.101 -0.333 L 0.101 -0.34500000000000003 L 0.101 -0.641 Q 0.101 -0.664 0.111 -0.665 Q 0.115 -0.665 0.123 -0.662 Q 0.186 -0.634 0.256 -0.634 Q 0.328 -0.634 0.392 -0.663 Q 0.397 -0.666 0.4 -0.666 Q 0.41000000000000003 -0.666 0.41000000000000003 -0.655 Q 0.41000000000000003 -0.642 0.378 -0.613 Q 0.31 -0.551 0.217 -0.551 Q 0.17500000000000002 -0.551 0.132 -0.5640000000000001 L 0.132 -0.369 Q 0.184 -0.42 0.259 -0.42 Q 0.34700000000000003 -0.42 0.404 -0.343 Q 0.449 -0.28200000000000003 0.449 -0.201 Z"/></g></g></g></g></svg>