<svg version="1.1" xmlns="http://www.w3.org/2000/svg" xmlns:xlink="http://www.w3.org/1999/xlink" width="1080" height="1425"><defs><clipPath id="bmruRQdNewXW"><path fill="none" stroke="none" d=" M 0 0 L 1080 0 L 1080 1425 L 0 1425 L 0 0 Z"/></clipPath></defs><g transform="scale(1,1)" clip-path="url(#bmruRQdNewXW)"><g><rect fill="rgb(255,255,255)" stroke="none" x="0" y="0" width="1080" height="1425" fill-opacity="1"/><path fill="none" stroke="rgb(0,0,0)" paint-order="fill stroke markers" d=" M 187.77777777777789 691.5555555555554 L 210.0000000000001 647.1111111111111" stroke-opacity="0.6980392156862745" stroke-linecap="round" stroke-linejoin="round" stroke-miterlimit="10" stroke-width="2.5"/><path fill="none" stroke="rgb(0,0,0)" paint-order="fill stroke markers" d=" M 210.0000000000001 647.1111111111111 L 232.22222222222234 691.5555555555554" stroke-opacity="0.6980392156862745" stroke-linecap="round" stroke-linejoin="round" stroke-miterlimit="10" stroke-width="2.5"/><path fill="none" stroke="rgb(0,0,0)" paint-order="fill stroke markers" d=" M 232.22222222222234 691.5555555555554 L 187.77777777777789 691.5555555555554" stroke-opacity="0.6980392156862745" stroke-linecap="round" stroke-linejoin="round" stroke-miterlimit="10" stroke-width="2.5"/><path fill="none" stroke="rgb(0,0,0)" paint-order="fill stroke markers" d=" M 321.1111111111113 691.5555555555554 L 343.3333333333336 647.1111111111111" stroke-opacity="0.6980392156862745" stroke-linecap="round" stroke-linejoin="round" stroke-miterlimit="10" stroke-width="2.5"/><path fill="none" stroke="rgb(0,0,0)" paint-order="fill stroke markers" d=" M 343.3333333333336 647.1111111111111 L 365.5555555555558 602.6666666666667" stroke-opacity="0.6980392156862745" stroke-linecap="round" stroke-linejoin="round" stroke-miterlimit="10" stroke-width="2.5"/><path fill="none" stroke="rgb(0,0,0)" paint-order="fill stroke markers" d=" M 321.1111111111113 691.5555555555554 L 365.5555555555558 691.5555555555554" stroke-opacity="0.6980392156862745" stroke-linecap="round" stroke-linejoin="round" stroke-miterlimit="10" stroke-width="2.5"/><path fill="none" stroke="rgb(0,0,0)" paint-order="fill stroke markers" d=" M 365.5555555555558 691.5555555555554 L 343.3333333333336 647.1111111111111" stroke-opacity="0.6980392156862745" stroke-linecap="round" stroke-linejoin="round" stroke-miterlimit="10" stroke-width="2.5"/><path fill="none" stroke="rgb(0,0,0)" paint-order="fill stroke markers" d=" M 365.5555555555558 602.6666666666667 L 387.77777777777806 647.1111111111111" stroke-opacity="0.6980392156862745" stroke-linecap="round" stroke-linejoin="round" stroke-miterlimit="10" stroke-width="2.5"/><path fill="none" stroke="rgb(0,0,0)" paint-order="fill stroke markers" d=" M 387.77777777777806 647.1111111111111 L 410.00000000000034 691.5555555555554" stroke-opacity="0.6980392156862745" stroke-linecap="round" stroke-linejoin="round" stroke-miterlimit="10" stroke-width="2.5"/><path fill="none" stroke="rgb(0,0,0)" paint-order="fill stroke markers" d=" M 365.5555555555558 691.5555555555554 L 410.00000000000034 691.5555555555554" stroke-opacity="0.6980392156862745" stroke-linecap="round" stroke-linejoin="round" stroke-miterlimit="10" stroke-width="2.5"/><path fill="none" stroke="rgb(0,0,0)" paint-order="fill stroke markers" d=" M 498.88888888888926 691.5555555555554 L 521.1111111111115 647.1111111111111" stroke-opacity="0.6980392156862745" stroke-linecap="round" stroke-linejoin="round" stroke-miterlimit="10" stroke-width="2.5"/><path fill="none" stroke="rgb(0,0,0)" paint-order="fill stroke markers" d=" M 521.1111111111115 647.1111111111111 L 543.3333333333337 602.6666666666667" stroke-opacity="0.6980392156862745" stroke-linecap="round" stroke-linejoin="round" stroke-miterlimit="10" stroke-width="2.5"/><path fill="none" stroke="rgb(0,0,0)" paint-order="fill stroke markers" d=" M 543.3333333333337 602.6666666666667 L 565.555555555556 558.2222222222224" stroke-opacity="0.6980392156862745" stroke-linecap="round" stroke-linejoin="round" stroke-miterlimit="10" stroke-width="2.5"/><path fill="none" stroke="rgb(0,0,0)" paint-order="fill stroke markers" d=" M 498.88888888888926 691.5555555555554 L 543.3333333333337 691.5555555555554" stroke-opacity="0.6980392156862745" stroke-linecap="round" stroke-linejoin="round" stroke-miterlimit="10" stroke-width="2.5"/><path fill="none" stroke="rgb(0,0,0)" paint-order="fill stroke markers" d=" M 543.3333333333337 691.5555555555554 L 521.1111111111115 647.1111111111111" stroke-opacity="0.6980392156862745" stroke-linecap="round" stroke-linejoin="round" stroke-miterlimit="10" stroke-width="2.5"/><path fill="none" stroke="rgb(0,0,0)" paint-order="fill stroke markers" d=" M 543.3333333333337 691.5555555555554 L 587.7777777777783 691.5555555555554" stroke-opacity="0.6980392156862745" stroke-linecap="round" stroke-linejoin="round" stroke-miterlimit="10" stroke-width="2.5"/><path fill="none" stroke="rgb(0,0,0)" paint-order="fill stroke markers" d=" M 543.3333333333337 602.6666666666667 L 565.555555555556 647.1111111111111" stroke-opacity="0.6980392156862745" stroke-linecap="round" stroke-linejoin="round" stroke-miterlimit="10" stroke-width="2.5"/><path fill="none" stroke="rgb(0,0,0)" paint-order="fill stroke markers" d=" M 565.555555555556 647.1111111111111 L 587.7777777777783 691.5555555555554" stroke-opacity="0.6980392156862745" stroke-linecap="round" stroke-linejoin="round" stroke-miterlimit="10" stroke-width="2.5"/><path fill="none" stroke="rgb(0,0,0)" paint-order="fill stroke markers" d=" M 587.7777777777783 691.5555555555554 L 632.2222222222227 691.5555555555554" stroke-opacity="0.6980392156862745" stroke-linecap="round" stroke-linejoin="round" stroke-miterlimit="10" stroke-width="2.5"/><path fill="none" stroke="rgb(0,0,0)" paint-order="fill stroke markers" d=" M 632.2222222222227 691.5555555555554 L 610.0000000000005 647.1111111111111" stroke-opacity="0.6980392156862745" stroke-linecap="round" stroke-linejoin="round" stroke-miterlimit="10" stroke-width="2.5"/><path fill="none" stroke="rgb(0,0,0)" paint-order="fill stroke markers" d=" M 610.0000000000005 647.1111111111111 L 587.7777777777783 602.6666666666667" stroke-opacity="0.6980392156862745" stroke-linecap="round" stroke-linejoin="round" stroke-miterlimit="10" stroke-width="2.5"/><path fill="none" stroke="rgb(0,0,0)" paint-order="fill stroke markers" d=" M 587.7777777777783 602.6666666666667 L 565.555555555556 558.2222222222224" stroke-opacity="0.6980392156862745" stroke-linecap="round" stroke-linejoin="round" stroke-miterlimit="10" stroke-width="2.5"/><path fill="none" stroke="rgb(0,0,0)" paint-order="fill stroke markers" d=" M 721.1111111111118 691.5555555555554 L 743.3333333333339 647.1111111111111" stroke-opacity="0.6980392156862745" stroke-linecap="round" stroke-linejoin="round" stroke-miterlimit="10" stroke-width="2.5"/><path fill="none" stroke="rgb(0,0,0)" paint-order="fill stroke markers" d=" M 743.3333333333339 647.1111111111111 L 765.5555555555562 602.6666666666667" stroke-opacity="0.6980392156862745" stroke-linecap="round" stroke-linejoin="round" stroke-miterlimit="10" stroke-width="2.5"/><path fill="none" stroke="rgb(0,0,0)" paint-order="fill stroke markers" d=" M 765.5555555555562 602.6666666666667 L 787.7777777777784 558.2222222222224" stroke-opacity="0.6980392156862745" stroke-linecap="round" stroke-linejoin="round" stroke-miterlimit="10" stroke-width="2.5"/><path fill="none" stroke="rgb(0,0,0)" paint-order="fill stroke markers" d=" M 787.7777777777784 558.2222222222224 L 810.0000000000007 513.777777777778" stroke-opacity="0.6980392156862745" stroke-linecap="round" stroke-linejoin="round" stroke-miterlimit="10" stroke-width="2.5"/><path fill="none" stroke="rgb(0,0,0)" paint-order="fill stroke markers" d=" M 721.1111111111118 691.5555555555554 L 765.5555555555562 691.5555555555554" stroke-opacity="0.6980392156862745" stroke-linecap="round" stroke-linejoin="round" stroke-miterlimit="10" stroke-width="2.5"/><path fill="none" stroke="rgb(0,0,0)" paint-order="fill stroke markers" d=" M 765.5555555555562 691.5555555555554 L 810.0000000000007 691.5555555555554" stroke-opacity="0.6980392156862745" stroke-linecap="round" stroke-linejoin="round" stroke-miterlimit="10" stroke-width="2.5"/><path fill="none" stroke="rgb(0,0,0)" paint-order="fill stroke markers" d=" M 810.0000000000007 691.5555555555554 L 854.4444444444451 691.5555555555554" stroke-opacity="0.6980392156862745" stroke-linecap="round" stroke-linejoin="round" stroke-miterlimit="10" stroke-width="2.5"/><path fill="none" stroke="rgb(0,0,0)" paint-order="fill stroke markers" d=" M 854.4444444444451 691.5555555555554 L 898.8888888888896 691.5555555555554" stroke-opacity="0.6980392156862745" stroke-linecap="round" stroke-linejoin="round" stroke-miterlimit="10" stroke-width="2.5"/><path fill="none" stroke="rgb(0,0,0)" paint-order="fill stroke markers" d=" M 743.3333333333339 647.1111111111111 L 765.5555555555562 691.5555555555554" stroke-opacity="0.6980392156862745" stroke-linecap="round" stroke-linejoin="round" stroke-miterlimit="10" stroke-width="2.5"/><path fill="none" stroke="rgb(0,0,0)" paint-order="fill stroke markers" d=" M 765.5555555555562 602.6666666666667 L 787.7777777777784 647.1111111111111" stroke-opacity="0.6980392156862745" stroke-linecap="round" stroke-linejoin="round" stroke-miterlimit="10" stroke-width="2.5"/><path fill="none" stroke="rgb(0,0,0)" paint-order="fill stroke markers" d=" M 787.7777777777784 647.1111111111111 L 810.0000000000007 691.5555555555554" stroke-opacity="0.6980392156862745" stroke-linecap="round" stroke-linejoin="round" stroke-miterlimit="10" stroke-width="2.5"/><path fill="none" stroke="rgb(0,0,0)" paint-order="fill stroke markers" d=" M 787.7777777777784 558.2222222222224 L 810.0000000000007 602.6666666666667" stroke-opacity="0.6980392156862745" stroke-linecap="round" stroke-linejoin="round" stroke-miterlimit="10" stroke-width="2.5"/><path fill="none" stroke="rgb(0,0,0)" paint-order="fill stroke markers" d=" M 810.0000000000007 602.6666666666667 L 832.222222222223 647.1111111111111" stroke-opacity="0.6980392156862745" stroke-linecap="round" stroke-linejoin="round" stroke-miterlimit="10" stroke-width="2.5"/><path fill="none" stroke="rgb(0,0,0)" paint-order="fill stroke markers" d=" M 832.222222222223 647.1111111111111 L 854.4444444444451 691.5555555555554" stroke-opacity="0.6980392156862745" stroke-linecap="round" stroke-linejoin="round" stroke-miterlimit="10" stroke-width="2.5"/><path fill="none" stroke="rgb(0,0,0)" paint-order="fill stroke markers" d=" M 810.0000000000007 513.777777777778 L 832.222222222223 558.2222222222224" stroke-opacity="0.6980392156862745" stroke-linecap="round" stroke-linejoin="round" stroke-miterlimit="10" stroke-width="2.5"/><path fill="none" stroke="rgb(0,0,0)" paint-order="fill stroke markers" d=" M 832.222222222223 558.2222222222224 L 854.4444444444451 602.6666666666667" stroke-opacity="0.6980392156862745" stroke-linecap="round" stroke-linejoin="round" stroke-miterlimit="10" stroke-width="2.5"/><path fill="none" stroke="rgb(0,0,0)" paint-order="fill stroke markers" d=" M 854.4444444444451 602.6666666666667 L 876.6666666666674 647.1111111111111" stroke-opacity="0.6980392156862745" stroke-linecap="round" stroke-linejoin="round" stroke-miterlimit="10" stroke-width="2.5"/><path fill="none" stroke="rgb(0,0,0)" paint-order="fill stroke markers" d=" M 876.6666666666674 647.1111111111111 L 898.8888888888896 691.5555555555554" stroke-opacity="0.6980392156862745" stroke-linecap="round" stroke-linejoin="round" stroke-miterlimit="10" stroke-width="2.5"/><path fill="none" stroke="rgb(0,0,0)" paint-order="fill stroke markers" d=" M 121.11111111111114 691.5555555555554 L 148.55555555555563 691.5555555555554" stroke-opacity="0.6980392156862745" stroke-linecap="round" stroke-linejoin="round" stroke-miterlimit="10" stroke-width="2.5"/><path fill="rgb(0,0,0)" stroke="none" paint-order="stroke fill markers" fill-rule="evenodd" d=" M 165.55555555555563 691.5555555555554 L 148.55555555555563 695.8055555555554 L 148.55555555555563 687.3055555555554 Z" fill-opacity="0.6980392156862745"/><path fill="none" stroke="rgb(0,0,0)" paint-order="fill stroke markers" d=" M 254.44444444444463 691.5555555555554 L 281.8888888888891 691.5555555555554" stroke-opacity="0.6980392156862745" stroke-linecap="round" stroke-linejoin="round" stroke-miterlimit="10" stroke-width="2.5"/><path fill="rgb(0,0,0)" stroke="none" paint-order="stroke fill markers" fill-rule="evenodd" d=" M 298.8888888888891 691.5555555555554 L 281.8888888888891 695.8055555555554 L 281.8888888888891 687.3055555555554 Z" fill-opacity="0.6980392156862745"/><path fill="none" stroke="rgb(0,0,0)" paint-order="fill stroke markers" d=" M 432.22222222222257 691.5555555555554 L 459.666666666667 691.5555555555554" stroke-opacity="0.6980392156862745" stroke-linecap="round" stroke-linejoin="round" stroke-miterlimit="10" stroke-width="2.5"/><path fill="rgb(0,0,0)" stroke="none" paint-order="stroke fill markers" fill-rule="evenodd" d=" M 476.666666666667 691.5555555555554 L 459.666666666667 695.8055555555554 L 459.666666666667 687.3055555555554 Z" fill-opacity="0.6980392156862745"/><path fill="none" stroke="rgb(0,0,0)" paint-order="fill stroke markers" d=" M 654.444444444445 691.5555555555554 L 681.8888888888895 691.5555555555554" stroke-opacity="0.6980392156862745" stroke-linecap="round" stroke-linejoin="round" stroke-miterlimit="10" stroke-width="2.5"/><path fill="rgb(0,0,0)" stroke="none" paint-order="stroke fill markers" fill-rule="evenodd" d=" M 698.8888888888895 691.5555555555554 L 681.8888888888895 695.8055555555554 L 681.8888888888895 687.3055555555554 Z" fill-opacity="0.6980392156862745"/><path fill="rgb(21,101,192)" stroke="none" paint-order="stroke fill markers" d=" M 103.8888888888889 691.5555555555554 C 103.8888888888889 694.3169793047094 101.65031263804286 696.5555555555554 98.8888888888889 696.5555555555554 C 96.12746513973494 696.5555555555554 93.8888888888889 694.3169793047094 93.8888888888889 691.5555555555554 C 93.8888888888889 688.7941318064014 96.12746513973494 686.5555555555554 98.8888888888889 686.5555555555554 C 101.65031263804286 686.5555555555554 103.8888888888889 688.7941318064014 103.8888888888889 691.5555555555554 Z" fill-opacity="1"/><path fill="none" stroke="rgb(0,0,0)" paint-order="fill stroke markers" d=" M 103.8888888888889 691.5555555555554 C 103.8888888888889 694.3169793047094 101.65031263804286 696.5555555555554 98.8888888888889 696.5555555555554 C 96.12746513973494 696.5555555555554 93.8888888888889 694.3169793047094 93.8888888888889 691.5555555555554 C 93.8888888888889 688.7941318064014 96.12746513973494 686.5555555555554 98.8888888888889 686.5555555555554 C 101.65031263804286 686.5555555555554 103.8888888888889 688.7941318064014 103.8888888888889 691.5555555555554 Z" stroke-opacity="1" stroke-linecap="round" stroke-linejoin="round" stroke-miterlimit="10"/><path fill="rgb(21,101,192)" stroke="none" paint-order="stroke fill markers" d=" M 192.77777777777789 691.5555555555554 C 192.77777777777789 694.3169793047094 190.53920152693186 696.5555555555554 187.77777777777789 696.5555555555554 C 185.0163540286239 696.5555555555554 182.77777777777789 694.3169793047094 182.77777777777789 691.5555555555554 C 182.77777777777789 688.7941318064014 185.0163540286239 686.5555555555554 187.77777777777789 686.5555555555554 C 190.53920152693186 686.5555555555554 192.77777777777789 688.7941318064014 192.77777777777789 691.5555555555554 Z" fill-opacity="1"/><path fill="none" stroke="rgb(0,0,0)" paint-order="fill stroke markers" d=" M 192.77777777777789 691.5555555555554 C 192.77777777777789 694.3169793047094 190.53920152693186 696.5555555555554 187.77777777777789 696.5555555555554 C 185.0163540286239 696.5555555555554 182.77777777777789 694.3169793047094 182.77777777777789 691.5555555555554 C 182.77777777777789 688.7941318064014 185.0163540286239 686.5555555555554 187.77777777777789 686.5555555555554 C 190.53920152693186 686.5555555555554 192.77777777777789 688.7941318064014 192.77777777777789 691.5555555555554 Z" stroke-opacity="1" stroke-linecap="round" stroke-linejoin="round" stroke-miterlimit="10"/><path fill="rgb(21,101,192)" stroke="none" paint-order="stroke fill markers" d=" M 215.0000000000001 647.1111111111111 C 215.0000000000001 649.8725348602651 212.7614237491541 652.1111111111111 210.0000000000001 652.1111111111111 C 207.23857625084614 652.1111111111111 205.0000000000001 649.8725348602651 205.0000000000001 647.1111111111111 C 205.0000000000001 644.3496873619571 207.23857625084614 642.1111111111111 210.0000000000001 642.1111111111111 C 212.7614237491541 642.1111111111111 215.0000000000001 644.3496873619571 215.0000000000001 647.1111111111111 Z" fill-opacity="1"/><path fill="none" stroke="rgb(0,0,0)" paint-order="fill stroke markers" d=" M 215.0000000000001 647.1111111111111 C 215.0000000000001 649.8725348602651 212.7614237491541 652.1111111111111 210.0000000000001 652.1111111111111 C 207.23857625084614 652.1111111111111 205.0000000000001 649.8725348602651 205.0000000000001 647.1111111111111 C 205.0000000000001 644.3496873619571 207.23857625084614 642.1111111111111 210.0000000000001 642.1111111111111 C 212.7614237491541 642.1111111111111 215.0000000000001 644.3496873619571 215.0000000000001 647.1111111111111 Z" stroke-opacity="1" stroke-linecap="round" stroke-linejoin="round" stroke-miterlimit="10"/><path fill="rgb(21,101,192)" stroke="none" paint-order="stroke fill markers" d=" M 237.22222222222234 691.5555555555554 C 237.22222222222234 694.3169793047094 234.98364597137632 696.5555555555554 232.22222222222234 696.5555555555554 C 229.46079847306837 696.5555555555554 227.22222222222234 694.3169793047094 227.22222222222234 691.5555555555554 C 227.22222222222234 688.7941318064014 229.46079847306837 686.5555555555554 232.22222222222234 686.5555555555554 C 234.98364597137632 686.5555555555554 237.22222222222234 688.7941318064014 237.22222222222234 691.5555555555554 Z" fill-opacity="1"/><path fill="none" stroke="rgb(0,0,0)" paint-order="fill stroke markers" d=" M 237.22222222222234 691.5555555555554 C 237.22222222222234 694.3169793047094 234.98364597137632 696.5555555555554 232.22222222222234 696.5555555555554 C 229.46079847306837 696.5555555555554 227.22222222222234 694.3169793047094 227.22222222222234 691.5555555555554 C 227.22222222222234 688.7941318064014 229.46079847306837 686.5555555555554 232.22222222222234 686.5555555555554 C 234.98364597137632 686.5555555555554 237.22222222222234 688.7941318064014 237.22222222222234 691.5555555555554 Z" stroke-opacity="1" stroke-linecap="round" stroke-linejoin="round" stroke-miterlimit="10"/><path fill="rgb(21,101,192)" stroke="none" paint-order="stroke fill markers" d=" M 326.1111111111113 691.5555555555554 C 326.1111111111113 694.3169793047094 323.87253486026526 696.5555555555554 321.1111111111113 696.5555555555554 C 318.34968736195736 696.5555555555554 316.1111111111113 694.3169793047094 316.1111111111113 691.5555555555554 C 316.1111111111113 688.7941318064014 318.34968736195736 686.5555555555554 321.1111111111113 686.5555555555554 C 323.87253486026526 686.5555555555554 326.1111111111113 688.7941318064014 326.1111111111113 691.5555555555554 Z" fill-opacity="1"/><path fill="none" stroke="rgb(0,0,0)" paint-order="fill stroke markers" d=" M 326.1111111111113 691.5555555555554 C 326.1111111111113 694.3169793047094 323.87253486026526 696.5555555555554 321.1111111111113 696.5555555555554 C 318.34968736195736 696.5555555555554 316.1111111111113 694.3169793047094 316.1111111111113 691.5555555555554 C 316.1111111111113 688.7941318064014 318.34968736195736 686.5555555555554 321.1111111111113 686.5555555555554 C 323.87253486026526 686.5555555555554 326.1111111111113 688.7941318064014 326.1111111111113 691.5555555555554 Z" stroke-opacity="1" stroke-linecap="round" stroke-linejoin="round" stroke-miterlimit="10"/><path fill="rgb(21,101,192)" stroke="none" paint-order="stroke fill markers" d=" M 348.3333333333336 647.1111111111111 C 348.3333333333336 649.8725348602651 346.09475708248755 652.1111111111111 343.3333333333336 652.1111111111111 C 340.57190958417965 652.1111111111111 338.3333333333336 649.8725348602651 338.3333333333336 647.1111111111111 C 338.3333333333336 644.3496873619571 340.57190958417965 642.1111111111111 343.3333333333336 642.1111111111111 C 346.09475708248755 642.1111111111111 348.3333333333336 644.3496873619571 348.3333333333336 647.1111111111111 Z" fill-opacity="1"/><path fill="none" stroke="rgb(0,0,0)" paint-order="fill stroke markers" d=" M 348.3333333333336 647.1111111111111 C 348.3333333333336 649.8725348602651 346.09475708248755 652.1111111111111 343.3333333333336 652.1111111111111 C 340.57190958417965 652.1111111111111 338.3333333333336 649.8725348602651 338.3333333333336 647.1111111111111 C 338.3333333333336 644.3496873619571 340.57190958417965 642.1111111111111 343.3333333333336 642.1111111111111 C 346.09475708248755 642.1111111111111 348.3333333333336 644.3496873619571 348.3333333333336 647.1111111111111 Z" stroke-opacity="1" stroke-linecap="round" stroke-linejoin="round" stroke-miterlimit="10"/><path fill="rgb(21,101,192)" stroke="none" paint-order="stroke fill markers" d=" M 370.5555555555558 602.6666666666667 C 370.5555555555558 605.4280904158207 368.3169793047098 607.6666666666667 365.5555555555558 607.6666666666667 C 362.7941318064019 607.6666666666667 360.5555555555558 605.4280904158207 360.5555555555558 602.6666666666667 C 360.5555555555558 599.9052429175127 362.7941318064019 597.6666666666667 365.5555555555558 597.6666666666667 C 368.3169793047098 597.6666666666667 370.5555555555558 599.9052429175127 370.5555555555558 602.6666666666667 Z" fill-opacity="1"/><path fill="none" stroke="rgb(0,0,0)" paint-order="fill stroke markers" d=" M 370.5555555555558 602.6666666666667 C 370.5555555555558 605.4280904158207 368.3169793047098 607.6666666666667 365.5555555555558 607.6666666666667 C 362.7941318064019 607.6666666666667 360.5555555555558 605.4280904158207 360.5555555555558 602.6666666666667 C 360.5555555555558 599.9052429175127 362.7941318064019 597.6666666666667 365.5555555555558 597.6666666666667 C 368.3169793047098 597.6666666666667 370.5555555555558 599.9052429175127 370.5555555555558 602.6666666666667 Z" stroke-opacity="1" stroke-linecap="round" stroke-linejoin="round" stroke-miterlimit="10"/><path fill="rgb(21,101,192)" stroke="none" paint-order="stroke fill markers" d=" M 370.5555555555558 691.5555555555554 C 370.5555555555558 694.3169793047094 368.3169793047098 696.5555555555554 365.5555555555558 696.5555555555554 C 362.7941318064019 696.5555555555554 360.5555555555558 694.3169793047094 360.5555555555558 691.5555555555554 C 360.5555555555558 688.7941318064014 362.7941318064019 686.5555555555554 365.5555555555558 686.5555555555554 C 368.3169793047098 686.5555555555554 370.5555555555558 688.7941318064014 370.5555555555558 691.5555555555554 Z" fill-opacity="1"/><path fill="none" stroke="rgb(0,0,0)" paint-order="fill stroke markers" d=" M 370.5555555555558 691.5555555555554 C 370.5555555555558 694.3169793047094 368.3169793047098 696.5555555555554 365.5555555555558 696.5555555555554 C 362.7941318064019 696.5555555555554 360.5555555555558 694.3169793047094 360.5555555555558 691.5555555555554 C 360.5555555555558 688.7941318064014 362.7941318064019 686.5555555555554 365.5555555555558 686.5555555555554 C 368.3169793047098 686.5555555555554 370.5555555555558 688.7941318064014 370.5555555555558 691.5555555555554 Z" stroke-opacity="1" stroke-linecap="round" stroke-linejoin="round" stroke-miterlimit="10"/><path fill="rgb(21,101,192)" stroke="none" paint-order="stroke fill markers" d=" M 392.77777777777806 647.1111111111111 C 392.77777777777806 649.8725348602651 390.539201526932 652.1111111111111 387.77777777777806 652.1111111111111 C 385.0163540286241 652.1111111111111 382.77777777777806 649.8725348602651 382.77777777777806 647.1111111111111 C 382.77777777777806 644.3496873619571 385.0163540286241 642.1111111111111 387.77777777777806 642.1111111111111 C 390.539201526932 642.1111111111111 392.77777777777806 644.3496873619571 392.77777777777806 647.1111111111111 Z" fill-opacity="1"/><path fill="none" stroke="rgb(0,0,0)" paint-order="fill stroke markers" d=" M 392.77777777777806 647.1111111111111 C 392.77777777777806 649.8725348602651 390.539201526932 652.1111111111111 387.77777777777806 652.1111111111111 C 385.0163540286241 652.1111111111111 382.77777777777806 649.8725348602651 382.77777777777806 647.1111111111111 C 382.77777777777806 644.3496873619571 385.0163540286241 642.1111111111111 387.77777777777806 642.1111111111111 C 390.539201526932 642.1111111111111 392.77777777777806 644.3496873619571 392.77777777777806 647.1111111111111 Z" stroke-opacity="1" stroke-linecap="round" stroke-linejoin="round" stroke-miterlimit="10"/><path fill="rgb(21,101,192)" stroke="none" paint-order="stroke fill markers" d=" M 415.00000000000034 691.5555555555554 C 415.00000000000034 694.3169793047094 412.7614237491543 696.5555555555554 410.00000000000034 696.5555555555554 C 407.2385762508464 696.5555555555554 405.00000000000034 694.3169793047094 405.00000000000034 691.5555555555554 C 405.00000000000034 688.7941318064014 407.2385762508464 686.5555555555554 410.00000000000034 686.5555555555554 C 412.7614237491543 686.5555555555554 415.00000000000034 688.7941318064014 415.00000000000034 691.5555555555554 Z" fill-opacity="1"/><path fill="none" stroke="rgb(0,0,0)" paint-order="fill stroke markers" d=" M 415.00000000000034 691.5555555555554 C 415.00000000000034 694.3169793047094 412.7614237491543 696.5555555555554 410.00000000000034 696.5555555555554 C 407.2385762508464 696.5555555555554 405.00000000000034 694.3169793047094 405.00000000000034 691.5555555555554 C 405.00000000000034 688.7941318064014 407.2385762508464 686.5555555555554 410.00000000000034 686.5555555555554 C 412.7614237491543 686.5555555555554 415.00000000000034 688.7941318064014 415.00000000000034 691.5555555555554 Z" stroke-opacity="1" stroke-linecap="round" stroke-linejoin="round" stroke-miterlimit="10"/><path fill="rgb(21,101,192)" stroke="none" paint-order="stroke fill markers" d=" M 503.88888888888926 691.5555555555554 C 503.88888888888926 694.3169793047094 501.6503126380432 696.5555555555554 498.88888888888926 696.5555555555554 C 496.1274651397353 696.5555555555554 493.88888888888926 694.3169793047094 493.88888888888926 691.5555555555554 C 493.88888888888926 688.7941318064014 496.1274651397353 686.5555555555554 498.88888888888926 686.5555555555554 C 501.6503126380432 686.5555555555554 503.88888888888926 688.7941318064014 503.88888888888926 691.5555555555554 Z" fill-opacity="1"/><path fill="none" stroke="rgb(0,0,0)" paint-order="fill stroke markers" d=" M 503.88888888888926 691.5555555555554 C 503.88888888888926 694.3169793047094 501.6503126380432 696.5555555555554 498.88888888888926 696.5555555555554 C 496.1274651397353 696.5555555555554 493.88888888888926 694.3169793047094 493.88888888888926 691.5555555555554 C 493.88888888888926 688.7941318064014 496.1274651397353 686.5555555555554 498.88888888888926 686.5555555555554 C 501.6503126380432 686.5555555555554 503.88888888888926 688.7941318064014 503.88888888888926 691.5555555555554 Z" stroke-opacity="1" stroke-linecap="round" stroke-linejoin="round" stroke-miterlimit="10"/><path fill="rgb(21,101,192)" stroke="none" paint-order="stroke fill markers" d=" M 526.1111111111115 647.1111111111111 C 526.1111111111115 649.8725348602651 523.8725348602655 652.1111111111111 521.1111111111115 652.1111111111111 C 518.3496873619575 652.1111111111111 516.1111111111115 649.8725348602651 516.1111111111115 647.1111111111111 C 516.1111111111115 644.3496873619571 518.3496873619575 642.1111111111111 521.1111111111115 642.1111111111111 C 523.8725348602655 642.1111111111111 526.1111111111115 644.3496873619571 526.1111111111115 647.1111111111111 Z" fill-opacity="1"/><path fill="none" stroke="rgb(0,0,0)" paint-order="fill stroke markers" d=" M 526.1111111111115 647.1111111111111 C 526.1111111111115 649.8725348602651 523.8725348602655 652.1111111111111 521.1111111111115 652.1111111111111 C 518.3496873619575 652.1111111111111 516.1111111111115 649.8725348602651 516.1111111111115 647.1111111111111 C 516.1111111111115 644.3496873619571 518.3496873619575 642.1111111111111 521.1111111111115 642.1111111111111 C 523.8725348602655 642.1111111111111 526.1111111111115 644.3496873619571 526.1111111111115 647.1111111111111 Z" stroke-opacity="1" stroke-linecap="round" stroke-linejoin="round" stroke-miterlimit="10"/><path fill="rgb(21,101,192)" stroke="none" paint-order="stroke fill markers" d=" M 548.3333333333337 602.6666666666667 C 548.3333333333337 605.4280904158207 546.0947570824877 607.6666666666667 543.3333333333337 607.6666666666667 C 540.5719095841797 607.6666666666667 538.3333333333337 605.4280904158207 538.3333333333337 602.6666666666667 C 538.3333333333337 599.9052429175127 540.5719095841797 597.6666666666667 543.3333333333337 597.6666666666667 C 546.0947570824877 597.6666666666667 548.3333333333337 599.9052429175127 548.3333333333337 602.6666666666667 Z" fill-opacity="1"/><path fill="none" stroke="rgb(0,0,0)" paint-order="fill stroke markers" d=" M 548.3333333333337 602.6666666666667 C 548.3333333333337 605.4280904158207 546.0947570824877 607.6666666666667 543.3333333333337 607.6666666666667 C 540.5719095841797 607.6666666666667 538.3333333333337 605.4280904158207 538.3333333333337 602.6666666666667 C 538.3333333333337 599.9052429175127 540.5719095841797 597.6666666666667 543.3333333333337 597.6666666666667 C 546.0947570824877 597.6666666666667 548.3333333333337 599.9052429175127 548.3333333333337 602.6666666666667 Z" stroke-opacity="1" stroke-linecap="round" stroke-linejoin="round" stroke-miterlimit="10"/><path fill="rgb(21,101,192)" stroke="none" paint-order="stroke fill markers" d=" M 570.555555555556 558.2222222222224 C 570.555555555556 560.9836459713764 568.31697930471 563.2222222222224 565.555555555556 563.2222222222224 C 562.794131806402 563.2222222222224 560.555555555556 560.9836459713764 560.555555555556 558.2222222222224 C 560.555555555556 555.4607984730684 562.794131806402 553.2222222222224 565.555555555556 553.2222222222224 C 568.31697930471 553.2222222222224 570.555555555556 555.4607984730684 570.555555555556 558.2222222222224 Z" fill-opacity="1"/><path fill="none" stroke="rgb(0,0,0)" paint-order="fill stroke markers" d=" M 570.555555555556 558.2222222222224 C 570.555555555556 560.9836459713764 568.31697930471 563.2222222222224 565.555555555556 563.2222222222224 C 562.794131806402 563.2222222222224 560.555555555556 560.9836459713764 560.555555555556 558.2222222222224 C 560.555555555556 555.4607984730684 562.794131806402 553.2222222222224 565.555555555556 553.2222222222224 C 568.31697930471 553.2222222222224 570.555555555556 555.4607984730684 570.555555555556 558.2222222222224 Z" stroke-opacity="1" stroke-linecap="round" stroke-linejoin="round" stroke-miterlimit="10"/><path fill="rgb(21,101,192)" stroke="none" paint-order="stroke fill markers" d=" M 548.3333333333337 691.5555555555554 C 548.3333333333337 694.3169793047094 546.0947570824877 696.5555555555554 543.3333333333337 696.5555555555554 C 540.5719095841797 696.5555555555554 538.3333333333337 694.3169793047094 538.3333333333337 691.5555555555554 C 538.3333333333337 688.7941318064014 540.5719095841797 686.5555555555554 543.3333333333337 686.5555555555554 C 546.0947570824877 686.5555555555554 548.3333333333337 688.7941318064014 548.3333333333337 691.5555555555554 Z" fill-opacity="1"/><path fill="none" stroke="rgb(0,0,0)" paint-order="fill stroke markers" d=" M 548.3333333333337 691.5555555555554 C 548.3333333333337 694.3169793047094 546.0947570824877 696.5555555555554 543.3333333333337 696.5555555555554 C 540.5719095841797 696.5555555555554 538.3333333333337 694.3169793047094 538.3333333333337 691.5555555555554 C 538.3333333333337 688.7941318064014 540.5719095841797 686.5555555555554 543.3333333333337 686.5555555555554 C 546.0947570824877 686.5555555555554 548.3333333333337 688.7941318064014 548.3333333333337 691.5555555555554 Z" stroke-opacity="1" stroke-linecap="round" stroke-linejoin="round" stroke-miterlimit="10"/><path fill="rgb(21,101,192)" stroke="none" paint-order="stroke fill markers" d=" M 592.7777777777783 691.5555555555554 C 592.7777777777783 694.3169793047094 590.5392015269323 696.5555555555554 587.7777777777783 696.5555555555554 C 585.0163540286243 696.5555555555554 582.7777777777783 694.3169793047094 582.7777777777783 691.5555555555554 C 582.7777777777783 688.7941318064014 585.0163540286243 686.5555555555554 587.7777777777783 686.5555555555554 C 590.5392015269323 686.5555555555554 592.7777777777783 688.7941318064014 592.7777777777783 691.5555555555554 Z" fill-opacity="1"/><path fill="none" stroke="rgb(0,0,0)" paint-order="fill stroke markers" d=" M 592.7777777777783 691.5555555555554 C 592.7777777777783 694.3169793047094 590.5392015269323 696.5555555555554 587.7777777777783 696.5555555555554 C 585.0163540286243 696.5555555555554 582.7777777777783 694.3169793047094 582.7777777777783 691.5555555555554 C 582.7777777777783 688.7941318064014 585.0163540286243 686.5555555555554 587.7777777777783 686.5555555555554 C 590.5392015269323 686.5555555555554 592.7777777777783 688.7941318064014 592.7777777777783 691.5555555555554 Z" stroke-opacity="1" stroke-linecap="round" stroke-linejoin="round" stroke-miterlimit="10"/><path fill="rgb(21,101,192)" stroke="none" paint-order="stroke fill markers" d=" M 570.555555555556 647.1111111111111 C 570.555555555556 649.8725348602651 568.31697930471 652.1111111111111 565.555555555556 652.1111111111111 C 562.794131806402 652.1111111111111 560.555555555556 649.8725348602651 560.555555555556 647.1111111111111 C 560.555555555556 644.3496873619571 562.794131806402 642.1111111111111 565.555555555556 642.1111111111111 C 568.31697930471 642.1111111111111 570.555555555556 644.3496873619571 570.555555555556 647.1111111111111 Z" fill-opacity="1"/><path fill="none" stroke="rgb(0,0,0)" paint-order="fill stroke markers" d=" M 570.555555555556 647.1111111111111 C 570.555555555556 649.8725348602651 568.31697930471 652.1111111111111 565.555555555556 652.1111111111111 C 562.794131806402 652.1111111111111 560.555555555556 649.8725348602651 560.555555555556 647.1111111111111 C 560.555555555556 644.3496873619571 562.794131806402 642.1111111111111 565.555555555556 642.1111111111111 C 568.31697930471 642.1111111111111 570.555555555556 644.3496873619571 570.555555555556 647.1111111111111 Z" stroke-opacity="1" stroke-linecap="round" stroke-linejoin="round" stroke-miterlimit="10"/><path fill="rgb(21,101,192)" stroke="none" paint-order="stroke fill markers" d=" M 637.2222222222227 691.5555555555554 C 637.2222222222227 694.3169793047094 634.9836459713767 696.5555555555554 632.2222222222227 696.5555555555554 C 629.4607984730687 696.5555555555554 627.2222222222227 694.3169793047094 627.2222222222227 691.5555555555554 C 627.2222222222227 688.7941318064014 629.4607984730687 686.5555555555554 632.2222222222227 686.5555555555554 C 634.9836459713767 686.5555555555554 637.2222222222227 688.7941318064014 637.2222222222227 691.5555555555554 Z" fill-opacity="1"/><path fill="none" stroke="rgb(0,0,0)" paint-order="fill stroke markers" d=" M 637.2222222222227 691.5555555555554 C 637.2222222222227 694.3169793047094 634.9836459713767 696.5555555555554 632.2222222222227 696.5555555555554 C 629.4607984730687 696.5555555555554 627.2222222222227 694.3169793047094 627.2222222222227 691.5555555555554 C 627.2222222222227 688.7941318064014 629.4607984730687 686.5555555555554 632.2222222222227 686.5555555555554 C 634.9836459713767 686.5555555555554 637.2222222222227 688.7941318064014 637.2222222222227 691.5555555555554 Z" stroke-opacity="1" stroke-linecap="round" stroke-linejoin="round" stroke-miterlimit="10"/><path fill="rgb(21,101,192)" stroke="none" paint-order="stroke fill markers" d=" M 615.0000000000005 647.1111111111111 C 615.0000000000005 649.8725348602651 612.7614237491545 652.1111111111111 610.0000000000005 652.1111111111111 C 607.2385762508464 652.1111111111111 605.0000000000005 649.8725348602651 605.0000000000005 647.1111111111111 C 605.0000000000005 644.3496873619571 607.2385762508464 642.1111111111111 610.0000000000005 642.1111111111111 C 612.7614237491545 642.1111111111111 615.0000000000005 644.3496873619571 615.0000000000005 647.1111111111111 Z" fill-opacity="1"/><path fill="none" stroke="rgb(0,0,0)" paint-order="fill stroke markers" d=" M 615.0000000000005 647.1111111111111 C 615.0000000000005 649.8725348602651 612.7614237491545 652.1111111111111 610.0000000000005 652.1111111111111 C 607.2385762508464 652.1111111111111 605.0000000000005 649.8725348602651 605.0000000000005 647.1111111111111 C 605.0000000000005 644.3496873619571 607.2385762508464 642.1111111111111 610.0000000000005 642.1111111111111 C 612.7614237491545 642.1111111111111 615.0000000000005 644.3496873619571 615.0000000000005 647.1111111111111 Z" stroke-opacity="1" stroke-linecap="round" stroke-linejoin="round" stroke-miterlimit="10"/><path fill="rgb(21,101,192)" stroke="none" paint-order="stroke fill markers" d=" M 592.7777777777783 602.6666666666667 C 592.7777777777783 605.4280904158207 590.5392015269323 607.6666666666667 587.7777777777783 607.6666666666667 C 585.0163540286243 607.6666666666667 582.7777777777783 605.4280904158207 582.7777777777783 602.6666666666667 C 582.7777777777783 599.9052429175127 585.0163540286243 597.6666666666667 587.7777777777783 597.6666666666667 C 590.5392015269323 597.6666666666667 592.7777777777783 599.9052429175127 592.7777777777783 602.6666666666667 Z" fill-opacity="1"/><path fill="none" stroke="rgb(0,0,0)" paint-order="fill stroke markers" d=" M 592.7777777777783 602.6666666666667 C 592.7777777777783 605.4280904158207 590.5392015269323 607.6666666666667 587.7777777777783 607.6666666666667 C 585.0163540286243 607.6666666666667 582.7777777777783 605.4280904158207 582.7777777777783 602.6666666666667 C 582.7777777777783 599.9052429175127 585.0163540286243 597.6666666666667 587.7777777777783 597.6666666666667 C 590.5392015269323 597.6666666666667 592.7777777777783 599.9052429175127 592.7777777777783 602.6666666666667 Z" stroke-opacity="1" stroke-linecap="round" stroke-linejoin="round" stroke-miterlimit="10"/><path fill="rgb(21,101,192)" stroke="none" paint-order="stroke fill markers" d=" M 726.1111111111118 691.5555555555554 C 726.1111111111118 694.3169793047094 723.8725348602658 696.5555555555554 721.1111111111118 696.5555555555554 C 718.3496873619578 696.5555555555554 716.1111111111118 694.3169793047094 716.1111111111118 691.5555555555554 C 716.1111111111118 688.7941318064014 718.3496873619578 686.5555555555554 721.1111111111118 686.5555555555554 C 723.8725348602658 686.5555555555554 726.1111111111118 688.7941318064014 726.1111111111118 691.5555555555554 Z" fill-opacity="1"/><path fill="none" stroke="rgb(0,0,0)" paint-order="fill stroke markers" d=" M 726.1111111111118 691.5555555555554 C 726.1111111111118 694.3169793047094 723.8725348602658 696.5555555555554 721.1111111111118 696.5555555555554 C 718.3496873619578 696.5555555555554 716.1111111111118 694.3169793047094 716.1111111111118 691.5555555555554 C 716.1111111111118 688.7941318064014 718.3496873619578 686.5555555555554 721.1111111111118 686.5555555555554 C 723.8725348602658 686.5555555555554 726.1111111111118 688.7941318064014 726.1111111111118 691.5555555555554 Z" stroke-opacity="1" stroke-linecap="round" stroke-linejoin="round" stroke-miterlimit="10"/><path fill="rgb(21,101,192)" stroke="none" paint-order="stroke fill markers" d=" M 748.3333333333339 647.1111111111111 C 748.3333333333339 649.8725348602651 746.094757082488 652.1111111111111 743.3333333333339 652.1111111111111 C 740.5719095841799 652.1111111111111 738.3333333333339 649.8725348602651 738.3333333333339 647.1111111111111 C 738.3333333333339 644.3496873619571 740.5719095841799 642.1111111111111 743.3333333333339 642.1111111111111 C 746.094757082488 642.1111111111111 748.3333333333339 644.3496873619571 748.3333333333339 647.1111111111111 Z" fill-opacity="1"/><path fill="none" stroke="rgb(0,0,0)" paint-order="fill stroke markers" d=" M 748.3333333333339 647.1111111111111 C 748.3333333333339 649.8725348602651 746.094757082488 652.1111111111111 743.3333333333339 652.1111111111111 C 740.5719095841799 652.1111111111111 738.3333333333339 649.8725348602651 738.3333333333339 647.1111111111111 C 738.3333333333339 644.3496873619571 740.5719095841799 642.1111111111111 743.3333333333339 642.1111111111111 C 746.094757082488 642.1111111111111 748.3333333333339 644.3496873619571 748.3333333333339 647.1111111111111 Z" stroke-opacity="1" stroke-linecap="round" stroke-linejoin="round" stroke-miterlimit="10"/><path fill="rgb(21,101,192)" stroke="none" paint-order="stroke fill markers" d=" M 770.5555555555562 602.6666666666667 C 770.5555555555562 605.4280904158207 768.3169793047102 607.6666666666667 765.5555555555562 607.6666666666667 C 762.7941318064022 607.6666666666667 760.5555555555562 605.4280904158207 760.5555555555562 602.6666666666667 C 760.5555555555562 599.9052429175127 762.7941318064022 597.6666666666667 765.5555555555562 597.6666666666667 C 768.3169793047102 597.6666666666667 770.5555555555562 599.9052429175127 770.5555555555562 602.6666666666667 Z" fill-opacity="1"/><path fill="none" stroke="rgb(0,0,0)" paint-order="fill stroke markers" d=" M 770.5555555555562 602.6666666666667 C 770.5555555555562 605.4280904158207 768.3169793047102 607.6666666666667 765.5555555555562 607.6666666666667 C 762.7941318064022 607.6666666666667 760.5555555555562 605.4280904158207 760.5555555555562 602.6666666666667 C 760.5555555555562 599.9052429175127 762.7941318064022 597.6666666666667 765.5555555555562 597.6666666666667 C 768.3169793047102 597.6666666666667 770.5555555555562 599.9052429175127 770.5555555555562 602.6666666666667 Z" stroke-opacity="1" stroke-linecap="round" stroke-linejoin="round" stroke-miterlimit="10"/><path fill="rgb(21,101,192)" stroke="none" paint-order="stroke fill markers" d=" M 792.7777777777784 558.2222222222224 C 792.7777777777784 560.9836459713764 790.5392015269324 563.2222222222224 787.7777777777784 563.2222222222224 C 785.0163540286244 563.2222222222224 782.7777777777784 560.9836459713764 782.7777777777784 558.2222222222224 C 782.7777777777784 555.4607984730684 785.0163540286244 553.2222222222224 787.7777777777784 553.2222222222224 C 790.5392015269324 553.2222222222224 792.7777777777784 555.4607984730684 792.7777777777784 558.2222222222224 Z" fill-opacity="1"/><path fill="none" stroke="rgb(0,0,0)" paint-order="fill stroke markers" d=" M 792.7777777777784 558.2222222222224 C 792.7777777777784 560.9836459713764 790.5392015269324 563.2222222222224 787.7777777777784 563.2222222222224 C 785.0163540286244 563.2222222222224 782.7777777777784 560.9836459713764 782.7777777777784 558.2222222222224 C 782.7777777777784 555.4607984730684 785.0163540286244 553.2222222222224 787.7777777777784 553.2222222222224 C 790.5392015269324 553.2222222222224 792.7777777777784 555.4607984730684 792.7777777777784 558.2222222222224 Z" stroke-opacity="1" stroke-linecap="round" stroke-linejoin="round" stroke-miterlimit="10"/><path fill="rgb(21,101,192)" stroke="none" paint-order="stroke fill markers" d=" M 815.0000000000007 513.777777777778 C 815.0000000000007 516.5392015269321 812.7614237491547 518.777777777778 810.0000000000007 518.777777777778 C 807.2385762508467 518.777777777778 805.0000000000007 516.5392015269321 805.0000000000007 513.777777777778 C 805.0000000000007 511.0163540286241 807.2385762508467 508.77777777777806 810.0000000000007 508.77777777777806 C 812.7614237491547 508.77777777777806 815.0000000000007 511.0163540286241 815.0000000000007 513.777777777778 Z" fill-opacity="1"/><path fill="none" stroke="rgb(0,0,0)" paint-order="fill stroke markers" d=" M 815.0000000000007 513.777777777778 C 815.0000000000007 516.5392015269321 812.7614237491547 518.777777777778 810.0000000000007 518.777777777778 C 807.2385762508467 518.777777777778 805.0000000000007 516.5392015269321 805.0000000000007 513.777777777778 C 805.0000000000007 511.0163540286241 807.2385762508467 508.77777777777806 810.0000000000007 508.77777777777806 C 812.7614237491547 508.77777777777806 815.0000000000007 511.0163540286241 815.0000000000007 513.777777777778 Z" stroke-opacity="1" stroke-linecap="round" stroke-linejoin="round" stroke-miterlimit="10"/><path fill="rgb(21,101,192)" stroke="none" paint-order="stroke fill markers" d=" M 770.5555555555562 691.5555555555554 C 770.5555555555562 694.3169793047094 768.3169793047102 696.5555555555554 765.5555555555562 696.5555555555554 C 762.7941318064022 696.5555555555554 760.5555555555562 694.3169793047094 760.5555555555562 691.5555555555554 C 760.5555555555562 688.7941318064014 762.7941318064022 686.5555555555554 765.5555555555562 686.5555555555554 C 768.3169793047102 686.5555555555554 770.5555555555562 688.7941318064014 770.5555555555562 691.5555555555554 Z" fill-opacity="1"/><path fill="none" stroke="rgb(0,0,0)" paint-order="fill stroke markers" d=" M 770.5555555555562 691.5555555555554 C 770.5555555555562 694.3169793047094 768.3169793047102 696.5555555555554 765.5555555555562 696.5555555555554 C 762.7941318064022 696.5555555555554 760.5555555555562 694.3169793047094 760.5555555555562 691.5555555555554 C 760.5555555555562 688.7941318064014 762.7941318064022 686.5555555555554 765.5555555555562 686.5555555555554 C 768.3169793047102 686.5555555555554 770.5555555555562 688.7941318064014 770.5555555555562 691.5555555555554 Z" stroke-opacity="1" stroke-linecap="round" stroke-linejoin="round" stroke-miterlimit="10"/><path fill="rgb(21,101,192)" stroke="none" paint-order="stroke fill markers" d=" M 815.0000000000007 691.5555555555554 C 815.0000000000007 694.3169793047094 812.7614237491547 696.5555555555554 810.0000000000007 696.5555555555554 C 807.2385762508467 696.5555555555554 805.0000000000007 694.3169793047094 805.0000000000007 691.5555555555554 C 805.0000000000007 688.7941318064014 807.2385762508467 686.5555555555554 810.0000000000007 686.5555555555554 C 812.7614237491547 686.5555555555554 815.0000000000007 688.7941318064014 815.0000000000007 691.5555555555554 Z" fill-opacity="1"/><path fill="none" stroke="rgb(0,0,0)" paint-order="fill stroke markers" d=" M 815.0000000000007 691.5555555555554 C 815.0000000000007 694.3169793047094 812.7614237491547 696.5555555555554 810.0000000000007 696.5555555555554 C 807.2385762508467 696.5555555555554 805.0000000000007 694.3169793047094 805.0000000000007 691.5555555555554 C 805.0000000000007 688.7941318064014 807.2385762508467 686.5555555555554 810.0000000000007 686.5555555555554 C 812.7614237491547 686.5555555555554 815.0000000000007 688.7941318064014 815.0000000000007 691.5555555555554 Z" stroke-opacity="1" stroke-linecap="round" stroke-linejoin="round" stroke-miterlimit="10"/><path fill="rgb(21,101,192)" stroke="none" paint-order="stroke fill markers" d=" M 859.4444444444451 691.5555555555554 C 859.4444444444451 694.3169793047094 857.2058681935991 696.5555555555554 854.4444444444451 696.5555555555554 C 851.6830206952911 696.5555555555554 849.4444444444451 694.3169793047094 849.4444444444451 691.5555555555554 C 849.4444444444451 688.7941318064014 851.6830206952911 686.5555555555554 854.4444444444451 686.5555555555554 C 857.2058681935991 686.5555555555554 859.4444444444451 688.7941318064014 859.4444444444451 691.5555555555554 Z" fill-opacity="1"/><path fill="none" stroke="rgb(0,0,0)" paint-order="fill stroke markers" d=" M 859.4444444444451 691.5555555555554 C 859.4444444444451 694.3169793047094 857.2058681935991 696.5555555555554 854.4444444444451 696.5555555555554 C 851.6830206952911 696.5555555555554 849.4444444444451 694.3169793047094 849.4444444444451 691.5555555555554 C 849.4444444444451 688.7941318064014 851.6830206952911 686.5555555555554 854.4444444444451 686.5555555555554 C 857.2058681935991 686.5555555555554 859.4444444444451 688.7941318064014 859.4444444444451 691.5555555555554 Z" stroke-opacity="1" stroke-linecap="round" stroke-linejoin="round" stroke-miterlimit="10"/><path fill="rgb(21,101,192)" stroke="none" paint-order="stroke fill markers" d=" M 903.8888888888896 691.5555555555554 C 903.8888888888896 694.3169793047094 901.6503126380436 696.5555555555554 898.8888888888896 696.5555555555554 C 896.1274651397356 696.5555555555554 893.8888888888896 694.3169793047094 893.8888888888896 691.5555555555554 C 893.8888888888896 688.7941318064014 896.1274651397356 686.5555555555554 898.8888888888896 686.5555555555554 C 901.6503126380436 686.5555555555554 903.8888888888896 688.7941318064014 903.8888888888896 691.5555555555554 Z" fill-opacity="1"/><path fill="none" stroke="rgb(0,0,0)" paint-order="fill stroke markers" d=" M 903.8888888888896 691.5555555555554 C 903.8888888888896 694.3169793047094 901.6503126380436 696.5555555555554 898.8888888888896 696.5555555555554 C 896.1274651397356 696.5555555555554 893.8888888888896 694.3169793047094 893.8888888888896 691.5555555555554 C 893.8888888888896 688.7941318064014 896.1274651397356 686.5555555555554 898.8888888888896 686.5555555555554 C 901.6503126380436 686.5555555555554 903.8888888888896 688.7941318064014 903.8888888888896 691.5555555555554 Z" stroke-opacity="1" stroke-linecap="round" stroke-linejoin="round" stroke-miterlimit="10"/><path fill="rgb(21,101,192)" stroke="none" paint-order="stroke fill markers" d=" M 792.7777777777784 647.1111111111111 C 792.7777777777784 649.8725348602651 790.5392015269324 652.1111111111111 787.7777777777784 652.1111111111111 C 785.0163540286244 652.1111111111111 782.7777777777784 649.8725348602651 782.7777777777784 647.1111111111111 C 782.7777777777784 644.3496873619571 785.0163540286244 642.1111111111111 787.7777777777784 642.1111111111111 C 790.5392015269324 642.1111111111111 792.7777777777784 644.3496873619571 792.7777777777784 647.1111111111111 Z" fill-opacity="1"/><path fill="none" stroke="rgb(0,0,0)" paint-order="fill stroke markers" d=" M 792.7777777777784 647.1111111111111 C 792.7777777777784 649.8725348602651 790.5392015269324 652.1111111111111 787.7777777777784 652.1111111111111 C 785.0163540286244 652.1111111111111 782.7777777777784 649.8725348602651 782.7777777777784 647.1111111111111 C 782.7777777777784 644.3496873619571 785.0163540286244 642.1111111111111 787.7777777777784 642.1111111111111 C 790.5392015269324 642.1111111111111 792.7777777777784 644.3496873619571 792.7777777777784 647.1111111111111 Z" stroke-opacity="1" stroke-linecap="round" stroke-linejoin="round" stroke-miterlimit="10"/><path fill="rgb(21,101,192)" stroke="none" paint-order="stroke fill markers" d=" M 815.0000000000007 602.6666666666667 C 815.0000000000007 605.4280904158207 812.7614237491547 607.6666666666667 810.0000000000007 607.6666666666667 C 807.2385762508467 607.6666666666667 805.0000000000007 605.4280904158207 805.0000000000007 602.6666666666667 C 805.0000000000007 599.9052429175127 807.2385762508467 597.6666666666667 810.0000000000007 597.6666666666667 C 812.7614237491547 597.6666666666667 815.0000000000007 599.9052429175127 815.0000000000007 602.6666666666667 Z" fill-opacity="1"/><path fill="none" stroke="rgb(0,0,0)" paint-order="fill stroke markers" d=" M 815.0000000000007 602.6666666666667 C 815.0000000000007 605.4280904158207 812.7614237491547 607.6666666666667 810.0000000000007 607.6666666666667 C 807.2385762508467 607.6666666666667 805.0000000000007 605.4280904158207 805.0000000000007 602.6666666666667 C 805.0000000000007 599.9052429175127 807.2385762508467 597.6666666666667 810.0000000000007 597.6666666666667 C 812.7614237491547 597.6666666666667 815.0000000000007 599.9052429175127 815.0000000000007 602.6666666666667 Z" stroke-opacity="1" stroke-linecap="round" stroke-linejoin="round" stroke-miterlimit="10"/><path fill="rgb(21,101,192)" stroke="none" paint-order="stroke fill markers" d=" M 837.222222222223 647.1111111111111 C 837.222222222223 649.8725348602651 834.983645971377 652.1111111111111 832.222222222223 652.1111111111111 C 829.460798473069 652.1111111111111 827.222222222223 649.8725348602651 827.222222222223 647.1111111111111 C 827.222222222223 644.3496873619571 829.460798473069 642.1111111111111 832.222222222223 642.1111111111111 C 834.983645971377 642.1111111111111 837.222222222223 644.3496873619571 837.222222222223 647.1111111111111 Z" fill-opacity="1"/><path fill="none" stroke="rgb(0,0,0)" paint-order="fill stroke markers" d=" M 837.222222222223 647.1111111111111 C 837.222222222223 649.8725348602651 834.983645971377 652.1111111111111 832.222222222223 652.1111111111111 C 829.460798473069 652.1111111111111 827.222222222223 649.8725348602651 827.222222222223 647.1111111111111 C 827.222222222223 644.3496873619571 829.460798473069 642.1111111111111 832.222222222223 642.1111111111111 C 834.983645971377 642.1111111111111 837.222222222223 644.3496873619571 837.222222222223 647.1111111111111 Z" stroke-opacity="1" stroke-linecap="round" stroke-linejoin="round" stroke-miterlimit="10"/><path fill="rgb(21,101,192)" stroke="none" paint-order="stroke fill markers" d=" M 837.222222222223 558.2222222222224 C 837.222222222223 560.9836459713764 834.983645971377 563.2222222222224 832.222222222223 563.2222222222224 C 829.460798473069 563.2222222222224 827.222222222223 560.9836459713764 827.222222222223 558.2222222222224 C 827.222222222223 555.4607984730684 829.460798473069 553.2222222222224 832.222222222223 553.2222222222224 C 834.983645971377 553.2222222222224 837.222222222223 555.4607984730684 837.222222222223 558.2222222222224 Z" fill-opacity="1"/><path fill="none" stroke="rgb(0,0,0)" paint-order="fill stroke markers" d=" M 837.222222222223 558.2222222222224 C 837.222222222223 560.9836459713764 834.983645971377 563.2222222222224 832.222222222223 563.2222222222224 C 829.460798473069 563.2222222222224 827.222222222223 560.9836459713764 827.222222222223 558.2222222222224 C 827.222222222223 555.4607984730684 829.460798473069 553.2222222222224 832.222222222223 553.2222222222224 C 834.983645971377 553.2222222222224 837.222222222223 555.4607984730684 837.222222222223 558.2222222222224 Z" stroke-opacity="1" stroke-linecap="round" stroke-linejoin="round" stroke-miterlimit="10"/><path fill="rgb(21,101,192)" stroke="none" paint-order="stroke fill markers" d=" M 859.4444444444451 602.6666666666667 C 859.4444444444451 605.4280904158207 857.2058681935991 607.6666666666667 854.4444444444451 607.6666666666667 C 851.6830206952911 607.6666666666667 849.4444444444451 605.4280904158207 849.4444444444451 602.6666666666667 C 849.4444444444451 599.9052429175127 851.6830206952911 597.6666666666667 854.4444444444451 597.6666666666667 C 857.2058681935991 597.6666666666667 859.4444444444451 599.9052429175127 859.4444444444451 602.6666666666667 Z" fill-opacity="1"/><path fill="none" stroke="rgb(0,0,0)" paint-order="fill stroke markers" d=" M 859.4444444444451 602.6666666666667 C 859.4444444444451 605.4280904158207 857.2058681935991 607.6666666666667 854.4444444444451 607.6666666666667 C 851.6830206952911 607.6666666666667 849.4444444444451 605.4280904158207 849.4444444444451 602.6666666666667 C 849.4444444444451 599.9052429175127 851.6830206952911 597.6666666666667 854.4444444444451 597.6666666666667 C 857.2058681935991 597.6666666666667 859.4444444444451 599.9052429175127 859.4444444444451 602.6666666666667 Z" stroke-opacity="1" stroke-linecap="round" stroke-linejoin="round" stroke-miterlimit="10"/><path fill="rgb(21,101,192)" stroke="none" paint-order="stroke fill markers" d=" M 881.6666666666674 647.1111111111111 C 881.6666666666674 649.8725348602651 879.4280904158214 652.1111111111111 876.6666666666674 652.1111111111111 C 873.9052429175134 652.1111111111111 871.6666666666674 649.8725348602651 871.6666666666674 647.1111111111111 C 871.6666666666674 644.3496873619571 873.9052429175134 642.1111111111111 876.6666666666674 642.1111111111111 C 879.4280904158214 642.1111111111111 881.6666666666674 644.3496873619571 881.6666666666674 647.1111111111111 Z" fill-opacity="1"/><path fill="none" stroke="rgb(0,0,0)" paint-order="fill stroke markers" d=" M 881.6666666666674 647.1111111111111 C 881.6666666666674 649.8725348602651 879.4280904158214 652.1111111111111 876.6666666666674 652.1111111111111 C 873.9052429175134 652.1111111111111 871.6666666666674 649.8725348602651 871.6666666666674 647.1111111111111 C 871.6666666666674 644.3496873619571 873.9052429175134 642.1111111111111 876.6666666666674 642.1111111111111 C 879.4280904158214 642.1111111111111 881.6666666666674 644.3496873619571 881.6666666666674 647.1111111111111 Z" stroke-opacity="1" stroke-linecap="round" stroke-linejoin="round" stroke-miterlimit="10"/><g transform="scale(19,19)"><g transform="translate(5.157894736842105,38.01286505263158)"><path fill="rgb(0,0,0)" stroke="none" paint-order="stroke fill markers" d=" M 0.294 -0.64 L 0.294 -0.079 Q 0.294 -0.049 0.306 -0.041 Q 0.323 -0.031 0.387 -0.031 L 0.419 -0.031 L 0.419 0 Q 0.384 -0.003 0.257 -0.003 Q 0.13 -0.003 0.095 0 L 0.095 -0.031 L 0.127 -0.031 Q 0.20400000000000001 -0.031 0.215 -0.049 L 0.216 -0.05 Q 0.22 -0.058 0.22 -0.079 L 0.22 -0.597 Q 0.168 -0.5710000000000001 0.089 -0.5710000000000001 L 0.089 -0.602 Q 0.209 -0.602 0.271 -0.666 Q 0.29 -0.666 0.293 -0.659 L 0.293 -0.659 L 0.293 -0.658 Q 0.294 -0.655 0.294 -0.64 Z"/></g></g><g transform="scale(19,19)"><g transform="translate(11.105263157894736,38.01286505263158)"><path fill="rgb(0,0,0)" stroke="none" paint-order="stroke fill markers" d=" M 0.29 -0.352 L 0.29 -0.352 Q 0.39 -0.332 0.434 -0.254 Q 0.457 -0.215 0.457 -0.171 Q 0.457 -0.08600000000000001 0.387 -0.028 Q 0.326 0.022 0.244 0.022 Q 0.145 0.022 0.085 -0.037 Q 0.042 -0.079 0.042 -0.135 Q 0.042 -0.182 0.084 -0.191 Q 0.091 -0.193 0.098 -0.193 Q 0.136 -0.193 0.149 -0.161 Q 0.153 -0.148 0.154 -0.137 Q 0.154 -0.097 0.11800000000000001 -0.085 Q 0.10400000000000001 -0.08 0.088 -0.082 Q 0.125 -0.02 0.216 -0.008 Q 0.229 -0.006 0.241 -0.006 Q 0.305 -0.006 0.335 -0.069 Q 0.354 -0.109 0.354 -0.171 Q 0.354 -0.304 0.274 -0.331 Q 0.256 -0.337 0.23500000000000001 -0.337 L 0.191 -0.337 Q 0.169 -0.337 0.167 -0.34800000000000003 Q 0.167 -0.358 0.182 -0.36 Q 0.197 -0.36 0.221 -0.363 Q 0.272 -0.365 0.301 -0.402 L 0.301 -0.403 L 0.302 -0.404 L 0.303 -0.405 L 0.304 -0.405 L 0.31 -0.41500000000000004 Q 0.338 -0.462 0.338 -0.529 Q 0.338 -0.622 0.266 -0.638 Q 0.254 -0.641 0.242 -0.641 Q 0.17200000000000001 -0.641 0.128 -0.601 Q 0.117 -0.591 0.109 -0.579 Q 0.171 -0.579 0.171 -0.529 Q 0.171 -0.493 0.14 -0.481 Q 0.131 -0.47800000000000004 0.12 -0.47800000000000004 Q 0.081 -0.47800000000000004 0.07100000000000001 -0.513 L 0.07100000000000001 -0.513 L 0.07100000000000001 -0.514 Q 0.069 -0.522 0.069 -0.53 Q 0.069 -0.597 0.135 -0.637 Q 0.183 -0.666 0.246 -0.666 Q 0.337 -0.666 0.393 -0.612 L 0.395 -0.61 Q 0.43 -0.5740000000000001 0.43 -0.528 Q 0.43 -0.445 0.359 -0.389 Q 0.328 -0.365 0.29 -0.352 Z"/></g></g><g transform="scale(19,19)"><g transform="translate(19.263157894736842,38.065496631578945)"><path fill="rgb(0,0,0)" stroke="none" paint-order="stroke fill markers" d=" M 0.132 -0.328 L 0.132 -0.328 Q 0.17300000000000001 -0.427 0.257 -0.427 Q 0.34900000000000003 -0.427 0.40800000000000003 -0.35100000000000003 Q 0.441 -0.31 0.452 -0.255 Q 0.457 -0.23 0.457 -0.20400000000000001 Q 0.457 -0.093 0.38 -0.026000000000000002 Q 0.324 0.022 0.251 0.022 Q 0.149 0.022 0.092 -0.075 Q 0.042 -0.162 0.042 -0.316 Q 0.042 -0.489 0.14 -0.591 Q 0.213 -0.666 0.305 -0.666 Q 0.392 -0.666 0.422 -0.605 Q 0.432 -0.584 0.432 -0.558 Q 0.432 -0.518 0.395 -0.511 Q 0.39 -0.51 0.386 -0.51 Q 0.354 -0.51 0.343 -0.538 Q 0.34 -0.546 0.34 -0.556 Q 0.34 -0.601 0.395 -0.601 Q 0.369 -0.641 0.307 -0.641 Q 0.23700000000000002 -0.641 0.189 -0.578 Q 0.132 -0.503 0.132 -0.352 L 0.132 -0.328 M 0.251 -0.006 L 0.251 -0.006 Q 0.318 -0.006 0.35000000000000003 -0.07100000000000001 Q 0.367 -0.107 0.367 -0.20500000000000002 Q 0.367 -0.305 0.34900000000000003 -0.342 Q 0.318 -0.404 0.256 -0.404 Q 0.177 -0.404 0.147 -0.31 Q 0.134 -0.271 0.134 -0.226 Q 0.134 -0.128 0.152 -0.081 Q 0.171 -0.035 0.211 -0.015 Q 0.23 -0.006 0.251 -0.006 Z"/></g></g><g transform="scale(19,19)"><g transform="translate(29.68421052631579,38.01286505263158)"><path fill="rgb(0,0,0)" stroke="none" paint-order="stroke fill markers" d=" M 0.294 -0.64 L 0.294 -0.079 Q 0.294 -0.049 0.306 -0.041 Q 0.323 -0.031 0.387 -0.031 L 0.419 -0.031 L 0.419 0 Q 0.384 -0.003 0.257 -0.003 Q 0.13 -0.003 0.095 0 L 0.095 -0.031 L 0.127 -0.031 Q 0.20400000000000001 -0.031 0.215 -0.049 L 0.216 -0.05 Q 0.22 -0.058 0.22 -0.079 L 0.22 -0.597 Q 0.168 -0.5710000000000001 0.089 -0.5710000000000001 L 0.089 -0.602 Q 0.209 -0.602 0.271 -0.666 Q 0.29 -0.666 0.293 -0.659 L 0.293 -0.659 L 0.293 -0.658 Q 0.294 -0.655 0.294 -0.64 Z"/></g><g transform="translate(30.18421252631579,38.01286505263158)"><path fill="rgb(0,0,0)" stroke="none" paint-order="stroke fill markers" d=" M 0.46 -0.32 Q 0.46 -0.17400000000000002 0.423 -0.094 Q 0.364 0.018000000000000002 0.249 0.022 Q 0.158 0.022 0.10300000000000001 -0.05 Q 0.092 -0.063 0.084 -0.079 Q 0.039 -0.162 0.039 -0.32 Q 0.039 -0.467 0.076 -0.547 Q 0.126 -0.659 0.23800000000000002 -0.666 L 0.25 -0.666 Q 0.339 -0.666 0.395 -0.595 L 0.395 -0.594 Q 0.40900000000000003 -0.5760000000000001 0.42 -0.554 Q 0.46 -0.46900000000000003 0.46 -0.32 M 0.249 0 L 0.249 0 Q 0.312 0 0.34600000000000003 -0.061 Q 0.36 -0.088 0.366 -0.125 Q 0.377 -0.189 0.377 -0.332 Q 0.377 -0.47100000000000003 0.367 -0.527 Q 0.34900000000000003 -0.622 0.275 -0.641 Q 0.262 -0.644 0.249 -0.644 Q 0.179 -0.644 0.147 -0.5740000000000001 Q 0.136 -0.55 0.13 -0.516 Q 0.122 -0.462 0.122 -0.332 Q 0.122 -0.181 0.133 -0.121 Q 0.151 -0.025 0.221 -0.004 Q 0.23500000000000001 0 0.249 0 Z"/></g></g><g transform="scale(19,19)"><g transform="translate(42.526315789473685,38.01286505263158)"><path fill="rgb(0,0,0)" stroke="none" paint-order="stroke fill markers" d=" M 0.294 -0.64 L 0.294 -0.079 Q 0.294 -0.049 0.306 -0.041 Q 0.323 -0.031 0.387 -0.031 L 0.419 -0.031 L 0.419 0 Q 0.384 -0.003 0.257 -0.003 Q 0.13 -0.003 0.095 0 L 0.095 -0.031 L 0.127 -0.031 Q 0.20400000000000001 -0.031 0.215 -0.049 L 0.216 -0.05 Q 0.22 -0.058 0.22 -0.079 L 0.22 -0.597 Q 0.168 -0.5710000000000001 0.089 -0.5710000000000001 L 0.089 -0.602 Q 0.209 -0.602 0.271 -0.666 Q 0.29 -0.666 0.293 -0.659 L 0.293 -0.659 L 0.293 -0.658 Q 0.294 -0.655 0.294 -0.64 Z"/></g><g transform="translate(43.02631778947369,38.01286505263158)"><path fill="rgb(0,0,0)" stroke="none" paint-order="stroke fill markers" d=" M 0.449 -0.201 L 0.449 -0.201 Q 0.449 -0.098 0.372 -0.031 Q 0.31 0.022 0.231 0.022 Q 0.139 0.022 0.085 -0.055 Q 0.05 -0.10400000000000001 0.05 -0.161 Q 0.05 -0.20700000000000002 0.091 -0.213 Q 0.095 -0.214 0.099 -0.214 Q 0.136 -0.214 0.147 -0.181 Q 0.149 -0.17300000000000001 0.149 -0.165 Q 0.149 -0.133 0.121 -0.121 Q 0.111 -0.116 0.099 -0.116 Q 0.088 -0.116 0.082 -0.11800000000000001 Q 0.1 -0.055 0.159 -0.024 Q 0.192 -0.006 0.229 -0.006 Q 0.296 -0.006 0.336 -0.07100000000000001 Q 0.36 -0.113 0.36 -0.20800000000000002 Q 0.36 -0.292 0.342 -0.334 Q 0.314 -0.398 0.257 -0.398 Q 0.176 -0.398 0.128 -0.328 Q 0.122 -0.319 0.115 -0.319 Q 0.10200000000000001 -0.319 0.101 -0.333 L 0.101 -0.34500000000000003 L 0.101 -0.641 Q 0.101 -0.664 0.111 -0.665 Q 0.115 -0.665 0.123 -0.662 Q 0.186 -0.634 0.256 -0.634 Q 0.328 -0.634 0.392 -0.663 Q 0.397 -0.666 0.4 -0.666 Q 0.41000000000000003 -0.666 0.41000000000000003 -0.655 Q 0.41000000000000003 -0.642 0.378 -0.613 Q 0.31 -0.551 0.217 -0.551 Q 0.17500000000000002 -0.551 0.132 -0.5640000000000001 L 0.132 -0.369 Q 0.184 -0.42 0.259 -0.42 Q 0.34700000000000003 -0.42 0.404 -0.343 Q 0.449 -0.28200000000000003 0.449 -0.201 Z"/></g></g></g></g></svg>